solid ASCII
  facet normal -9.667353e-01 2.556849e-01 6.935369e-03
    outer loop
      vertex   4.121273e+02 3.561985e+02 -1.412996e+02
      vertex   4.113207e+02 3.533087e+02 -1.471982e+02
      vertex   3.943853e+02 2.891165e+02 -1.412996e+02
    endloop
  endfacet
  facet normal -9.667353e-01 2.556849e-01 6.935369e-03
    outer loop
      vertex   3.943853e+02 2.891165e+02 -1.412996e+02
      vertex   4.113207e+02 3.533087e+02 -1.471982e+02
      vertex   3.951128e+02 2.920273e+02 -1.471982e+02
    endloop
  endfacet
  facet normal -9.667353e-01 2.556849e-01 6.935369e-03
    outer loop
      vertex   3.943853e+02 2.891165e+02 -1.412996e+02
      vertex   3.951128e+02 2.920273e+02 -1.471982e+02
      vertex   3.943458e+02 2.891270e+02 -1.471982e+02
    endloop
  endfacet
  facet normal -9.667353e-01 2.556849e-01 6.935369e-03
    outer loop
      vertex   3.943458e+02 2.891270e+02 -1.471982e+02
      vertex   3.951128e+02 2.920273e+02 -1.471982e+02
      vertex   3.950927e+02 2.920326e+02 -1.501982e+02
    endloop
  endfacet
  facet normal -9.667353e-01 2.556849e-01 6.935369e-03
    outer loop
      vertex   3.943458e+02 2.891270e+02 -1.471982e+02
      vertex   3.950927e+02 2.920326e+02 -1.501982e+02
      vertex   3.930372e+02 2.842607e+02 -1.501982e+02
    endloop
  endfacet
  facet normal -9.667353e-01 2.556849e-01 6.935369e-03
    outer loop
      vertex   4.121273e+02 3.561985e+02 -1.412996e+02
      vertex   4.120878e+02 3.562089e+02 -1.471982e+02
      vertex   4.113207e+02 3.533087e+02 -1.471982e+02
    endloop
  endfacet
  facet normal -9.667353e-01 2.556849e-01 6.935369e-03
    outer loop
      vertex   4.113207e+02 3.533087e+02 -1.471982e+02
      vertex   4.120878e+02 3.562089e+02 -1.471982e+02
      vertex   4.113006e+02 3.533140e+02 -1.501982e+02
    endloop
  endfacet
  facet normal -9.667353e-01 2.556849e-01 6.935369e-03
    outer loop
      vertex   4.113006e+02 3.533140e+02 -1.501982e+02
      vertex   4.120878e+02 3.562089e+02 -1.471982e+02
      vertex   4.126424e+02 3.583873e+02 -1.501982e+02
    endloop
  endfacet
  facet normal -9.667353e-01 2.556849e-01 6.935369e-03
    outer loop
      vertex   4.126424e+02 3.583873e+02 -1.501982e+02
      vertex   4.120878e+02 3.562089e+02 -1.471982e+02
      vertex   4.134296e+02 3.612822e+02 -1.471982e+02
    endloop
  endfacet
  facet normal -9.667353e-01 2.556849e-01 6.935369e-03
    outer loop
      vertex   4.126424e+02 3.583873e+02 -1.501982e+02
      vertex   4.134296e+02 3.612822e+02 -1.471982e+02
      vertex   4.131925e+02 3.613449e+02 -1.825599e+02
    endloop
  endfacet
  facet normal -9.667353e-01 2.556849e-01 6.935369e-03
    outer loop
      vertex   3.900076e+02 2.736838e+02 -1.825599e+02
      vertex   3.928403e+02 2.843128e+02 -1.795599e+02
      vertex   4.131925e+02 3.613449e+02 -1.825599e+02
    endloop
  endfacet
  facet normal -9.667353e-01 2.556849e-01 6.935369e-03
    outer loop
      vertex   4.131925e+02 3.613449e+02 -1.825599e+02
      vertex   3.928403e+02 2.843128e+02 -1.795599e+02
      vertex   4.124455e+02 3.584393e+02 -1.795599e+02
    endloop
  endfacet
  facet normal -9.667353e-01 2.556849e-01 6.935369e-03
    outer loop
      vertex   4.131925e+02 3.613449e+02 -1.825599e+02
      vertex   4.124455e+02 3.584393e+02 -1.795599e+02
      vertex   4.126424e+02 3.583873e+02 -1.501982e+02
    endloop
  endfacet
  facet normal -9.667353e-01 2.556849e-01 6.935369e-03
    outer loop
      vertex   3.900076e+02 2.736838e+02 -1.825599e+02
      vertex   3.902447e+02 2.736211e+02 -1.471982e+02
      vertex   3.928403e+02 2.843128e+02 -1.795599e+02
    endloop
  endfacet
  facet normal -9.667353e-01 2.556849e-01 6.935369e-03
    outer loop
      vertex   3.928403e+02 2.843128e+02 -1.795599e+02
      vertex   3.902447e+02 2.736211e+02 -1.471982e+02
      vertex   3.930372e+02 2.842607e+02 -1.501982e+02
    endloop
  endfacet
  facet normal -9.667353e-01 2.556849e-01 6.935369e-03
    outer loop
      vertex   3.930372e+02 2.842607e+02 -1.501982e+02
      vertex   3.902447e+02 2.736211e+02 -1.471982e+02
      vertex   3.943458e+02 2.891270e+02 -1.471982e+02
    endloop
  endfacet
  facet normal -6.704828e-03 1.773312e-03 -9.999760e-01
    outer loop
      vertex   4.121273e+02 3.561985e+02 -1.412996e+02
      vertex   3.943853e+02 2.891165e+02 -1.412996e+02
      vertex   3.961762e+02 3.604173e+02 -1.411852e+02
    endloop
  endfacet
  facet normal -6.704828e-03 1.773312e-03 -9.999760e-01
    outer loop
      vertex   3.961762e+02 3.604173e+02 -1.411852e+02
      vertex   3.943853e+02 2.891165e+02 -1.412996e+02
      vertex   3.768125e+02 2.872040e+02 -1.411852e+02
    endloop
  endfacet
  facet normal -6.704828e-03 1.773312e-03 -9.999760e-01
    outer loop
      vertex   3.768125e+02 2.872040e+02 -1.411852e+02
      vertex   3.943853e+02 2.891165e+02 -1.412996e+02
      vertex   4.377687e+02 2.710821e+02 -1.416225e+02
    endloop
  endfacet
  facet normal -6.704828e-03 1.773312e-03 -9.999760e-01
    outer loop
      vertex   4.377687e+02 2.710821e+02 -1.416225e+02
      vertex   3.943853e+02 2.891165e+02 -1.412996e+02
      vertex   4.393904e+02 2.772135e+02 -1.416225e+02
    endloop
  endfacet
  facet normal -2.556910e-01 -9.667586e-01 1.494398e-15
    outer loop
      vertex   4.122775e+02 2.760688e+02 -1.473416e+02
      vertex   4.120404e+02 2.761315e+02 -1.827033e+02
      vertex   4.372953e+02 2.694521e+02 -1.475211e+02
    endloop
  endfacet
  facet normal -2.556910e-01 -9.667586e-01 1.079490e-15
    outer loop
      vertex   4.372953e+02 2.694521e+02 -1.475211e+02
      vertex   4.120404e+02 2.761315e+02 -1.827033e+02
      vertex   4.370582e+02 2.695148e+02 -1.828827e+02
    endloop
  endfacet
  facet normal 7.173826e-03 3.763667e-16 9.999743e-01
    outer loop
      vertex   4.582798e+02 3.439920e+02 2.950118e+01
      vertex   3.973236e+02 3.601138e+02 2.993848e+01
      vertex   4.330364e+02 2.485427e+02 2.968228e+01
    endloop
  endfacet
  facet normal 7.173826e-03 4.853675e-16 9.999743e-01
    outer loop
      vertex   4.330364e+02 2.485427e+02 2.968228e+01
      vertex   3.973236e+02 3.601138e+02 2.993848e+01
      vertex   3.720802e+02 2.646646e+02 3.011958e+01
    endloop
  endfacet
  facet normal 2.556910e-01 9.667586e-01 2.634023e-16
    outer loop
      vertex   3.973236e+02 3.601138e+02 2.993848e+01
      vertex   4.582798e+02 3.439920e+02 2.950118e+01
      vertex   4.121273e+02 3.561985e+02 -1.412996e+02
    endloop
  endfacet
  facet normal 2.556910e-01 9.667586e-01 1.793335e-16
    outer loop
      vertex   4.121273e+02 3.561985e+02 -1.412996e+02
      vertex   4.582798e+02 3.439920e+02 2.950118e+01
      vertex   4.570928e+02 3.443059e+02 -1.475211e+02
    endloop
  endfacet
  facet normal 2.556910e-01 9.667586e-01 -3.553120e-15
    outer loop
      vertex   4.121273e+02 3.561985e+02 -1.412996e+02
      vertex   4.570928e+02 3.443059e+02 -1.475211e+02
      vertex   4.120878e+02 3.562089e+02 -1.471982e+02
    endloop
  endfacet
  facet normal 2.556910e-01 9.667586e-01 3.447516e-16
    outer loop
      vertex   4.121273e+02 3.561985e+02 -1.412996e+02
      vertex   3.961762e+02 3.604173e+02 -1.411852e+02
      vertex   3.973236e+02 3.601138e+02 2.993848e+01
    endloop
  endfacet
  facet normal -2.556910e-01 -9.667586e-01 -1.286526e-16
    outer loop
      vertex   4.574960e+02 3.410961e+02 2.700674e+01
      vertex   4.176440e+02 3.516363e+02 -1.413447e+02
      vertex   4.563056e+02 3.414109e+02 -1.505210e+02
    endloop
  endfacet
  facet normal -2.556910e-01 -9.667586e-01 6.014738e-15
    outer loop
      vertex   4.563056e+02 3.414109e+02 -1.505210e+02
      vertex   4.176440e+02 3.516363e+02 -1.413447e+02
      vertex   4.176045e+02 3.516467e+02 -1.472433e+02
    endloop
  endfacet
  facet normal -2.556910e-01 -9.667586e-01 -2.075752e-14
    outer loop
      vertex   4.563056e+02 3.414109e+02 -1.505210e+02
      vertex   4.176045e+02 3.516467e+02 -1.472433e+02
      vertex   4.113006e+02 3.533140e+02 -1.501982e+02
    endloop
  endfacet
  facet normal -2.556910e-01 -9.667586e-01 -1.520152e-15
    outer loop
      vertex   4.113006e+02 3.533140e+02 -1.501982e+02
      vertex   4.176045e+02 3.516467e+02 -1.472433e+02
      vertex   4.113207e+02 3.533087e+02 -1.471982e+02
    endloop
  endfacet
  facet normal -2.556910e-01 -9.667586e-01 2.269884e-15
    outer loop
      vertex   4.176440e+02 3.516363e+02 -1.413447e+02
      vertex   4.574960e+02 3.410961e+02 2.700674e+01
      vertex   4.147640e+02 3.523980e+02 -1.383240e+02
    endloop
  endfacet
  facet normal -2.556910e-01 -9.667586e-01 4.599167e-16
    outer loop
      vertex   4.147640e+02 3.523980e+02 -1.383240e+02
      vertex   4.574960e+02 3.410961e+02 2.700674e+01
      vertex   3.965398e+02 3.572180e+02 2.744404e+01
    endloop
  endfacet
  facet normal -2.556910e-01 -9.667586e-01 7.807536e-16
    outer loop
      vertex   4.147640e+02 3.523980e+02 -1.383240e+02
      vertex   3.965398e+02 3.572180e+02 2.744404e+01
      vertex   3.954292e+02 3.575117e+02 -1.381853e+02
    endloop
  endfacet
  facet normal -2.556910e-01 -9.667586e-01 3.319490e-15
    outer loop
      vertex   4.147640e+02 3.523980e+02 -1.383240e+02
      vertex   4.147438e+02 3.524033e+02 -1.413239e+02
      vertex   4.176440e+02 3.516363e+02 -1.413447e+02
    endloop
  endfacet
  facet normal -7.173826e-03 -5.915084e-16 -9.999743e-01
    outer loop
      vertex   4.574960e+02 3.410961e+02 2.700674e+01
      vertex   4.337867e+02 2.514474e+02 2.717683e+01
      vertex   3.965398e+02 3.572180e+02 2.744404e+01
    endloop
  endfacet
  facet normal -7.173826e-03 -6.296360e-16 -9.999743e-01
    outer loop
      vertex   3.965398e+02 3.572180e+02 2.744404e+01
      vertex   4.337867e+02 2.514474e+02 2.717683e+01
      vertex   3.728305e+02 2.675693e+02 2.761413e+01
    endloop
  endfacet
  facet normal 2.556910e-01 9.667586e-01 8.957946e-17
    outer loop
      vertex   4.337867e+02 2.514474e+02 2.717683e+01
      vertex   4.327366e+02 2.517252e+02 -1.294371e+02
      vertex   3.728305e+02 2.675693e+02 2.761413e+01
    endloop
  endfacet
  facet normal 2.556910e-01 9.667586e-01 -6.216599e-16
    outer loop
      vertex   3.728305e+02 2.675693e+02 2.761413e+01
      vertex   4.327366e+02 2.517252e+02 -1.294371e+02
      vertex   3.717804e+02 2.678470e+02 -1.289998e+02
    endloop
  endfacet
  facet normal 2.529899e-01 9.518492e-01 1.731452e-01
    outer loop
      vertex   4.327825e+02 2.519316e+02 -1.306394e+02
      vertex   4.124638e+02 2.573056e+02 -1.304936e+02
      vertex   4.327366e+02 2.517252e+02 -1.294371e+02
    endloop
  endfacet
  facet normal 2.529899e-01 9.518492e-01 1.731452e-01
    outer loop
      vertex   4.327366e+02 2.517252e+02 -1.294371e+02
      vertex   4.124638e+02 2.573056e+02 -1.304936e+02
      vertex   3.921451e+02 2.626795e+02 -1.303478e+02
    endloop
  endfacet
  facet normal 2.529899e-01 9.518492e-01 1.731452e-01
    outer loop
      vertex   4.327366e+02 2.517252e+02 -1.294371e+02
      vertex   3.921451e+02 2.626795e+02 -1.303478e+02
      vertex   3.717804e+02 2.678470e+02 -1.289998e+02
    endloop
  endfacet
  facet normal 2.529899e-01 9.518492e-01 1.731452e-01
    outer loop
      vertex   3.717804e+02 2.678470e+02 -1.289998e+02
      vertex   3.921451e+02 2.626795e+02 -1.303478e+02
      vertex   3.718264e+02 2.680535e+02 -1.302021e+02
    endloop
  endfacet
  facet normal 2.411541e-01 9.020876e-01 3.578865e-01
    outer loop
      vertex   3.718264e+02 2.680535e+02 -1.302021e+02
      vertex   3.921451e+02 2.626795e+02 -1.303478e+02
      vertex   3.719304e+02 2.684779e+02 -1.313419e+02
    endloop
  endfacet
  facet normal 2.411541e-01 9.020876e-01 3.578865e-01
    outer loop
      vertex   3.719304e+02 2.684779e+02 -1.313419e+02
      vertex   3.921451e+02 2.626795e+02 -1.303478e+02
      vertex   3.922492e+02 2.631039e+02 -1.314876e+02
    endloop
  endfacet
  facet normal 2.204570e-01 8.191782e-01 5.294769e-01
    outer loop
      vertex   3.719304e+02 2.684779e+02 -1.313419e+02
      vertex   3.922492e+02 2.631039e+02 -1.314876e+02
      vertex   3.720887e+02 2.691046e+02 -1.323774e+02
    endloop
  endfacet
  facet normal 2.204570e-01 8.191782e-01 5.294769e-01
    outer loop
      vertex   3.720887e+02 2.691046e+02 -1.323774e+02
      vertex   3.922492e+02 2.631039e+02 -1.314876e+02
      vertex   3.924075e+02 2.637306e+02 -1.325231e+02
    endloop
  endfacet
  facet normal 1.916591e-01 7.061676e-01 6.816114e-01
    outer loop
      vertex   3.720887e+02 2.691046e+02 -1.323774e+02
      vertex   3.924075e+02 2.637306e+02 -1.325231e+02
      vertex   3.722955e+02 2.699105e+02 -1.332705e+02
    endloop
  endfacet
  facet normal 1.916591e-01 7.061676e-01 6.816114e-01
    outer loop
      vertex   3.722955e+02 2.699105e+02 -1.332705e+02
      vertex   3.924075e+02 2.637306e+02 -1.325231e+02
      vertex   4.127262e+02 2.583567e+02 -1.326689e+02
    endloop
  endfacet
  facet normal 1.916591e-01 7.061676e-01 6.816114e-01
    outer loop
      vertex   3.722955e+02 2.699105e+02 -1.332705e+02
      vertex   4.127262e+02 2.583567e+02 -1.326689e+02
      vertex   4.332517e+02 2.537887e+02 -1.337078e+02
    endloop
  endfacet
  facet normal 1.916591e-01 7.061676e-01 6.816114e-01
    outer loop
      vertex   4.332517e+02 2.537887e+02 -1.337078e+02
      vertex   4.127262e+02 2.583567e+02 -1.326689e+02
      vertex   4.330449e+02 2.529827e+02 -1.328147e+02
    endloop
  endfacet
  facet normal 2.204570e-01 8.191782e-01 5.294769e-01
    outer loop
      vertex   4.330449e+02 2.529827e+02 -1.328147e+02
      vertex   4.127262e+02 2.583567e+02 -1.326689e+02
      vertex   4.328866e+02 2.523560e+02 -1.317792e+02
    endloop
  endfacet
  facet normal 2.204570e-01 8.191782e-01 5.294769e-01
    outer loop
      vertex   4.328866e+02 2.523560e+02 -1.317792e+02
      vertex   4.127262e+02 2.583567e+02 -1.326689e+02
      vertex   4.125679e+02 2.577300e+02 -1.316334e+02
    endloop
  endfacet
  facet normal 2.411541e-01 9.020876e-01 3.578865e-01
    outer loop
      vertex   4.328866e+02 2.523560e+02 -1.317792e+02
      vertex   4.125679e+02 2.577300e+02 -1.316334e+02
      vertex   4.327825e+02 2.519316e+02 -1.306394e+02
    endloop
  endfacet
  facet normal 2.411541e-01 9.020876e-01 3.578865e-01
    outer loop
      vertex   4.327825e+02 2.519316e+02 -1.306394e+02
      vertex   4.125679e+02 2.577300e+02 -1.316334e+02
      vertex   4.124638e+02 2.573056e+02 -1.304936e+02
    endloop
  endfacet
  facet normal 2.411541e-01 9.020876e-01 3.578865e-01
    outer loop
      vertex   3.922492e+02 2.631039e+02 -1.314876e+02
      vertex   3.921451e+02 2.626795e+02 -1.303478e+02
      vertex   4.124638e+02 2.573056e+02 -1.304936e+02
    endloop
  endfacet
  facet normal 2.411541e-01 9.020876e-01 3.578865e-01
    outer loop
      vertex   3.922492e+02 2.631039e+02 -1.314876e+02
      vertex   4.124638e+02 2.573056e+02 -1.304936e+02
      vertex   4.125679e+02 2.577300e+02 -1.316334e+02
    endloop
  endfacet
  facet normal 2.204570e-01 8.191782e-01 5.294769e-01
    outer loop
      vertex   3.924075e+02 2.637306e+02 -1.325231e+02
      vertex   3.922492e+02 2.631039e+02 -1.314876e+02
      vertex   4.125679e+02 2.577300e+02 -1.316334e+02
    endloop
  endfacet
  facet normal 2.204570e-01 8.191782e-01 5.294769e-01
    outer loop
      vertex   3.924075e+02 2.637306e+02 -1.325231e+02
      vertex   4.125679e+02 2.577300e+02 -1.316334e+02
      vertex   4.127262e+02 2.583567e+02 -1.326689e+02
    endloop
  endfacet
  facet normal 7.289722e-02 2.494290e-01 9.656455e-01
    outer loop
      vertex   4.332517e+02 2.537887e+02 -1.337078e+02
      vertex   4.378902e+02 2.714601e+02 -1.386226e+02
      vertex   3.722955e+02 2.699105e+02 -1.332705e+02
    endloop
  endfacet
  facet normal 7.289722e-02 2.494290e-01 9.656455e-01
    outer loop
      vertex   3.722955e+02 2.699105e+02 -1.332705e+02
      vertex   4.378902e+02 2.714601e+02 -1.386226e+02
      vertex   3.769340e+02 2.875819e+02 -1.381853e+02
    endloop
  endfacet
  facet normal 6.704828e-03 -1.773312e-03 9.999760e-01
    outer loop
      vertex   4.401775e+02 2.801084e+02 -1.386226e+02
      vertex   3.985561e+02 2.911166e+02 -1.383240e+02
      vertex   4.378902e+02 2.714601e+02 -1.386226e+02
    endloop
  endfacet
  facet normal 6.704828e-03 -1.773312e-03 9.999760e-01
    outer loop
      vertex   4.378902e+02 2.714601e+02 -1.386226e+02
      vertex   3.985561e+02 2.911166e+02 -1.383240e+02
      vertex   3.769340e+02 2.875819e+02 -1.381853e+02
    endloop
  endfacet
  facet normal 6.704828e-03 -1.773312e-03 9.999760e-01
    outer loop
      vertex   3.769340e+02 2.875819e+02 -1.381853e+02
      vertex   3.985561e+02 2.911166e+02 -1.383240e+02
      vertex   3.954292e+02 3.575117e+02 -1.381853e+02
    endloop
  endfacet
  facet normal 6.704828e-03 -1.773312e-03 9.999760e-01
    outer loop
      vertex   3.954292e+02 3.575117e+02 -1.381853e+02
      vertex   3.985561e+02 2.911166e+02 -1.383240e+02
      vertex   4.147640e+02 3.523980e+02 -1.383240e+02
    endloop
  endfacet
  facet normal 6.704828e-03 -1.773312e-03 9.999760e-01
    outer loop
      vertex   4.147438e+02 3.524033e+02 -1.413239e+02
      vertex   3.985360e+02 2.911219e+02 -1.413239e+02
      vertex   4.176440e+02 3.516363e+02 -1.413447e+02
    endloop
  endfacet
  facet normal 6.704828e-03 -1.773312e-03 9.999760e-01
    outer loop
      vertex   4.176440e+02 3.516363e+02 -1.413447e+02
      vertex   3.985360e+02 2.911219e+02 -1.413239e+02
      vertex   4.014362e+02 2.903549e+02 -1.413447e+02
    endloop
  endfacet
  facet normal -6.704828e-03 1.773312e-03 -9.999760e-01
    outer loop
      vertex   4.176045e+02 3.516467e+02 -1.472433e+02
      vertex   4.013966e+02 2.903653e+02 -1.472433e+02
      vertex   4.113207e+02 3.533087e+02 -1.471982e+02
    endloop
  endfacet
  facet normal -6.704828e-03 1.773312e-03 -9.999760e-01
    outer loop
      vertex   4.113207e+02 3.533087e+02 -1.471982e+02
      vertex   4.013966e+02 2.903653e+02 -1.472433e+02
      vertex   3.951128e+02 2.920273e+02 -1.471982e+02
    endloop
  endfacet
  facet normal 9.667353e-01 -2.556849e-01 -6.935369e-03
    outer loop
      vertex   4.013966e+02 2.903653e+02 -1.472433e+02
      vertex   4.176045e+02 3.516467e+02 -1.472433e+02
      vertex   4.014362e+02 2.903549e+02 -1.413447e+02
    endloop
  endfacet
  facet normal 9.667353e-01 -2.556849e-01 -6.935369e-03
    outer loop
      vertex   4.014362e+02 2.903549e+02 -1.413447e+02
      vertex   4.176045e+02 3.516467e+02 -1.472433e+02
      vertex   4.176440e+02 3.516363e+02 -1.413447e+02
    endloop
  endfacet
  facet normal 9.667353e-01 -2.556849e-01 -6.935369e-03
    outer loop
      vertex   4.147640e+02 3.523980e+02 -1.383240e+02
      vertex   3.985561e+02 2.911166e+02 -1.383240e+02
      vertex   4.147438e+02 3.524033e+02 -1.413239e+02
    endloop
  endfacet
  facet normal 9.667353e-01 -2.556849e-01 -6.935369e-03
    outer loop
      vertex   4.147438e+02 3.524033e+02 -1.413239e+02
      vertex   3.985561e+02 2.911166e+02 -1.383240e+02
      vertex   3.985360e+02 2.911219e+02 -1.413239e+02
    endloop
  endfacet
  facet normal 6.704828e-03 -1.773312e-03 9.999760e-01
    outer loop
      vertex   4.570928e+02 3.443059e+02 -1.475211e+02
      vertex   4.584346e+02 3.493792e+02 -1.475211e+02
      vertex   4.120878e+02 3.562089e+02 -1.471982e+02
    endloop
  endfacet
  facet normal 6.704828e-03 -1.773312e-03 9.999760e-01
    outer loop
      vertex   4.120878e+02 3.562089e+02 -1.471982e+02
      vertex   4.584346e+02 3.493792e+02 -1.475211e+02
      vertex   4.134296e+02 3.612822e+02 -1.471982e+02
    endloop
  endfacet
  facet normal 2.556910e-01 9.667586e-01 -1.077682e-15
    outer loop
      vertex   4.584346e+02 3.493792e+02 -1.475211e+02
      vertex   4.581975e+02 3.494419e+02 -1.828827e+02
      vertex   4.134296e+02 3.612822e+02 -1.471982e+02
    endloop
  endfacet
  facet normal 2.556910e-01 9.667586e-01 -1.486365e-15
    outer loop
      vertex   4.134296e+02 3.612822e+02 -1.471982e+02
      vertex   4.581975e+02 3.494419e+02 -1.828827e+02
      vertex   4.131925e+02 3.613449e+02 -1.825599e+02
    endloop
  endfacet
  facet normal -6.704828e-03 1.773312e-03 -9.999760e-01
    outer loop
      vertex   4.370582e+02 2.695148e+02 -1.828827e+02
      vertex   4.120404e+02 2.761315e+02 -1.827033e+02
      vertex   4.581975e+02 3.494419e+02 -1.828827e+02
    endloop
  endfacet
  facet normal -6.704828e-03 1.773312e-03 -9.999760e-01
    outer loop
      vertex   4.581975e+02 3.494419e+02 -1.828827e+02
      vertex   4.120404e+02 2.761315e+02 -1.827033e+02
      vertex   4.131925e+02 3.613449e+02 -1.825599e+02
    endloop
  endfacet
  facet normal -6.704828e-03 1.773312e-03 -9.999760e-01
    outer loop
      vertex   4.131925e+02 3.613449e+02 -1.825599e+02
      vertex   4.120404e+02 2.761315e+02 -1.827033e+02
      vertex   3.993501e+02 2.712128e+02 -1.826269e+02
    endloop
  endfacet
  facet normal -6.704828e-03 1.773312e-03 -9.999760e-01
    outer loop
      vertex   4.131925e+02 3.613449e+02 -1.825599e+02
      vertex   3.993501e+02 2.712128e+02 -1.826269e+02
      vertex   3.900076e+02 2.736838e+02 -1.825599e+02
    endloop
  endfacet
  facet normal -2.556910e-01 -9.667586e-01 -4.609943e-16
    outer loop
      vertex   3.993501e+02 2.712128e+02 -1.826269e+02
      vertex   3.995872e+02 2.711501e+02 -1.472653e+02
      vertex   3.900076e+02 2.736838e+02 -1.825599e+02
    endloop
  endfacet
  facet normal -2.556910e-01 -9.667586e-01 1.132506e-15
    outer loop
      vertex   3.900076e+02 2.736838e+02 -1.825599e+02
      vertex   3.995872e+02 2.711501e+02 -1.472653e+02
      vertex   3.902447e+02 2.736211e+02 -1.471982e+02
    endloop
  endfacet
  facet normal -9.667353e-01 2.556849e-01 6.935369e-03
    outer loop
      vertex   3.710126e+02 2.649469e+02 -1.291057e+02
      vertex   3.720802e+02 2.646646e+02 3.011958e+01
      vertex   3.728305e+02 2.675693e+02 2.761413e+01
    endloop
  endfacet
  facet normal -9.667353e-01 2.556849e-01 6.935369e-03
    outer loop
      vertex   3.728305e+02 2.675693e+02 2.761413e+01
      vertex   3.720802e+02 2.646646e+02 3.011958e+01
      vertex   3.973236e+02 3.601138e+02 2.993848e+01
    endloop
  endfacet
  facet normal -9.667353e-01 2.556849e-01 6.935369e-03
    outer loop
      vertex   3.728305e+02 2.675693e+02 2.761413e+01
      vertex   3.973236e+02 3.601138e+02 2.993848e+01
      vertex   3.965398e+02 3.572180e+02 2.744404e+01
    endloop
  endfacet
  facet normal -9.667353e-01 2.556849e-01 6.935369e-03
    outer loop
      vertex   3.965398e+02 3.572180e+02 2.744404e+01
      vertex   3.973236e+02 3.601138e+02 2.993848e+01
      vertex   3.954292e+02 3.575117e+02 -1.381853e+02
    endloop
  endfacet
  facet normal -9.667353e-01 2.556849e-01 6.935369e-03
    outer loop
      vertex   3.954292e+02 3.575117e+02 -1.381853e+02
      vertex   3.973236e+02 3.601138e+02 2.993848e+01
      vertex   3.961762e+02 3.604173e+02 -1.411852e+02
    endloop
  endfacet
  facet normal -9.667353e-01 2.556849e-01 6.935369e-03
    outer loop
      vertex   3.954292e+02 3.575117e+02 -1.381853e+02
      vertex   3.961762e+02 3.604173e+02 -1.411852e+02
      vertex   3.768125e+02 2.872040e+02 -1.411852e+02
    endloop
  endfacet
  facet normal -9.667353e-01 2.556849e-01 6.935369e-03
    outer loop
      vertex   3.719212e+02 2.685694e+02 -1.360026e+02
      vertex   3.722955e+02 2.699105e+02 -1.332705e+02
      vertex   3.768125e+02 2.872040e+02 -1.411852e+02
    endloop
  endfacet
  facet normal -9.667353e-01 2.556849e-01 6.935369e-03
    outer loop
      vertex   3.768125e+02 2.872040e+02 -1.411852e+02
      vertex   3.722955e+02 2.699105e+02 -1.332705e+02
      vertex   3.769340e+02 2.875819e+02 -1.381853e+02
    endloop
  endfacet
  facet normal -9.667353e-01 2.556849e-01 6.935369e-03
    outer loop
      vertex   3.768125e+02 2.872040e+02 -1.411852e+02
      vertex   3.769340e+02 2.875819e+02 -1.381853e+02
      vertex   3.954292e+02 3.575117e+02 -1.381853e+02
    endloop
  endfacet
  facet normal -9.667353e-01 2.556849e-01 6.935369e-03
    outer loop
      vertex   3.722955e+02 2.699105e+02 -1.332705e+02
      vertex   3.719212e+02 2.685694e+02 -1.360026e+02
      vertex   3.720887e+02 2.691046e+02 -1.323774e+02
    endloop
  endfacet
  facet normal -9.667353e-01 2.556849e-01 6.935369e-03
    outer loop
      vertex   3.720887e+02 2.691046e+02 -1.323774e+02
      vertex   3.719212e+02 2.685694e+02 -1.360026e+02
      vertex   3.716202e+02 2.674020e+02 -1.349258e+02
    endloop
  endfacet
  facet normal -9.667353e-01 2.556849e-01 6.935369e-03
    outer loop
      vertex   3.720887e+02 2.691046e+02 -1.323774e+02
      vertex   3.716202e+02 2.674020e+02 -1.349258e+02
      vertex   3.719304e+02 2.684779e+02 -1.313419e+02
    endloop
  endfacet
  facet normal -9.667353e-01 2.556849e-01 6.935369e-03
    outer loop
      vertex   3.719304e+02 2.684779e+02 -1.313419e+02
      vertex   3.716202e+02 2.674020e+02 -1.349258e+02
      vertex   3.713723e+02 2.664305e+02 -1.336578e+02
    endloop
  endfacet
  facet normal -9.667353e-01 2.556849e-01 6.935369e-03
    outer loop
      vertex   3.719304e+02 2.684779e+02 -1.313419e+02
      vertex   3.713723e+02 2.664305e+02 -1.336578e+02
      vertex   3.718264e+02 2.680535e+02 -1.302021e+02
    endloop
  endfacet
  facet normal -9.667353e-01 2.556849e-01 6.935369e-03
    outer loop
      vertex   3.718264e+02 2.680535e+02 -1.302021e+02
      vertex   3.713723e+02 2.664305e+02 -1.336578e+02
      vertex   3.711851e+02 2.656839e+02 -1.322364e+02
    endloop
  endfacet
  facet normal -9.667353e-01 2.556849e-01 6.935369e-03
    outer loop
      vertex   3.718264e+02 2.680535e+02 -1.302021e+02
      vertex   3.711851e+02 2.656839e+02 -1.322364e+02
      vertex   3.717804e+02 2.678470e+02 -1.289998e+02
    endloop
  endfacet
  facet normal -9.667353e-01 2.556849e-01 6.935369e-03
    outer loop
      vertex   3.717804e+02 2.678470e+02 -1.289998e+02
      vertex   3.711851e+02 2.656839e+02 -1.322364e+02
      vertex   3.710639e+02 2.651844e+02 -1.307038e+02
    endloop
  endfacet
  facet normal -9.667353e-01 2.556849e-01 6.935369e-03
    outer loop
      vertex   3.717804e+02 2.678470e+02 -1.289998e+02
      vertex   3.710639e+02 2.651844e+02 -1.307038e+02
      vertex   3.710126e+02 2.649469e+02 -1.291057e+02
    endloop
  endfacet
  facet normal -9.667353e-01 2.556849e-01 6.935369e-03
    outer loop
      vertex   3.717804e+02 2.678470e+02 -1.289998e+02
      vertex   3.710126e+02 2.649469e+02 -1.291057e+02
      vertex   3.728305e+02 2.675693e+02 2.761413e+01
    endloop
  endfacet
  facet normal -6.704828e-03 1.773312e-03 -9.999760e-01
    outer loop
      vertex   4.576474e+02 3.464842e+02 -1.505210e+02
      vertex   4.563056e+02 3.414109e+02 -1.505210e+02
      vertex   4.126424e+02 3.583873e+02 -1.501982e+02
    endloop
  endfacet
  facet normal -6.704828e-03 1.773312e-03 -9.999760e-01
    outer loop
      vertex   4.126424e+02 3.583873e+02 -1.501982e+02
      vertex   4.563056e+02 3.414109e+02 -1.505210e+02
      vertex   4.113006e+02 3.533140e+02 -1.501982e+02
    endloop
  endfacet
  facet normal -2.556910e-01 -9.667586e-01 -2.508079e-16
    outer loop
      vertex   4.574506e+02 3.465363e+02 -1.798828e+02
      vertex   4.576474e+02 3.464842e+02 -1.505210e+02
      vertex   4.124455e+02 3.584393e+02 -1.795599e+02
    endloop
  endfacet
  facet normal -2.556910e-01 -9.667586e-01 -2.511328e-16
    outer loop
      vertex   4.124455e+02 3.584393e+02 -1.795599e+02
      vertex   4.576474e+02 3.464842e+02 -1.505210e+02
      vertex   4.126424e+02 3.583873e+02 -1.501982e+02
    endloop
  endfacet
  facet normal 6.704828e-03 -1.773312e-03 9.999760e-01
    outer loop
      vertex   4.378454e+02 2.724097e+02 -1.798828e+02
      vertex   4.574506e+02 3.465363e+02 -1.798828e+02
      vertex   3.928403e+02 2.843128e+02 -1.795599e+02
    endloop
  endfacet
  facet normal 6.704828e-03 -1.773312e-03 9.999760e-01
    outer loop
      vertex   3.928403e+02 2.843128e+02 -1.795599e+02
      vertex   4.574506e+02 3.465363e+02 -1.798828e+02
      vertex   4.124455e+02 3.584393e+02 -1.795599e+02
    endloop
  endfacet
  facet normal 2.556910e-01 9.667586e-01 -1.127661e-15
    outer loop
      vertex   4.380422e+02 2.723577e+02 -1.505210e+02
      vertex   4.378454e+02 2.724097e+02 -1.798828e+02
      vertex   3.930372e+02 2.842607e+02 -1.501982e+02
    endloop
  endfacet
  facet normal 2.556910e-01 9.667586e-01 -1.620505e-15
    outer loop
      vertex   3.930372e+02 2.842607e+02 -1.501982e+02
      vertex   4.378454e+02 2.724097e+02 -1.798828e+02
      vertex   3.928403e+02 2.843128e+02 -1.795599e+02
    endloop
  endfacet
  facet normal -6.704828e-03 1.773312e-03 -9.999760e-01
    outer loop
      vertex   4.400978e+02 2.801295e+02 -1.505210e+02
      vertex   4.380422e+02 2.723577e+02 -1.505210e+02
      vertex   3.950927e+02 2.920326e+02 -1.501982e+02
    endloop
  endfacet
  facet normal -6.704828e-03 1.773312e-03 -9.999760e-01
    outer loop
      vertex   3.950927e+02 2.920326e+02 -1.501982e+02
      vertex   4.380422e+02 2.723577e+02 -1.505210e+02
      vertex   3.930372e+02 2.842607e+02 -1.501982e+02
    endloop
  endfacet
  facet normal 2.556910e-01 9.667586e-01 -9.269557e-15
    outer loop
      vertex   3.985561e+02 2.911166e+02 -1.383240e+02
      vertex   4.401775e+02 2.801084e+02 -1.386226e+02
      vertex   4.014362e+02 2.903549e+02 -1.413447e+02
    endloop
  endfacet
  facet normal 2.556910e-01 9.667586e-01 -3.339598e-15
    outer loop
      vertex   4.014362e+02 2.903549e+02 -1.413447e+02
      vertex   4.401775e+02 2.801084e+02 -1.386226e+02
      vertex   4.400978e+02 2.801295e+02 -1.505210e+02
    endloop
  endfacet
  facet normal 2.556910e-01 9.667586e-01 -6.026955e-15
    outer loop
      vertex   4.014362e+02 2.903549e+02 -1.413447e+02
      vertex   4.400978e+02 2.801295e+02 -1.505210e+02
      vertex   4.013966e+02 2.903653e+02 -1.472433e+02
    endloop
  endfacet
  facet normal 2.556910e-01 9.667586e-01 3.357834e-15
    outer loop
      vertex   4.013966e+02 2.903653e+02 -1.472433e+02
      vertex   4.400978e+02 2.801295e+02 -1.505210e+02
      vertex   3.950927e+02 2.920326e+02 -1.501982e+02
    endloop
  endfacet
  facet normal 2.556910e-01 9.667586e-01 6.376666e-15
    outer loop
      vertex   4.013966e+02 2.903653e+02 -1.472433e+02
      vertex   3.950927e+02 2.920326e+02 -1.501982e+02
      vertex   3.951128e+02 2.920273e+02 -1.471982e+02
    endloop
  endfacet
  facet normal 2.556910e-01 9.667586e-01 -2.151366e-14
    outer loop
      vertex   4.014362e+02 2.903549e+02 -1.413447e+02
      vertex   3.985360e+02 2.911219e+02 -1.413239e+02
      vertex   3.985561e+02 2.911166e+02 -1.383240e+02
    endloop
  endfacet
  facet normal -2.556910e-01 -9.667586e-01 1.270346e-16
    outer loop
      vertex   4.319688e+02 2.488251e+02 -1.295430e+02
      vertex   4.330364e+02 2.485427e+02 2.968228e+01
      vertex   3.710126e+02 2.649469e+02 -1.291057e+02
    endloop
  endfacet
  facet normal -2.556910e-01 -9.667586e-01 -8.917194e-17
    outer loop
      vertex   3.710126e+02 2.649469e+02 -1.291057e+02
      vertex   4.330364e+02 2.485427e+02 2.968228e+01
      vertex   3.720802e+02 2.646646e+02 3.011958e+01
    endloop
  endfacet
  facet normal -1.753237e-01 -6.426625e-01 -7.458194e-01
    outer loop
      vertex   3.719212e+02 2.685694e+02 -1.360026e+02
      vertex   4.328774e+02 2.524476e+02 -1.364399e+02
      vertex   4.020983e+02 2.593411e+02 -1.351445e+02
    endloop
  endfacet
  facet normal -1.753237e-01 -6.426625e-01 -7.458194e-01
    outer loop
      vertex   4.020983e+02 2.593411e+02 -1.351445e+02
      vertex   4.328774e+02 2.524476e+02 -1.364399e+02
      vertex   4.325763e+02 2.512801e+02 -1.353631e+02
    endloop
  endfacet
  facet normal -2.047298e-01 -7.572531e-01 -6.202043e-01
    outer loop
      vertex   4.020983e+02 2.593411e+02 -1.351445e+02
      vertex   4.325763e+02 2.512801e+02 -1.353631e+02
      vertex   4.018504e+02 2.583696e+02 -1.338765e+02
    endloop
  endfacet
  facet normal -2.047298e-01 -7.572531e-01 -6.202043e-01
    outer loop
      vertex   4.018504e+02 2.583696e+02 -1.338765e+02
      vertex   4.325763e+02 2.512801e+02 -1.353631e+02
      vertex   4.323285e+02 2.503086e+02 -1.340951e+02
    endloop
  endfacet
  facet normal -2.280401e-01 -8.492967e-01 -4.761227e-01
    outer loop
      vertex   4.018504e+02 2.583696e+02 -1.338765e+02
      vertex   4.323285e+02 2.503086e+02 -1.340951e+02
      vertex   4.016631e+02 2.576230e+02 -1.324550e+02
    endloop
  endfacet
  facet normal -2.280401e-01 -8.492967e-01 -4.761227e-01
    outer loop
      vertex   4.016631e+02 2.576230e+02 -1.324550e+02
      vertex   4.323285e+02 2.503086e+02 -1.340951e+02
      vertex   4.321412e+02 2.495620e+02 -1.326737e+02
    endloop
  endfacet
  facet normal -2.445605e-01 -9.160525e-01 -3.178647e-01
    outer loop
      vertex   4.016631e+02 2.576230e+02 -1.324550e+02
      vertex   4.321412e+02 2.495620e+02 -1.326737e+02
      vertex   4.015420e+02 2.571235e+02 -1.309224e+02
    endloop
  endfacet
  facet normal -2.445605e-01 -9.160525e-01 -3.178647e-01
    outer loop
      vertex   4.015420e+02 2.571235e+02 -1.309224e+02
      vertex   4.321412e+02 2.495620e+02 -1.326737e+02
      vertex   4.320201e+02 2.490626e+02 -1.311411e+02
    endloop
  endfacet
  facet normal -2.537992e-01 -9.555330e-01 -1.501422e-01
    outer loop
      vertex   4.015420e+02 2.571235e+02 -1.309224e+02
      vertex   4.320201e+02 2.490626e+02 -1.311411e+02
      vertex   4.319688e+02 2.488251e+02 -1.295430e+02
    endloop
  endfacet
  facet normal -2.537992e-01 -9.555330e-01 -1.501422e-01
    outer loop
      vertex   4.319688e+02 2.488251e+02 -1.295430e+02
      vertex   3.710126e+02 2.649469e+02 -1.291057e+02
      vertex   4.015420e+02 2.571235e+02 -1.309224e+02
    endloop
  endfacet
  facet normal -2.537992e-01 -9.555330e-01 -1.501422e-01
    outer loop
      vertex   4.015420e+02 2.571235e+02 -1.309224e+02
      vertex   3.710126e+02 2.649469e+02 -1.291057e+02
      vertex   3.710639e+02 2.651844e+02 -1.307038e+02
    endloop
  endfacet
  facet normal -2.445605e-01 -9.160525e-01 -3.178647e-01
    outer loop
      vertex   4.015420e+02 2.571235e+02 -1.309224e+02
      vertex   3.710639e+02 2.651844e+02 -1.307038e+02
      vertex   4.016631e+02 2.576230e+02 -1.324550e+02
    endloop
  endfacet
  facet normal -2.445605e-01 -9.160525e-01 -3.178647e-01
    outer loop
      vertex   4.016631e+02 2.576230e+02 -1.324550e+02
      vertex   3.710639e+02 2.651844e+02 -1.307038e+02
      vertex   3.711851e+02 2.656839e+02 -1.322364e+02
    endloop
  endfacet
  facet normal -2.280401e-01 -8.492967e-01 -4.761227e-01
    outer loop
      vertex   4.016631e+02 2.576230e+02 -1.324550e+02
      vertex   3.711851e+02 2.656839e+02 -1.322364e+02
      vertex   4.018504e+02 2.583696e+02 -1.338765e+02
    endloop
  endfacet
  facet normal -2.280401e-01 -8.492967e-01 -4.761227e-01
    outer loop
      vertex   4.018504e+02 2.583696e+02 -1.338765e+02
      vertex   3.711851e+02 2.656839e+02 -1.322364e+02
      vertex   3.713723e+02 2.664305e+02 -1.336578e+02
    endloop
  endfacet
  facet normal -2.047298e-01 -7.572531e-01 -6.202043e-01
    outer loop
      vertex   4.018504e+02 2.583696e+02 -1.338765e+02
      vertex   3.713723e+02 2.664305e+02 -1.336578e+02
      vertex   4.020983e+02 2.593411e+02 -1.351445e+02
    endloop
  endfacet
  facet normal -2.047298e-01 -7.572531e-01 -6.202043e-01
    outer loop
      vertex   4.020983e+02 2.593411e+02 -1.351445e+02
      vertex   3.713723e+02 2.664305e+02 -1.336578e+02
      vertex   3.716202e+02 2.674020e+02 -1.349258e+02
    endloop
  endfacet
  facet normal -1.753237e-01 -6.426625e-01 -7.458194e-01
    outer loop
      vertex   4.020983e+02 2.593411e+02 -1.351445e+02
      vertex   3.716202e+02 2.674020e+02 -1.349258e+02
      vertex   3.719212e+02 2.685694e+02 -1.360026e+02
    endloop
  endfacet
  facet normal -7.289722e-02 -2.494290e-01 -9.656455e-01
    outer loop
      vertex   4.377687e+02 2.710821e+02 -1.416225e+02
      vertex   4.328774e+02 2.524476e+02 -1.364399e+02
      vertex   3.768125e+02 2.872040e+02 -1.411852e+02
    endloop
  endfacet
  facet normal -7.289722e-02 -2.494290e-01 -9.656455e-01
    outer loop
      vertex   3.768125e+02 2.872040e+02 -1.411852e+02
      vertex   4.328774e+02 2.524476e+02 -1.364399e+02
      vertex   3.719212e+02 2.685694e+02 -1.360026e+02
    endloop
  endfacet
  facet normal -2.556910e-01 -9.667586e-01 6.019300e-15
    outer loop
      vertex   4.393508e+02 2.772239e+02 -1.475211e+02
      vertex   4.393904e+02 2.772135e+02 -1.416225e+02
      vertex   3.943458e+02 2.891270e+02 -1.471982e+02
    endloop
  endfacet
  facet normal -2.556910e-01 -9.667586e-01 6.019098e-15
    outer loop
      vertex   3.943458e+02 2.891270e+02 -1.471982e+02
      vertex   4.393904e+02 2.772135e+02 -1.416225e+02
      vertex   3.943853e+02 2.891165e+02 -1.412996e+02
    endloop
  endfacet
  facet normal 6.704828e-03 -1.773312e-03 9.999760e-01
    outer loop
      vertex   4.372953e+02 2.694521e+02 -1.475211e+02
      vertex   4.393508e+02 2.772239e+02 -1.475211e+02
      vertex   4.122775e+02 2.760688e+02 -1.473416e+02
    endloop
  endfacet
  facet normal 6.704828e-03 -1.773312e-03 9.999760e-01
    outer loop
      vertex   4.122775e+02 2.760688e+02 -1.473416e+02
      vertex   4.393508e+02 2.772239e+02 -1.475211e+02
      vertex   3.943458e+02 2.891270e+02 -1.471982e+02
    endloop
  endfacet
  facet normal 6.704828e-03 -1.773312e-03 9.999760e-01
    outer loop
      vertex   4.122775e+02 2.760688e+02 -1.473416e+02
      vertex   3.943458e+02 2.891270e+02 -1.471982e+02
      vertex   3.902447e+02 2.736211e+02 -1.471982e+02
    endloop
  endfacet
  facet normal 6.704828e-03 -1.773312e-03 9.999760e-01
    outer loop
      vertex   3.902447e+02 2.736211e+02 -1.471982e+02
      vertex   3.995872e+02 2.711501e+02 -1.472653e+02
      vertex   4.122775e+02 2.760688e+02 -1.473416e+02
    endloop
  endfacet
  facet normal 9.667353e-01 -2.556849e-01 -6.935369e-03
    outer loop
      vertex   4.582798e+02 3.439920e+02 2.950118e+01
      vertex   4.330364e+02 2.485427e+02 2.968228e+01
      vertex   4.337867e+02 2.514474e+02 2.717683e+01
    endloop
  endfacet
  facet normal 9.667353e-01 -2.556849e-01 -6.935369e-03
    outer loop
      vertex   4.337867e+02 2.514474e+02 2.717683e+01
      vertex   4.330364e+02 2.485427e+02 2.968228e+01
      vertex   4.319688e+02 2.488251e+02 -1.295430e+02
    endloop
  endfacet
  facet normal 9.667353e-01 -2.556849e-01 -6.935369e-03
    outer loop
      vertex   4.337867e+02 2.514474e+02 2.717683e+01
      vertex   4.319688e+02 2.488251e+02 -1.295430e+02
      vertex   4.327366e+02 2.517252e+02 -1.294371e+02
    endloop
  endfacet
  facet normal 9.667353e-01 -2.556849e-01 -6.935369e-03
    outer loop
      vertex   4.327366e+02 2.517252e+02 -1.294371e+02
      vertex   4.319688e+02 2.488251e+02 -1.295430e+02
      vertex   4.320201e+02 2.490626e+02 -1.311411e+02
    endloop
  endfacet
  facet normal 9.667353e-01 -2.556849e-01 -6.935369e-03
    outer loop
      vertex   4.327366e+02 2.517252e+02 -1.294371e+02
      vertex   4.320201e+02 2.490626e+02 -1.311411e+02
      vertex   4.321412e+02 2.495620e+02 -1.326737e+02
    endloop
  endfacet
  facet normal 9.667353e-01 -2.556849e-01 -6.935369e-03
    outer loop
      vertex   4.327366e+02 2.517252e+02 -1.294371e+02
      vertex   4.321412e+02 2.495620e+02 -1.326737e+02
      vertex   4.327825e+02 2.519316e+02 -1.306394e+02
    endloop
  endfacet
  facet normal 9.667353e-01 -2.556849e-01 -6.935369e-03
    outer loop
      vertex   4.327825e+02 2.519316e+02 -1.306394e+02
      vertex   4.321412e+02 2.495620e+02 -1.326737e+02
      vertex   4.323285e+02 2.503086e+02 -1.340951e+02
    endloop
  endfacet
  facet normal 9.667353e-01 -2.556849e-01 -6.935369e-03
    outer loop
      vertex   4.327825e+02 2.519316e+02 -1.306394e+02
      vertex   4.323285e+02 2.503086e+02 -1.340951e+02
      vertex   4.328866e+02 2.523560e+02 -1.317792e+02
    endloop
  endfacet
  facet normal 9.667353e-01 -2.556849e-01 -6.935369e-03
    outer loop
      vertex   4.328866e+02 2.523560e+02 -1.317792e+02
      vertex   4.323285e+02 2.503086e+02 -1.340951e+02
      vertex   4.325763e+02 2.512801e+02 -1.353631e+02
    endloop
  endfacet
  facet normal 9.667353e-01 -2.556849e-01 -6.935369e-03
    outer loop
      vertex   4.328866e+02 2.523560e+02 -1.317792e+02
      vertex   4.325763e+02 2.512801e+02 -1.353631e+02
      vertex   4.330449e+02 2.529827e+02 -1.328147e+02
    endloop
  endfacet
  facet normal 9.667353e-01 -2.556849e-01 -6.935369e-03
    outer loop
      vertex   4.330449e+02 2.529827e+02 -1.328147e+02
      vertex   4.325763e+02 2.512801e+02 -1.353631e+02
      vertex   4.328774e+02 2.524476e+02 -1.364399e+02
    endloop
  endfacet
  facet normal 9.667353e-01 -2.556849e-01 -6.935369e-03
    outer loop
      vertex   4.330449e+02 2.529827e+02 -1.328147e+02
      vertex   4.328774e+02 2.524476e+02 -1.364399e+02
      vertex   4.332517e+02 2.537887e+02 -1.337078e+02
    endloop
  endfacet
  facet normal 9.667353e-01 -2.556849e-01 -6.935369e-03
    outer loop
      vertex   4.332517e+02 2.537887e+02 -1.337078e+02
      vertex   4.328774e+02 2.524476e+02 -1.364399e+02
      vertex   4.377687e+02 2.710821e+02 -1.416225e+02
    endloop
  endfacet
  facet normal 9.667353e-01 -2.556849e-01 -6.935369e-03
    outer loop
      vertex   4.332517e+02 2.537887e+02 -1.337078e+02
      vertex   4.377687e+02 2.710821e+02 -1.416225e+02
      vertex   4.378902e+02 2.714601e+02 -1.386226e+02
    endloop
  endfacet
  facet normal 9.667353e-01 -2.556849e-01 -6.935369e-03
    outer loop
      vertex   4.378902e+02 2.714601e+02 -1.386226e+02
      vertex   4.377687e+02 2.710821e+02 -1.416225e+02
      vertex   4.393904e+02 2.772135e+02 -1.416225e+02
    endloop
  endfacet
  facet normal 9.667353e-01 -2.556849e-01 -6.935369e-03
    outer loop
      vertex   4.378902e+02 2.714601e+02 -1.386226e+02
      vertex   4.393904e+02 2.772135e+02 -1.416225e+02
      vertex   4.401775e+02 2.801084e+02 -1.386226e+02
    endloop
  endfacet
  facet normal 9.667353e-01 -2.556849e-01 -6.935369e-03
    outer loop
      vertex   4.401775e+02 2.801084e+02 -1.386226e+02
      vertex   4.393904e+02 2.772135e+02 -1.416225e+02
      vertex   4.393508e+02 2.772239e+02 -1.475211e+02
    endloop
  endfacet
  facet normal 9.667353e-01 -2.556849e-01 -6.935369e-03
    outer loop
      vertex   4.401775e+02 2.801084e+02 -1.386226e+02
      vertex   4.393508e+02 2.772239e+02 -1.475211e+02
      vertex   4.400978e+02 2.801295e+02 -1.505210e+02
    endloop
  endfacet
  facet normal 9.667353e-01 -2.556849e-01 -6.935369e-03
    outer loop
      vertex   4.400978e+02 2.801295e+02 -1.505210e+02
      vertex   4.393508e+02 2.772239e+02 -1.475211e+02
      vertex   4.380422e+02 2.723577e+02 -1.505210e+02
    endloop
  endfacet
  facet normal 9.667353e-01 -2.556849e-01 -6.935369e-03
    outer loop
      vertex   4.380422e+02 2.723577e+02 -1.505210e+02
      vertex   4.393508e+02 2.772239e+02 -1.475211e+02
      vertex   4.372953e+02 2.694521e+02 -1.475211e+02
    endloop
  endfacet
  facet normal 9.667353e-01 -2.556849e-01 -6.935369e-03
    outer loop
      vertex   4.380422e+02 2.723577e+02 -1.505210e+02
      vertex   4.372953e+02 2.694521e+02 -1.475211e+02
      vertex   4.370582e+02 2.695148e+02 -1.828827e+02
    endloop
  endfacet
  facet normal 9.667353e-01 -2.556849e-01 -6.935369e-03
    outer loop
      vertex   4.581975e+02 3.494419e+02 -1.828827e+02
      vertex   4.574506e+02 3.465363e+02 -1.798828e+02
      vertex   4.370582e+02 2.695148e+02 -1.828827e+02
    endloop
  endfacet
  facet normal 9.667353e-01 -2.556849e-01 -6.935369e-03
    outer loop
      vertex   4.370582e+02 2.695148e+02 -1.828827e+02
      vertex   4.574506e+02 3.465363e+02 -1.798828e+02
      vertex   4.378454e+02 2.724097e+02 -1.798828e+02
    endloop
  endfacet
  facet normal 9.667353e-01 -2.556849e-01 -6.935369e-03
    outer loop
      vertex   4.370582e+02 2.695148e+02 -1.828827e+02
      vertex   4.378454e+02 2.724097e+02 -1.798828e+02
      vertex   4.380422e+02 2.723577e+02 -1.505210e+02
    endloop
  endfacet
  facet normal 9.667353e-01 -2.556849e-01 -6.935369e-03
    outer loop
      vertex   4.581975e+02 3.494419e+02 -1.828827e+02
      vertex   4.584346e+02 3.493792e+02 -1.475211e+02
      vertex   4.574506e+02 3.465363e+02 -1.798828e+02
    endloop
  endfacet
  facet normal 9.667353e-01 -2.556849e-01 -6.935369e-03
    outer loop
      vertex   4.574506e+02 3.465363e+02 -1.798828e+02
      vertex   4.584346e+02 3.493792e+02 -1.475211e+02
      vertex   4.576474e+02 3.464842e+02 -1.505210e+02
    endloop
  endfacet
  facet normal 9.667353e-01 -2.556849e-01 -6.935369e-03
    outer loop
      vertex   4.576474e+02 3.464842e+02 -1.505210e+02
      vertex   4.584346e+02 3.493792e+02 -1.475211e+02
      vertex   4.570928e+02 3.443059e+02 -1.475211e+02
    endloop
  endfacet
  facet normal 9.667353e-01 -2.556849e-01 -6.935369e-03
    outer loop
      vertex   4.576474e+02 3.464842e+02 -1.505210e+02
      vertex   4.570928e+02 3.443059e+02 -1.475211e+02
      vertex   4.563056e+02 3.414109e+02 -1.505210e+02
    endloop
  endfacet
  facet normal 9.667353e-01 -2.556849e-01 -6.935369e-03
    outer loop
      vertex   4.563056e+02 3.414109e+02 -1.505210e+02
      vertex   4.570928e+02 3.443059e+02 -1.475211e+02
      vertex   4.574960e+02 3.410961e+02 2.700674e+01
    endloop
  endfacet
  facet normal 9.667353e-01 -2.556849e-01 -6.935369e-03
    outer loop
      vertex   4.574960e+02 3.410961e+02 2.700674e+01
      vertex   4.570928e+02 3.443059e+02 -1.475211e+02
      vertex   4.582798e+02 3.439920e+02 2.950118e+01
    endloop
  endfacet
  facet normal 9.667353e-01 -2.556849e-01 -6.935369e-03
    outer loop
      vertex   4.574960e+02 3.410961e+02 2.700674e+01
      vertex   4.582798e+02 3.439920e+02 2.950118e+01
      vertex   4.337867e+02 2.514474e+02 2.717683e+01
    endloop
  endfacet
  facet normal 3.613744e-01 -9.324119e-01 -4.076508e-03
    outer loop
      vertex   4.120404e+02 2.761315e+02 -1.827033e+02
      vertex   4.122775e+02 2.760688e+02 -1.473416e+02
      vertex   3.993501e+02 2.712128e+02 -1.826269e+02
    endloop
  endfacet
  facet normal 3.613744e-01 -9.324119e-01 -4.076508e-03
    outer loop
      vertex   3.993501e+02 2.712128e+02 -1.826269e+02
      vertex   4.122775e+02 2.760688e+02 -1.473416e+02
      vertex   3.995872e+02 2.711501e+02 -1.472653e+02
    endloop
  endfacet
endsolid
