solid ASCII
  facet normal 1.000000e+00 0.000000e+00 -0.000000e+00
    outer loop
      vertex   4.998190e+02 3.330055e+02 -1.478276e+02
      vertex   4.998190e+02 3.330055e+02 2.920318e+01
      vertex   4.998190e+02 3.299024e+02 2.670312e+01
    endloop
  endfacet
  facet normal 1.000000e+00 5.566026e-16 -6.908715e-16
    outer loop
      vertex   4.998190e+02 3.299024e+02 2.670312e+01
      vertex   4.998190e+02 3.330055e+02 2.920318e+01
      vertex   4.998190e+02 2.308799e+02 2.920318e+01
    endloop
  endfacet
  facet normal 1.000000e+00 -1.263206e-29 -2.273678e-14
    outer loop
      vertex   4.998190e+02 3.299024e+02 2.670312e+01
      vertex   4.998190e+02 2.308799e+02 2.920318e+01
      vertex   4.998190e+02 2.339830e+02 2.670312e+01
    endloop
  endfacet
  facet normal 1.000000e+00 1.803035e-14 -3.569828e-16
    outer loop
      vertex   4.998190e+02 2.339830e+02 2.670312e+01
      vertex   4.998190e+02 2.308799e+02 2.920318e+01
      vertex   4.998190e+02 2.308799e+02 -1.300297e+02
    endloop
  endfacet
  facet normal 1.000000e+00 0.000000e+00 0.000000e+00
    outer loop
      vertex   4.998190e+02 2.339830e+02 2.670312e+01
      vertex   4.998190e+02 2.308799e+02 -1.300297e+02
      vertex   4.998190e+02 2.339830e+02 -1.299184e+02
    endloop
  endfacet
  facet normal 1.000000e+00 0.000000e+00 0.000000e+00
    outer loop
      vertex   4.998190e+02 2.339830e+02 -1.299184e+02
      vertex   4.998190e+02 2.308799e+02 -1.300297e+02
      vertex   4.998190e+02 2.311309e+02 -1.316275e+02
    endloop
  endfacet
  facet normal 1.000000e+00 0.000000e+00 0.000000e+00
    outer loop
      vertex   4.998190e+02 2.339830e+02 -1.299184e+02
      vertex   4.998190e+02 2.311309e+02 -1.316275e+02
      vertex   4.998190e+02 2.316624e+02 -1.331592e+02
    endloop
  endfacet
  facet normal 1.000000e+00 0.000000e+00 0.000000e+00
    outer loop
      vertex   4.998190e+02 2.339830e+02 -1.299184e+02
      vertex   4.998190e+02 2.316624e+02 -1.331592e+02
      vertex   4.998190e+02 2.342017e+02 -1.311203e+02
    endloop
  endfacet
  facet normal 1.000000e+00 0.000000e+00 0.000000e+00
    outer loop
      vertex   4.998190e+02 2.342017e+02 -1.311203e+02
      vertex   4.998190e+02 2.316624e+02 -1.331592e+02
      vertex   4.998190e+02 2.324586e+02 -1.345793e+02
    endloop
  endfacet
  facet normal 1.000000e+00 0.000000e+00 0.000000e+00
    outer loop
      vertex   4.998190e+02 2.342017e+02 -1.311203e+02
      vertex   4.998190e+02 2.324586e+02 -1.345793e+02
      vertex   4.998190e+02 2.346536e+02 -1.322593e+02
    endloop
  endfacet
  facet normal 1.000000e+00 0.000000e+00 0.000000e+00
    outer loop
      vertex   4.998190e+02 2.346536e+02 -1.322593e+02
      vertex   4.998190e+02 2.324586e+02 -1.345793e+02
      vertex   4.998190e+02 2.334956e+02 -1.358455e+02
    endloop
  endfacet
  facet normal 1.000000e+00 0.000000e+00 0.000000e+00
    outer loop
      vertex   4.998190e+02 2.346536e+02 -1.322593e+02
      vertex   4.998190e+02 2.334956e+02 -1.358455e+02
      vertex   4.998190e+02 2.353221e+02 -1.332937e+02
    endloop
  endfacet
  facet normal 1.000000e+00 0.000000e+00 0.000000e+00
    outer loop
      vertex   4.998190e+02 2.353221e+02 -1.332937e+02
      vertex   4.998190e+02 2.334956e+02 -1.358455e+02
      vertex   4.998190e+02 2.347427e+02 -1.369201e+02
    endloop
  endfacet
  facet normal 1.000000e+00 0.000000e+00 0.000000e+00
    outer loop
      vertex   4.998190e+02 2.353221e+02 -1.332937e+02
      vertex   4.998190e+02 2.347427e+02 -1.369201e+02
      vertex   4.998190e+02 2.361828e+02 -1.341854e+02
    endloop
  endfacet
  facet normal 1.000000e+00 0.000000e+00 0.000000e+00
    outer loop
      vertex   4.998190e+02 2.361828e+02 -1.341854e+02
      vertex   4.998190e+02 2.347427e+02 -1.369201e+02
      vertex   4.998190e+02 2.546709e+02 -1.420676e+02
    endloop
  endfacet
  facet normal 1.000000e+00 0.000000e+00 0.000000e+00
    outer loop
      vertex   4.998190e+02 2.361828e+02 -1.341854e+02
      vertex   4.998190e+02 2.546709e+02 -1.420676e+02
      vertex   4.998190e+02 2.550810e+02 -1.390668e+02
    endloop
  endfacet
  facet normal 1.000000e+00 0.000000e+00 0.000000e+00
    outer loop
      vertex   4.998190e+02 2.550810e+02 -1.390668e+02
      vertex   4.998190e+02 2.546709e+02 -1.420676e+02
      vertex   4.998190e+02 2.612311e+02 -1.420560e+02
    endloop
  endfacet
  facet normal 1.000000e+00 -0.000000e+00 0.000000e+00
    outer loop
      vertex   4.998190e+02 2.550810e+02 -1.390668e+02
      vertex   4.998190e+02 2.612311e+02 -1.420560e+02
      vertex   4.998190e+02 2.643343e+02 -1.390504e+02
    endloop
  endfacet
  facet normal 1.000000e+00 0.000000e+00 0.000000e+00
    outer loop
      vertex   4.998190e+02 2.643343e+02 -1.390504e+02
      vertex   4.998190e+02 2.612311e+02 -1.420560e+02
      vertex   4.998190e+02 2.643343e+02 -1.509495e+02
    endloop
  endfacet
  facet normal 1.000000e+00 0.000000e+00 0.000000e+00
    outer loop
      vertex   4.998190e+02 2.643343e+02 -1.509495e+02
      vertex   4.998190e+02 2.612311e+02 -1.420560e+02
      vertex   4.998190e+02 2.612311e+02 -1.479549e+02
    endloop
  endfacet
  facet normal 1.000000e+00 0.000000e+00 0.000000e+00
    outer loop
      vertex   4.998190e+02 2.643343e+02 -1.509495e+02
      vertex   4.998190e+02 2.612311e+02 -1.479549e+02
      vertex   4.998190e+02 2.560188e+02 -1.509642e+02
    endloop
  endfacet
  facet normal 1.000000e+00 0.000000e+00 -0.000000e+00
    outer loop
      vertex   4.998190e+02 2.560188e+02 -1.509642e+02
      vertex   4.998190e+02 2.612311e+02 -1.479549e+02
      vertex   4.998190e+02 2.529156e+02 -1.479697e+02
    endloop
  endfacet
  facet normal 1.000000e+00 0.000000e+00 0.000000e+00
    outer loop
      vertex   4.998190e+02 2.560188e+02 -1.509642e+02
      vertex   4.998190e+02 2.529156e+02 -1.479697e+02
      vertex   4.998190e+02 2.560188e+02 -1.516458e+02
    endloop
  endfacet
  facet normal 1.000000e+00 0.000000e+00 0.000000e+00
    outer loop
      vertex   4.998190e+02 2.560188e+02 -1.516458e+02
      vertex   4.998190e+02 2.529156e+02 -1.479697e+02
      vertex   4.998190e+02 2.561598e+02 -1.526811e+02
    endloop
  endfacet
  facet normal 1.000000e+00 0.000000e+00 0.000000e+00
    outer loop
      vertex   4.998190e+02 2.561598e+02 -1.526811e+02
      vertex   4.998190e+02 2.529156e+02 -1.479697e+02
      vertex   4.998190e+02 2.561598e+02 -1.786105e+02
    endloop
  endfacet
  facet normal 1.000000e+00 0.000000e+00 0.000000e+00
    outer loop
      vertex   4.998190e+02 2.561598e+02 -1.526811e+02
      vertex   4.998190e+02 2.561598e+02 -1.786105e+02
      vertex   4.998190e+02 2.565731e+02 -1.536458e+02
    endloop
  endfacet
  facet normal 1.000000e+00 0.000000e+00 0.000000e+00
    outer loop
      vertex   4.998190e+02 2.565731e+02 -1.536458e+02
      vertex   4.998190e+02 2.561598e+02 -1.786105e+02
      vertex   4.998190e+02 2.565731e+02 -1.776458e+02
    endloop
  endfacet
  facet normal 1.000000e+00 0.000000e+00 0.000000e+00
    outer loop
      vertex   4.998190e+02 2.565731e+02 -1.536458e+02
      vertex   4.998190e+02 2.565731e+02 -1.776458e+02
      vertex   4.998190e+02 2.572306e+02 -1.544742e+02
    endloop
  endfacet
  facet normal 1.000000e+00 0.000000e+00 0.000000e+00
    outer loop
      vertex   4.998190e+02 2.572306e+02 -1.544742e+02
      vertex   4.998190e+02 2.565731e+02 -1.776458e+02
      vertex   4.998190e+02 2.572306e+02 -1.768174e+02
    endloop
  endfacet
  facet normal 1.000000e+00 0.000000e+00 0.000000e+00
    outer loop
      vertex   4.998190e+02 2.572306e+02 -1.544742e+02
      vertex   4.998190e+02 2.572306e+02 -1.768174e+02
      vertex   4.998190e+02 2.580875e+02 -1.551099e+02
    endloop
  endfacet
  facet normal 1.000000e+00 0.000000e+00 0.000000e+00
    outer loop
      vertex   4.998190e+02 2.580875e+02 -1.551099e+02
      vertex   4.998190e+02 2.572306e+02 -1.768174e+02
      vertex   4.998190e+02 2.580875e+02 -1.761817e+02
    endloop
  endfacet
  facet normal 1.000000e+00 0.000000e+00 0.000000e+00
    outer loop
      vertex   4.998190e+02 2.580875e+02 -1.551099e+02
      vertex   4.998190e+02 2.580875e+02 -1.761817e+02
      vertex   4.998190e+02 2.590854e+02 -1.555095e+02
    endloop
  endfacet
  facet normal 1.000000e+00 0.000000e+00 0.000000e+00
    outer loop
      vertex   4.998190e+02 2.590854e+02 -1.555095e+02
      vertex   4.998190e+02 2.580875e+02 -1.761817e+02
      vertex   4.998190e+02 2.590854e+02 -1.757821e+02
    endloop
  endfacet
  facet normal 1.000000e+00 0.000000e+00 0.000000e+00
    outer loop
      vertex   4.998190e+02 2.590854e+02 -1.555095e+02
      vertex   4.998190e+02 2.590854e+02 -1.757821e+02
      vertex   4.998190e+02 2.601563e+02 -1.556458e+02
    endloop
  endfacet
  facet normal 1.000000e+00 0.000000e+00 0.000000e+00
    outer loop
      vertex   4.998190e+02 2.601563e+02 -1.556458e+02
      vertex   4.998190e+02 2.590854e+02 -1.757821e+02
      vertex   4.998190e+02 2.601563e+02 -1.756458e+02
    endloop
  endfacet
  facet normal 1.000000e+00 0.000000e+00 0.000000e+00
    outer loop
      vertex   4.998190e+02 2.601563e+02 -1.556458e+02
      vertex   4.998190e+02 2.601563e+02 -1.756458e+02
      vertex   4.998190e+02 2.660188e+02 -1.656458e+02
    endloop
  endfacet
  facet normal 1.000000e+00 0.000000e+00 0.000000e+00
    outer loop
      vertex   4.998190e+02 2.660188e+02 -1.656458e+02
      vertex   4.998190e+02 2.601563e+02 -1.756458e+02
      vertex   4.998190e+02 2.661040e+02 -1.662929e+02
    endloop
  endfacet
  facet normal 1.000000e+00 0.000000e+00 0.000000e+00
    outer loop
      vertex   4.998190e+02 2.661040e+02 -1.662929e+02
      vertex   4.998190e+02 2.601563e+02 -1.756458e+02
      vertex   4.998190e+02 2.663537e+02 -1.668958e+02
    endloop
  endfacet
  facet normal 1.000000e+00 0.000000e+00 0.000000e+00
    outer loop
      vertex   4.998190e+02 2.663537e+02 -1.668958e+02
      vertex   4.998190e+02 2.601563e+02 -1.756458e+02
      vertex   4.998190e+02 2.667510e+02 -1.674136e+02
    endloop
  endfacet
  facet normal 1.000000e+00 0.000000e+00 0.000000e+00
    outer loop
      vertex   4.998190e+02 2.667510e+02 -1.674136e+02
      vertex   4.998190e+02 2.601563e+02 -1.756458e+02
      vertex   4.998190e+02 2.672688e+02 -1.678109e+02
    endloop
  endfacet
  facet normal 1.000000e+00 0.000000e+00 0.000000e+00
    outer loop
      vertex   4.998190e+02 2.672688e+02 -1.678109e+02
      vertex   4.998190e+02 2.601563e+02 -1.756458e+02
      vertex   4.998190e+02 2.710188e+02 -1.756458e+02
    endloop
  endfacet
  facet normal 1.000000e+00 0.000000e+00 0.000000e+00
    outer loop
      vertex   4.998190e+02 2.672688e+02 -1.678109e+02
      vertex   4.998190e+02 2.710188e+02 -1.756458e+02
      vertex   4.998190e+02 2.678717e+02 -1.680606e+02
    endloop
  endfacet
  facet normal 1.000000e+00 0.000000e+00 0.000000e+00
    outer loop
      vertex   4.998190e+02 2.678717e+02 -1.680606e+02
      vertex   4.998190e+02 2.710188e+02 -1.756458e+02
      vertex   4.998190e+02 2.685188e+02 -1.681458e+02
    endloop
  endfacet
  facet normal 1.000000e+00 -0.000000e+00 0.000000e+00
    outer loop
      vertex   4.998190e+02 2.685188e+02 -1.681458e+02
      vertex   4.998190e+02 2.710188e+02 -1.756458e+02
      vertex   4.998190e+02 2.691658e+02 -1.680606e+02
    endloop
  endfacet
  facet normal 1.000000e+00 -0.000000e+00 0.000000e+00
    outer loop
      vertex   4.998190e+02 2.691658e+02 -1.680606e+02
      vertex   4.998190e+02 2.710188e+02 -1.756458e+02
      vertex   4.998190e+02 2.697688e+02 -1.678109e+02
    endloop
  endfacet
  facet normal 1.000000e+00 -0.000000e+00 0.000000e+00
    outer loop
      vertex   4.998190e+02 2.697688e+02 -1.678109e+02
      vertex   4.998190e+02 2.710188e+02 -1.756458e+02
      vertex   4.998190e+02 2.702865e+02 -1.674136e+02
    endloop
  endfacet
  facet normal 1.000000e+00 0.000000e+00 0.000000e+00
    outer loop
      vertex   4.998190e+02 2.702865e+02 -1.674136e+02
      vertex   4.998190e+02 2.710188e+02 -1.756458e+02
      vertex   4.998190e+02 2.727553e+02 -1.754939e+02
    endloop
  endfacet
  facet normal 1.000000e+00 -0.000000e+00 0.000000e+00
    outer loop
      vertex   4.998190e+02 2.702865e+02 -1.674136e+02
      vertex   4.998190e+02 2.727553e+02 -1.754939e+02
      vertex   4.998190e+02 2.706838e+02 -1.668958e+02
    endloop
  endfacet
  facet normal 1.000000e+00 -0.000000e+00 0.000000e+00
    outer loop
      vertex   4.998190e+02 2.706838e+02 -1.668958e+02
      vertex   4.998190e+02 2.727553e+02 -1.754939e+02
      vertex   4.998190e+02 2.709336e+02 -1.662929e+02
    endloop
  endfacet
  facet normal 1.000000e+00 0.000000e+00 0.000000e+00
    outer loop
      vertex   4.998190e+02 2.709336e+02 -1.662929e+02
      vertex   4.998190e+02 2.727553e+02 -1.754939e+02
      vertex   4.998190e+02 2.744390e+02 -1.750427e+02
    endloop
  endfacet
  facet normal 1.000000e+00 0.000000e+00 0.000000e+00
    outer loop
      vertex   4.998190e+02 2.709336e+02 -1.662929e+02
      vertex   4.998190e+02 2.744390e+02 -1.750427e+02
      vertex   4.998190e+02 2.760188e+02 -1.743061e+02
    endloop
  endfacet
  facet normal 1.000000e+00 0.000000e+00 0.000000e+00
    outer loop
      vertex   4.998190e+02 2.529156e+02 -1.479697e+02
      vertex   4.998190e+02 2.529156e+02 -1.833330e+02
      vertex   4.998190e+02 2.561598e+02 -1.786105e+02
    endloop
  endfacet
  facet normal 1.000000e+00 0.000000e+00 0.000000e+00
    outer loop
      vertex   4.998190e+02 2.561598e+02 -1.786105e+02
      vertex   4.998190e+02 2.529156e+02 -1.833330e+02
      vertex   4.998190e+02 2.560188e+02 -1.796458e+02
    endloop
  endfacet
  facet normal 1.000000e+00 0.000000e+00 0.000000e+00
    outer loop
      vertex   4.998190e+02 2.560188e+02 -1.796458e+02
      vertex   4.998190e+02 2.529156e+02 -1.833330e+02
      vertex   4.998190e+02 2.560188e+02 -1.803274e+02
    endloop
  endfacet
  facet normal 1.000000e+00 0.000000e+00 0.000000e+00
    outer loop
      vertex   4.998190e+02 2.560188e+02 -1.803274e+02
      vertex   4.998190e+02 2.529156e+02 -1.833330e+02
      vertex   4.998190e+02 3.384337e+02 -1.831813e+02
    endloop
  endfacet
  facet normal 1.000000e+00 -0.000000e+00 0.000000e+00
    outer loop
      vertex   4.998190e+02 2.560188e+02 -1.803274e+02
      vertex   4.998190e+02 3.384337e+02 -1.831813e+02
      vertex   4.998190e+02 3.353306e+02 -1.801868e+02
    endloop
  endfacet
  facet normal 1.000000e+00 -0.000000e+00 0.000000e+00
    outer loop
      vertex   4.998190e+02 3.353306e+02 -1.801868e+02
      vertex   4.998190e+02 3.384337e+02 -1.831813e+02
      vertex   4.998190e+02 3.353306e+02 -1.508236e+02
    endloop
  endfacet
  facet normal 1.000000e+00 -0.000000e+00 0.000000e+00
    outer loop
      vertex   4.998190e+02 3.353306e+02 -1.508236e+02
      vertex   4.998190e+02 3.384337e+02 -1.831813e+02
      vertex   4.998190e+02 3.384337e+02 -1.478180e+02
    endloop
  endfacet
  facet normal 1.000000e+00 0.000000e+00 -0.000000e+00
    outer loop
      vertex   4.998190e+02 3.353306e+02 -1.508236e+02
      vertex   4.998190e+02 3.384337e+02 -1.478180e+02
      vertex   4.998190e+02 3.330055e+02 -1.478276e+02
    endloop
  endfacet
  facet normal 1.000000e+00 0.000000e+00 0.000000e+00
    outer loop
      vertex   4.998190e+02 2.678717e+02 -1.632310e+02
      vertex   4.998190e+02 2.685188e+02 -1.631458e+02
      vertex   4.998190e+02 2.710188e+02 -1.556458e+02
    endloop
  endfacet
  facet normal 1.000000e+00 0.000000e+00 0.000000e+00
    outer loop
      vertex   4.998190e+02 2.710188e+02 -1.556458e+02
      vertex   4.998190e+02 2.685188e+02 -1.631458e+02
      vertex   4.998190e+02 2.691658e+02 -1.632310e+02
    endloop
  endfacet
  facet normal 1.000000e+00 0.000000e+00 0.000000e+00
    outer loop
      vertex   4.998190e+02 2.710188e+02 -1.556458e+02
      vertex   4.998190e+02 2.691658e+02 -1.632310e+02
      vertex   4.998190e+02 2.697688e+02 -1.634808e+02
    endloop
  endfacet
  facet normal 1.000000e+00 -0.000000e+00 0.000000e+00
    outer loop
      vertex   4.998190e+02 2.697688e+02 -1.634808e+02
      vertex   4.998190e+02 2.702865e+02 -1.638780e+02
      vertex   4.998190e+02 2.710188e+02 -1.556458e+02
    endloop
  endfacet
  facet normal 1.000000e+00 0.000000e+00 0.000000e+00
    outer loop
      vertex   4.998190e+02 2.710188e+02 -1.556458e+02
      vertex   4.998190e+02 2.702865e+02 -1.638780e+02
      vertex   4.998190e+02 2.727553e+02 -1.557977e+02
    endloop
  endfacet
  facet normal 1.000000e+00 0.000000e+00 0.000000e+00
    outer loop
      vertex   4.998190e+02 2.727553e+02 -1.557977e+02
      vertex   4.998190e+02 2.702865e+02 -1.638780e+02
      vertex   4.998190e+02 2.706838e+02 -1.643958e+02
    endloop
  endfacet
  facet normal 1.000000e+00 0.000000e+00 0.000000e+00
    outer loop
      vertex   4.998190e+02 2.727553e+02 -1.557977e+02
      vertex   4.998190e+02 2.706838e+02 -1.643958e+02
      vertex   4.998190e+02 2.709336e+02 -1.649988e+02
    endloop
  endfacet
  facet normal 1.000000e+00 0.000000e+00 -0.000000e+00
    outer loop
      vertex   4.998190e+02 2.710188e+02 -1.656458e+02
      vertex   4.998190e+02 2.760188e+02 -1.569856e+02
      vertex   4.998190e+02 2.709336e+02 -1.649988e+02
    endloop
  endfacet
  facet normal 1.000000e+00 0.000000e+00 0.000000e+00
    outer loop
      vertex   4.998190e+02 2.709336e+02 -1.649988e+02
      vertex   4.998190e+02 2.760188e+02 -1.569856e+02
      vertex   4.998190e+02 2.744390e+02 -1.562489e+02
    endloop
  endfacet
  facet normal 1.000000e+00 0.000000e+00 0.000000e+00
    outer loop
      vertex   4.998190e+02 2.709336e+02 -1.649988e+02
      vertex   4.998190e+02 2.744390e+02 -1.562489e+02
      vertex   4.998190e+02 2.727553e+02 -1.557977e+02
    endloop
  endfacet
  facet normal 1.000000e+00 -0.000000e+00 0.000000e+00
    outer loop
      vertex   4.998190e+02 2.709336e+02 -1.662929e+02
      vertex   4.998190e+02 2.760188e+02 -1.743061e+02
      vertex   4.998190e+02 2.710188e+02 -1.656458e+02
    endloop
  endfacet
  facet normal 1.000000e+00 0.000000e+00 0.000000e+00
    outer loop
      vertex   4.998190e+02 2.710188e+02 -1.656458e+02
      vertex   4.998190e+02 2.760188e+02 -1.743061e+02
      vertex   4.998190e+02 2.774466e+02 -1.733063e+02
    endloop
  endfacet
  facet normal 1.000000e+00 -0.000000e+00 0.000000e+00
    outer loop
      vertex   4.998190e+02 2.710188e+02 -1.656458e+02
      vertex   4.998190e+02 2.774466e+02 -1.733063e+02
      vertex   4.998190e+02 2.774466e+02 -1.579854e+02
    endloop
  endfacet
  facet normal 1.000000e+00 0.000000e+00 0.000000e+00
    outer loop
      vertex   4.998190e+02 2.774466e+02 -1.579854e+02
      vertex   4.998190e+02 2.774466e+02 -1.733063e+02
      vertex   4.998190e+02 2.786792e+02 -1.592179e+02
    endloop
  endfacet
  facet normal 1.000000e+00 0.000000e+00 0.000000e+00
    outer loop
      vertex   4.998190e+02 2.786792e+02 -1.592179e+02
      vertex   4.998190e+02 2.774466e+02 -1.733063e+02
      vertex   4.998190e+02 2.786792e+02 -1.720737e+02
    endloop
  endfacet
  facet normal 1.000000e+00 0.000000e+00 0.000000e+00
    outer loop
      vertex   4.998190e+02 2.786792e+02 -1.592179e+02
      vertex   4.998190e+02 2.786792e+02 -1.720737e+02
      vertex   4.998190e+02 2.796790e+02 -1.606458e+02
    endloop
  endfacet
  facet normal 1.000000e+00 0.000000e+00 0.000000e+00
    outer loop
      vertex   4.998190e+02 2.796790e+02 -1.606458e+02
      vertex   4.998190e+02 2.786792e+02 -1.720737e+02
      vertex   4.998190e+02 2.796790e+02 -1.706458e+02
    endloop
  endfacet
  facet normal 1.000000e+00 0.000000e+00 0.000000e+00
    outer loop
      vertex   4.998190e+02 2.796790e+02 -1.606458e+02
      vertex   4.998190e+02 2.796790e+02 -1.706458e+02
      vertex   4.998190e+02 2.804157e+02 -1.622256e+02
    endloop
  endfacet
  facet normal 1.000000e+00 0.000000e+00 0.000000e+00
    outer loop
      vertex   4.998190e+02 2.804157e+02 -1.622256e+02
      vertex   4.998190e+02 2.796790e+02 -1.706458e+02
      vertex   4.998190e+02 2.804157e+02 -1.690660e+02
    endloop
  endfacet
  facet normal 1.000000e+00 0.000000e+00 0.000000e+00
    outer loop
      vertex   4.998190e+02 2.804157e+02 -1.622256e+02
      vertex   4.998190e+02 2.804157e+02 -1.690660e+02
      vertex   4.998190e+02 2.808668e+02 -1.639093e+02
    endloop
  endfacet
  facet normal 1.000000e+00 0.000000e+00 0.000000e+00
    outer loop
      vertex   4.998190e+02 2.808668e+02 -1.639093e+02
      vertex   4.998190e+02 2.804157e+02 -1.690660e+02
      vertex   4.998190e+02 2.808668e+02 -1.673823e+02
    endloop
  endfacet
  facet normal 1.000000e+00 0.000000e+00 0.000000e+00
    outer loop
      vertex   4.998190e+02 2.808668e+02 -1.639093e+02
      vertex   4.998190e+02 2.808668e+02 -1.673823e+02
      vertex   4.998190e+02 2.810188e+02 -1.656458e+02
    endloop
  endfacet
  facet normal 1.000000e+00 0.000000e+00 -0.000000e+00
    outer loop
      vertex   4.998190e+02 2.660188e+02 -1.656458e+02
      vertex   4.998190e+02 2.661040e+02 -1.649988e+02
      vertex   4.998190e+02 2.601563e+02 -1.556458e+02
    endloop
  endfacet
  facet normal 1.000000e+00 0.000000e+00 0.000000e+00
    outer loop
      vertex   4.998190e+02 2.601563e+02 -1.556458e+02
      vertex   4.998190e+02 2.661040e+02 -1.649988e+02
      vertex   4.998190e+02 2.663537e+02 -1.643958e+02
    endloop
  endfacet
  facet normal 1.000000e+00 0.000000e+00 0.000000e+00
    outer loop
      vertex   4.998190e+02 2.601563e+02 -1.556458e+02
      vertex   4.998190e+02 2.663537e+02 -1.643958e+02
      vertex   4.998190e+02 2.667510e+02 -1.638780e+02
    endloop
  endfacet
  facet normal 1.000000e+00 0.000000e+00 -0.000000e+00
    outer loop
      vertex   4.998190e+02 2.667510e+02 -1.638780e+02
      vertex   4.998190e+02 2.672688e+02 -1.634808e+02
      vertex   4.998190e+02 2.601563e+02 -1.556458e+02
    endloop
  endfacet
  facet normal 1.000000e+00 -0.000000e+00 0.000000e+00
    outer loop
      vertex   4.998190e+02 2.601563e+02 -1.556458e+02
      vertex   4.998190e+02 2.672688e+02 -1.634808e+02
      vertex   4.998190e+02 2.710188e+02 -1.556458e+02
    endloop
  endfacet
  facet normal 1.000000e+00 0.000000e+00 0.000000e+00
    outer loop
      vertex   4.998190e+02 2.710188e+02 -1.556458e+02
      vertex   4.998190e+02 2.672688e+02 -1.634808e+02
      vertex   4.998190e+02 2.678717e+02 -1.632310e+02
    endloop
  endfacet
  facet normal 1.000000e+00 0.000000e+00 0.000000e+00
    outer loop
      vertex   4.998190e+02 2.774466e+02 -1.579854e+02
      vertex   4.998190e+02 2.760188e+02 -1.569856e+02
      vertex   4.998190e+02 2.710188e+02 -1.656458e+02
    endloop
  endfacet
  facet normal 1.000000e+00 0.000000e+00 0.000000e+00
    outer loop
      vertex   4.998190e+02 3.299024e+02 2.670312e+01
      vertex   4.998190e+02 3.299024e+02 -1.508332e+02
      vertex   4.998190e+02 3.330055e+02 -1.478276e+02
    endloop
  endfacet
  facet normal 1.000000e+00 0.000000e+00 0.000000e+00
    outer loop
      vertex   4.998190e+02 3.330055e+02 -1.478276e+02
      vertex   4.998190e+02 3.299024e+02 -1.508332e+02
      vertex   4.998190e+02 3.353306e+02 -1.508236e+02
    endloop
  endfacet
  facet normal 0.000000e+00 8.715574e-02 -9.961947e-01
    outer loop
      vertex   4.998190e+02 2.710188e+02 -1.756458e+02
      vertex   4.948190e+02 2.710188e+02 -1.756458e+02
      vertex   4.998190e+02 2.727553e+02 -1.754939e+02
    endloop
  endfacet
  facet normal 0.000000e+00 8.715574e-02 -9.961947e-01
    outer loop
      vertex   4.998190e+02 2.727553e+02 -1.754939e+02
      vertex   4.948190e+02 2.710188e+02 -1.756458e+02
      vertex   4.948190e+02 2.727553e+02 -1.754939e+02
    endloop
  endfacet
  facet normal 0.000000e+00 2.588190e-01 -9.659258e-01
    outer loop
      vertex   4.998190e+02 2.727553e+02 -1.754939e+02
      vertex   4.948190e+02 2.727553e+02 -1.754939e+02
      vertex   4.998190e+02 2.744390e+02 -1.750427e+02
    endloop
  endfacet
  facet normal 5.490653e-15 2.588190e-01 -9.659258e-01
    outer loop
      vertex   4.998190e+02 2.744390e+02 -1.750427e+02
      vertex   4.948190e+02 2.727553e+02 -1.754939e+02
      vertex   4.948190e+02 2.744390e+02 -1.750427e+02
    endloop
  endfacet
  facet normal 5.151763e-15 4.226183e-01 -9.063078e-01
    outer loop
      vertex   4.998190e+02 2.744390e+02 -1.750427e+02
      vertex   4.948190e+02 2.744390e+02 -1.750427e+02
      vertex   4.998190e+02 2.760188e+02 -1.743061e+02
    endloop
  endfacet
  facet normal 0.000000e+00 4.226183e-01 -9.063078e-01
    outer loop
      vertex   4.998190e+02 2.760188e+02 -1.743061e+02
      vertex   4.948190e+02 2.744390e+02 -1.750427e+02
      vertex   4.948190e+02 2.760188e+02 -1.743061e+02
    endloop
  endfacet
  facet normal 0.000000e+00 5.735764e-01 -8.191520e-01
    outer loop
      vertex   4.998190e+02 2.760188e+02 -1.743061e+02
      vertex   4.948190e+02 2.760188e+02 -1.743061e+02
      vertex   4.998190e+02 2.774466e+02 -1.733063e+02
    endloop
  endfacet
  facet normal 0.000000e+00 5.735764e-01 -8.191520e-01
    outer loop
      vertex   4.998190e+02 2.774466e+02 -1.733063e+02
      vertex   4.948190e+02 2.760188e+02 -1.743061e+02
      vertex   4.948190e+02 2.774466e+02 -1.733063e+02
    endloop
  endfacet
  facet normal 0.000000e+00 7.071068e-01 -7.071068e-01
    outer loop
      vertex   4.998190e+02 2.774466e+02 -1.733063e+02
      vertex   4.948190e+02 2.774466e+02 -1.733063e+02
      vertex   4.998190e+02 2.786792e+02 -1.720737e+02
    endloop
  endfacet
  facet normal 0.000000e+00 7.071068e-01 -7.071068e-01
    outer loop
      vertex   4.998190e+02 2.786792e+02 -1.720737e+02
      vertex   4.948190e+02 2.774466e+02 -1.733063e+02
      vertex   4.948190e+02 2.786792e+02 -1.720737e+02
    endloop
  endfacet
  facet normal 0.000000e+00 8.191520e-01 -5.735764e-01
    outer loop
      vertex   4.998190e+02 2.786792e+02 -1.720737e+02
      vertex   4.948190e+02 2.786792e+02 -1.720737e+02
      vertex   4.998190e+02 2.796790e+02 -1.706458e+02
    endloop
  endfacet
  facet normal 0.000000e+00 8.191520e-01 -5.735764e-01
    outer loop
      vertex   4.998190e+02 2.796790e+02 -1.706458e+02
      vertex   4.948190e+02 2.786792e+02 -1.720737e+02
      vertex   4.948190e+02 2.796790e+02 -1.706458e+02
    endloop
  endfacet
  facet normal 0.000000e+00 9.063078e-01 -4.226183e-01
    outer loop
      vertex   4.998190e+02 2.796790e+02 -1.706458e+02
      vertex   4.948190e+02 2.796790e+02 -1.706458e+02
      vertex   4.998190e+02 2.804157e+02 -1.690660e+02
    endloop
  endfacet
  facet normal 0.000000e+00 9.063078e-01 -4.226183e-01
    outer loop
      vertex   4.998190e+02 2.804157e+02 -1.690660e+02
      vertex   4.948190e+02 2.796790e+02 -1.706458e+02
      vertex   4.948190e+02 2.804157e+02 -1.690660e+02
    endloop
  endfacet
  facet normal 0.000000e+00 9.659258e-01 -2.588190e-01
    outer loop
      vertex   4.998190e+02 2.804157e+02 -1.690660e+02
      vertex   4.948190e+02 2.804157e+02 -1.690660e+02
      vertex   4.998190e+02 2.808668e+02 -1.673823e+02
    endloop
  endfacet
  facet normal 0.000000e+00 9.659258e-01 -2.588190e-01
    outer loop
      vertex   4.998190e+02 2.808668e+02 -1.673823e+02
      vertex   4.948190e+02 2.804157e+02 -1.690660e+02
      vertex   4.948190e+02 2.808668e+02 -1.673823e+02
    endloop
  endfacet
  facet normal 0.000000e+00 9.961947e-01 -8.715574e-02
    outer loop
      vertex   4.998190e+02 2.808668e+02 -1.673823e+02
      vertex   4.948190e+02 2.808668e+02 -1.673823e+02
      vertex   4.998190e+02 2.810188e+02 -1.656458e+02
    endloop
  endfacet
  facet normal 0.000000e+00 9.961947e-01 -8.715574e-02
    outer loop
      vertex   4.998190e+02 2.810188e+02 -1.656458e+02
      vertex   4.948190e+02 2.808668e+02 -1.673823e+02
      vertex   4.948190e+02 2.810188e+02 -1.656458e+02
    endloop
  endfacet
  facet normal 0.000000e+00 9.961947e-01 8.715574e-02
    outer loop
      vertex   4.998190e+02 2.810188e+02 -1.656458e+02
      vertex   4.948190e+02 2.810188e+02 -1.656458e+02
      vertex   4.998190e+02 2.808668e+02 -1.639093e+02
    endloop
  endfacet
  facet normal 0.000000e+00 9.961947e-01 8.715574e-02
    outer loop
      vertex   4.998190e+02 2.808668e+02 -1.639093e+02
      vertex   4.948190e+02 2.810188e+02 -1.656458e+02
      vertex   4.948190e+02 2.808668e+02 -1.639093e+02
    endloop
  endfacet
  facet normal 0.000000e+00 9.659258e-01 2.588190e-01
    outer loop
      vertex   4.998190e+02 2.808668e+02 -1.639093e+02
      vertex   4.948190e+02 2.808668e+02 -1.639093e+02
      vertex   4.998190e+02 2.804157e+02 -1.622256e+02
    endloop
  endfacet
  facet normal 0.000000e+00 9.659258e-01 2.588190e-01
    outer loop
      vertex   4.998190e+02 2.804157e+02 -1.622256e+02
      vertex   4.948190e+02 2.808668e+02 -1.639093e+02
      vertex   4.948190e+02 2.804157e+02 -1.622256e+02
    endloop
  endfacet
  facet normal 0.000000e+00 9.063078e-01 4.226183e-01
    outer loop
      vertex   4.998190e+02 2.804157e+02 -1.622256e+02
      vertex   4.948190e+02 2.804157e+02 -1.622256e+02
      vertex   4.998190e+02 2.796790e+02 -1.606458e+02
    endloop
  endfacet
  facet normal 0.000000e+00 9.063078e-01 4.226183e-01
    outer loop
      vertex   4.998190e+02 2.796790e+02 -1.606458e+02
      vertex   4.948190e+02 2.804157e+02 -1.622256e+02
      vertex   4.948190e+02 2.796790e+02 -1.606458e+02
    endloop
  endfacet
  facet normal 0.000000e+00 8.191520e-01 5.735764e-01
    outer loop
      vertex   4.998190e+02 2.796790e+02 -1.606458e+02
      vertex   4.948190e+02 2.796790e+02 -1.606458e+02
      vertex   4.998190e+02 2.786792e+02 -1.592179e+02
    endloop
  endfacet
  facet normal 0.000000e+00 8.191520e-01 5.735764e-01
    outer loop
      vertex   4.998190e+02 2.786792e+02 -1.592179e+02
      vertex   4.948190e+02 2.796790e+02 -1.606458e+02
      vertex   4.948190e+02 2.786792e+02 -1.592179e+02
    endloop
  endfacet
  facet normal 0.000000e+00 7.071068e-01 7.071068e-01
    outer loop
      vertex   4.998190e+02 2.786792e+02 -1.592179e+02
      vertex   4.948190e+02 2.786792e+02 -1.592179e+02
      vertex   4.998190e+02 2.774466e+02 -1.579854e+02
    endloop
  endfacet
  facet normal 0.000000e+00 7.071068e-01 7.071068e-01
    outer loop
      vertex   4.998190e+02 2.774466e+02 -1.579854e+02
      vertex   4.948190e+02 2.786792e+02 -1.592179e+02
      vertex   4.948190e+02 2.774466e+02 -1.579854e+02
    endloop
  endfacet
  facet normal 0.000000e+00 5.735764e-01 8.191520e-01
    outer loop
      vertex   4.998190e+02 2.774466e+02 -1.579854e+02
      vertex   4.948190e+02 2.774466e+02 -1.579854e+02
      vertex   4.998190e+02 2.760188e+02 -1.569856e+02
    endloop
  endfacet
  facet normal 0.000000e+00 5.735764e-01 8.191520e-01
    outer loop
      vertex   4.998190e+02 2.760188e+02 -1.569856e+02
      vertex   4.948190e+02 2.774466e+02 -1.579854e+02
      vertex   4.948190e+02 2.760188e+02 -1.569856e+02
    endloop
  endfacet
  facet normal 0.000000e+00 4.226183e-01 9.063078e-01
    outer loop
      vertex   4.998190e+02 2.760188e+02 -1.569856e+02
      vertex   4.948190e+02 2.760188e+02 -1.569856e+02
      vertex   4.998190e+02 2.744390e+02 -1.562489e+02
    endloop
  endfacet
  facet normal 0.000000e+00 4.226183e-01 9.063078e-01
    outer loop
      vertex   4.998190e+02 2.744390e+02 -1.562489e+02
      vertex   4.948190e+02 2.760188e+02 -1.569856e+02
      vertex   4.948190e+02 2.744390e+02 -1.562489e+02
    endloop
  endfacet
  facet normal 0.000000e+00 2.588190e-01 9.659258e-01
    outer loop
      vertex   4.998190e+02 2.744390e+02 -1.562489e+02
      vertex   4.948190e+02 2.744390e+02 -1.562489e+02
      vertex   4.998190e+02 2.727553e+02 -1.557977e+02
    endloop
  endfacet
  facet normal 0.000000e+00 2.588190e-01 9.659258e-01
    outer loop
      vertex   4.998190e+02 2.727553e+02 -1.557977e+02
      vertex   4.948190e+02 2.744390e+02 -1.562489e+02
      vertex   4.948190e+02 2.727553e+02 -1.557977e+02
    endloop
  endfacet
  facet normal 0.000000e+00 8.715574e-02 9.961947e-01
    outer loop
      vertex   4.998190e+02 2.727553e+02 -1.557977e+02
      vertex   4.948190e+02 2.727553e+02 -1.557977e+02
      vertex   4.998190e+02 2.710188e+02 -1.556458e+02
    endloop
  endfacet
  facet normal 0.000000e+00 8.715574e-02 9.961947e-01
    outer loop
      vertex   4.998190e+02 2.710188e+02 -1.556458e+02
      vertex   4.948190e+02 2.727553e+02 -1.557977e+02
      vertex   4.948190e+02 2.710188e+02 -1.556458e+02
    endloop
  endfacet
  facet normal -0.000000e+00 0.000000e+00 1.000000e+00
    outer loop
      vertex   4.948190e+02 2.710188e+02 -1.556458e+02
      vertex   4.948190e+02 2.614787e+02 -1.556458e+02
      vertex   4.998190e+02 2.710188e+02 -1.556458e+02
    endloop
  endfacet
  facet normal 0.000000e+00 0.000000e+00 1.000000e+00
    outer loop
      vertex   4.998190e+02 2.710188e+02 -1.556458e+02
      vertex   4.948190e+02 2.614787e+02 -1.556458e+02
      vertex   4.998190e+02 2.601563e+02 -1.556458e+02
    endloop
  endfacet
  facet normal -1.000000e+00 -0.000000e+00 0.000000e+00
    outer loop
      vertex   4.948190e+02 2.727553e+02 -1.557977e+02
      vertex   4.948190e+02 2.697688e+02 -1.634808e+02
      vertex   4.948190e+02 2.710188e+02 -1.556458e+02
    endloop
  endfacet
  facet normal -1.000000e+00 0.000000e+00 0.000000e+00
    outer loop
      vertex   4.948190e+02 2.710188e+02 -1.556458e+02
      vertex   4.948190e+02 2.697688e+02 -1.634808e+02
      vertex   4.948190e+02 2.691658e+02 -1.632310e+02
    endloop
  endfacet
  facet normal -1.000000e+00 0.000000e+00 0.000000e+00
    outer loop
      vertex   4.948190e+02 2.710188e+02 -1.556458e+02
      vertex   4.948190e+02 2.691658e+02 -1.632310e+02
      vertex   4.948190e+02 2.685188e+02 -1.631458e+02
    endloop
  endfacet
  facet normal -1.000000e+00 0.000000e+00 0.000000e+00
    outer loop
      vertex   4.948190e+02 2.697688e+02 -1.634808e+02
      vertex   4.948190e+02 2.727553e+02 -1.557977e+02
      vertex   4.948190e+02 2.702865e+02 -1.638780e+02
    endloop
  endfacet
  facet normal -1.000000e+00 0.000000e+00 0.000000e+00
    outer loop
      vertex   4.948190e+02 2.702865e+02 -1.638780e+02
      vertex   4.948190e+02 2.727553e+02 -1.557977e+02
      vertex   4.948190e+02 2.744390e+02 -1.562489e+02
    endloop
  endfacet
  facet normal -1.000000e+00 0.000000e+00 0.000000e+00
    outer loop
      vertex   4.948190e+02 2.702865e+02 -1.638780e+02
      vertex   4.948190e+02 2.744390e+02 -1.562489e+02
      vertex   4.948190e+02 2.706838e+02 -1.643958e+02
    endloop
  endfacet
  facet normal -1.000000e+00 0.000000e+00 0.000000e+00
    outer loop
      vertex   4.948190e+02 2.706838e+02 -1.643958e+02
      vertex   4.948190e+02 2.744390e+02 -1.562489e+02
      vertex   4.948190e+02 2.760188e+02 -1.569856e+02
    endloop
  endfacet
  facet normal -1.000000e+00 0.000000e+00 0.000000e+00
    outer loop
      vertex   4.948190e+02 2.706838e+02 -1.643958e+02
      vertex   4.948190e+02 2.760188e+02 -1.569856e+02
      vertex   4.948190e+02 2.774466e+02 -1.579854e+02
    endloop
  endfacet
  facet normal -1.000000e+00 0.000000e+00 0.000000e+00
    outer loop
      vertex   4.948190e+02 2.706838e+02 -1.643958e+02
      vertex   4.948190e+02 2.774466e+02 -1.579854e+02
      vertex   4.948190e+02 2.709336e+02 -1.649988e+02
    endloop
  endfacet
  facet normal -1.000000e+00 0.000000e+00 0.000000e+00
    outer loop
      vertex   4.948190e+02 2.709336e+02 -1.649988e+02
      vertex   4.948190e+02 2.774466e+02 -1.579854e+02
      vertex   4.948190e+02 2.786792e+02 -1.592179e+02
    endloop
  endfacet
  facet normal -1.000000e+00 0.000000e+00 0.000000e+00
    outer loop
      vertex   4.948190e+02 2.709336e+02 -1.649988e+02
      vertex   4.948190e+02 2.786792e+02 -1.592179e+02
      vertex   4.948190e+02 2.796790e+02 -1.606458e+02
    endloop
  endfacet
  facet normal -1.000000e+00 0.000000e+00 -0.000000e+00
    outer loop
      vertex   4.948190e+02 2.796790e+02 -1.606458e+02
      vertex   4.948190e+02 2.804157e+02 -1.622256e+02
      vertex   4.948190e+02 2.709336e+02 -1.649988e+02
    endloop
  endfacet
  facet normal -1.000000e+00 0.000000e+00 0.000000e+00
    outer loop
      vertex   4.948190e+02 2.709336e+02 -1.649988e+02
      vertex   4.948190e+02 2.804157e+02 -1.622256e+02
      vertex   4.948190e+02 2.710188e+02 -1.656458e+02
    endloop
  endfacet
  facet normal -1.000000e+00 0.000000e+00 0.000000e+00
    outer loop
      vertex   4.948190e+02 2.710188e+02 -1.656458e+02
      vertex   4.948190e+02 2.804157e+02 -1.622256e+02
      vertex   4.948190e+02 2.808668e+02 -1.639093e+02
    endloop
  endfacet
  facet normal -1.000000e+00 0.000000e+00 0.000000e+00
    outer loop
      vertex   4.948190e+02 2.710188e+02 -1.656458e+02
      vertex   4.948190e+02 2.808668e+02 -1.639093e+02
      vertex   4.948190e+02 2.810188e+02 -1.656458e+02
    endloop
  endfacet
  facet normal -1.000000e+00 -0.000000e+00 0.000000e+00
    outer loop
      vertex   4.948190e+02 2.810188e+02 -1.656458e+02
      vertex   4.948190e+02 2.808668e+02 -1.673823e+02
      vertex   4.948190e+02 2.710188e+02 -1.656458e+02
    endloop
  endfacet
  facet normal -1.000000e+00 0.000000e+00 0.000000e+00
    outer loop
      vertex   4.948190e+02 2.710188e+02 -1.656458e+02
      vertex   4.948190e+02 2.808668e+02 -1.673823e+02
      vertex   4.948190e+02 2.804157e+02 -1.690660e+02
    endloop
  endfacet
  facet normal -1.000000e+00 0.000000e+00 -0.000000e+00
    outer loop
      vertex   4.948190e+02 2.710188e+02 -1.656458e+02
      vertex   4.948190e+02 2.804157e+02 -1.690660e+02
      vertex   4.948190e+02 2.709336e+02 -1.662929e+02
    endloop
  endfacet
  facet normal -1.000000e+00 0.000000e+00 0.000000e+00
    outer loop
      vertex   4.948190e+02 2.709336e+02 -1.662929e+02
      vertex   4.948190e+02 2.804157e+02 -1.690660e+02
      vertex   4.948190e+02 2.796790e+02 -1.706458e+02
    endloop
  endfacet
  facet normal -1.000000e+00 0.000000e+00 0.000000e+00
    outer loop
      vertex   4.948190e+02 2.709336e+02 -1.662929e+02
      vertex   4.948190e+02 2.796790e+02 -1.706458e+02
      vertex   4.948190e+02 2.786792e+02 -1.720737e+02
    endloop
  endfacet
  facet normal -1.000000e+00 -0.000000e+00 0.000000e+00
    outer loop
      vertex   4.948190e+02 2.786792e+02 -1.720737e+02
      vertex   4.948190e+02 2.774466e+02 -1.733063e+02
      vertex   4.948190e+02 2.709336e+02 -1.662929e+02
    endloop
  endfacet
  facet normal -1.000000e+00 0.000000e+00 -0.000000e+00
    outer loop
      vertex   4.948190e+02 2.709336e+02 -1.662929e+02
      vertex   4.948190e+02 2.774466e+02 -1.733063e+02
      vertex   4.948190e+02 2.706838e+02 -1.668958e+02
    endloop
  endfacet
  facet normal -1.000000e+00 0.000000e+00 0.000000e+00
    outer loop
      vertex   4.948190e+02 2.706838e+02 -1.668958e+02
      vertex   4.948190e+02 2.774466e+02 -1.733063e+02
      vertex   4.948190e+02 2.760188e+02 -1.743061e+02
    endloop
  endfacet
  facet normal -1.000000e+00 0.000000e+00 0.000000e+00
    outer loop
      vertex   4.948190e+02 2.706838e+02 -1.668958e+02
      vertex   4.948190e+02 2.760188e+02 -1.743061e+02
      vertex   4.948190e+02 2.744390e+02 -1.750427e+02
    endloop
  endfacet
  facet normal -1.000000e+00 0.000000e+00 -0.000000e+00
    outer loop
      vertex   4.948190e+02 2.706838e+02 -1.668958e+02
      vertex   4.948190e+02 2.744390e+02 -1.750427e+02
      vertex   4.948190e+02 2.702865e+02 -1.674136e+02
    endloop
  endfacet
  facet normal -1.000000e+00 0.000000e+00 0.000000e+00
    outer loop
      vertex   4.948190e+02 2.702865e+02 -1.674136e+02
      vertex   4.948190e+02 2.744390e+02 -1.750427e+02
      vertex   4.948190e+02 2.727553e+02 -1.754939e+02
    endloop
  endfacet
  facet normal -1.000000e+00 0.000000e+00 -0.000000e+00
    outer loop
      vertex   4.948190e+02 2.702865e+02 -1.674136e+02
      vertex   4.948190e+02 2.727553e+02 -1.754939e+02
      vertex   4.948190e+02 2.697688e+02 -1.678109e+02
    endloop
  endfacet
  facet normal -1.000000e+00 0.000000e+00 0.000000e+00
    outer loop
      vertex   4.948190e+02 2.697688e+02 -1.678109e+02
      vertex   4.948190e+02 2.727553e+02 -1.754939e+02
      vertex   4.948190e+02 2.710188e+02 -1.756458e+02
    endloop
  endfacet
  facet normal -1.000000e+00 0.000000e+00 -0.000000e+00
    outer loop
      vertex   4.948190e+02 2.697688e+02 -1.678109e+02
      vertex   4.948190e+02 2.710188e+02 -1.756458e+02
      vertex   4.948190e+02 2.691658e+02 -1.680606e+02
    endloop
  endfacet
  facet normal -1.000000e+00 0.000000e+00 -0.000000e+00
    outer loop
      vertex   4.948190e+02 2.691658e+02 -1.680606e+02
      vertex   4.948190e+02 2.710188e+02 -1.756458e+02
      vertex   4.948190e+02 2.685188e+02 -1.681458e+02
    endloop
  endfacet
  facet normal -1.000000e+00 -0.000000e+00 -0.000000e+00
    outer loop
      vertex   4.948190e+02 2.685188e+02 -1.681458e+02
      vertex   4.948190e+02 2.710188e+02 -1.756458e+02
      vertex   4.948190e+02 2.678717e+02 -1.680606e+02
    endloop
  endfacet
  facet normal -1.000000e+00 0.000000e+00 -0.000000e+00
    outer loop
      vertex   4.948190e+02 2.678717e+02 -1.680606e+02
      vertex   4.948190e+02 2.710188e+02 -1.756458e+02
      vertex   4.948190e+02 2.614787e+02 -1.756458e+02
    endloop
  endfacet
  facet normal -1.000000e+00 -0.000000e+00 0.000000e+00
    outer loop
      vertex   4.948190e+02 2.678717e+02 -1.680606e+02
      vertex   4.948190e+02 2.614787e+02 -1.756458e+02
      vertex   4.948190e+02 2.672688e+02 -1.678109e+02
    endloop
  endfacet
  facet normal -1.000000e+00 -0.000000e+00 0.000000e+00
    outer loop
      vertex   4.948190e+02 2.672688e+02 -1.678109e+02
      vertex   4.948190e+02 2.614787e+02 -1.756458e+02
      vertex   4.948190e+02 2.667510e+02 -1.674136e+02
    endloop
  endfacet
  facet normal -1.000000e+00 -0.000000e+00 0.000000e+00
    outer loop
      vertex   4.948190e+02 2.667510e+02 -1.674136e+02
      vertex   4.948190e+02 2.614787e+02 -1.756458e+02
      vertex   4.948190e+02 2.663537e+02 -1.668958e+02
    endloop
  endfacet
  facet normal -1.000000e+00 -0.000000e+00 0.000000e+00
    outer loop
      vertex   4.948190e+02 2.663537e+02 -1.668958e+02
      vertex   4.948190e+02 2.614787e+02 -1.756458e+02
      vertex   4.948190e+02 2.661040e+02 -1.662929e+02
    endloop
  endfacet
  facet normal -1.000000e+00 0.000000e+00 0.000000e+00
    outer loop
      vertex   4.948190e+02 2.661040e+02 -1.662929e+02
      vertex   4.948190e+02 2.614787e+02 -1.756458e+02
      vertex   4.948190e+02 2.604078e+02 -1.757821e+02
    endloop
  endfacet
  facet normal -1.000000e+00 -0.000000e+00 0.000000e+00
    outer loop
      vertex   4.948190e+02 2.661040e+02 -1.662929e+02
      vertex   4.948190e+02 2.604078e+02 -1.757821e+02
      vertex   4.948190e+02 2.660188e+02 -1.656458e+02
    endloop
  endfacet
  facet normal -1.000000e+00 0.000000e+00 0.000000e+00
    outer loop
      vertex   4.948190e+02 2.660188e+02 -1.656458e+02
      vertex   4.948190e+02 2.604078e+02 -1.757821e+02
      vertex   4.948190e+02 2.594100e+02 -1.761817e+02
    endloop
  endfacet
  facet normal -1.000000e+00 -0.000000e+00 0.000000e+00
    outer loop
      vertex   4.948190e+02 2.660188e+02 -1.656458e+02
      vertex   4.948190e+02 2.594100e+02 -1.761817e+02
      vertex   4.948190e+02 2.594100e+02 -1.551099e+02
    endloop
  endfacet
  facet normal -1.000000e+00 -0.000000e+00 -0.000000e+00
    outer loop
      vertex   4.948190e+02 2.594100e+02 -1.551099e+02
      vertex   4.948190e+02 2.594100e+02 -1.761817e+02
      vertex   4.948190e+02 2.585530e+02 -1.544742e+02
    endloop
  endfacet
  facet normal -1.000000e+00 0.000000e+00 0.000000e+00
    outer loop
      vertex   4.948190e+02 2.585530e+02 -1.544742e+02
      vertex   4.948190e+02 2.594100e+02 -1.761817e+02
      vertex   4.948190e+02 2.585530e+02 -1.768174e+02
    endloop
  endfacet
  facet normal -1.000000e+00 -0.000000e+00 -0.000000e+00
    outer loop
      vertex   4.948190e+02 2.585530e+02 -1.544742e+02
      vertex   4.948190e+02 2.585530e+02 -1.768174e+02
      vertex   4.948190e+02 2.578955e+02 -1.536458e+02
    endloop
  endfacet
  facet normal -1.000000e+00 0.000000e+00 0.000000e+00
    outer loop
      vertex   4.948190e+02 2.578955e+02 -1.536458e+02
      vertex   4.948190e+02 2.585530e+02 -1.768174e+02
      vertex   4.948190e+02 2.578955e+02 -1.776458e+02
    endloop
  endfacet
  facet normal -1.000000e+00 -0.000000e+00 -0.000000e+00
    outer loop
      vertex   4.948190e+02 2.578955e+02 -1.536458e+02
      vertex   4.948190e+02 2.578955e+02 -1.776458e+02
      vertex   4.948190e+02 2.574822e+02 -1.526811e+02
    endloop
  endfacet
  facet normal -1.000000e+00 0.000000e+00 0.000000e+00
    outer loop
      vertex   4.948190e+02 2.574822e+02 -1.526811e+02
      vertex   4.948190e+02 2.578955e+02 -1.776458e+02
      vertex   4.948190e+02 2.574822e+02 -1.786105e+02
    endloop
  endfacet
  facet normal -1.000000e+00 -0.000000e+00 -0.000000e+00
    outer loop
      vertex   4.948190e+02 2.574822e+02 -1.526811e+02
      vertex   4.948190e+02 2.574822e+02 -1.786105e+02
      vertex   4.948190e+02 2.573412e+02 -1.516458e+02
    endloop
  endfacet
  facet normal -1.000000e+00 0.000000e+00 0.000000e+00
    outer loop
      vertex   4.948190e+02 2.573412e+02 -1.516458e+02
      vertex   4.948190e+02 2.574822e+02 -1.786105e+02
      vertex   4.948190e+02 2.573412e+02 -1.796458e+02
    endloop
  endfacet
  facet normal -1.000000e+00 0.000000e+00 0.000000e+00
    outer loop
      vertex   4.948190e+02 2.594100e+02 -1.551099e+02
      vertex   4.948190e+02 2.604078e+02 -1.555095e+02
      vertex   4.948190e+02 2.660188e+02 -1.656458e+02
    endloop
  endfacet
  facet normal -1.000000e+00 0.000000e+00 0.000000e+00
    outer loop
      vertex   4.948190e+02 2.660188e+02 -1.656458e+02
      vertex   4.948190e+02 2.604078e+02 -1.555095e+02
      vertex   4.948190e+02 2.661040e+02 -1.649988e+02
    endloop
  endfacet
  facet normal -1.000000e+00 0.000000e+00 0.000000e+00
    outer loop
      vertex   4.948190e+02 2.661040e+02 -1.649988e+02
      vertex   4.948190e+02 2.604078e+02 -1.555095e+02
      vertex   4.948190e+02 2.614787e+02 -1.556458e+02
    endloop
  endfacet
  facet normal -1.000000e+00 0.000000e+00 0.000000e+00
    outer loop
      vertex   4.948190e+02 2.661040e+02 -1.649988e+02
      vertex   4.948190e+02 2.614787e+02 -1.556458e+02
      vertex   4.948190e+02 2.663537e+02 -1.643958e+02
    endloop
  endfacet
  facet normal -1.000000e+00 0.000000e+00 0.000000e+00
    outer loop
      vertex   4.948190e+02 2.663537e+02 -1.643958e+02
      vertex   4.948190e+02 2.614787e+02 -1.556458e+02
      vertex   4.948190e+02 2.667510e+02 -1.638780e+02
    endloop
  endfacet
  facet normal -1.000000e+00 0.000000e+00 0.000000e+00
    outer loop
      vertex   4.948190e+02 2.667510e+02 -1.638780e+02
      vertex   4.948190e+02 2.614787e+02 -1.556458e+02
      vertex   4.948190e+02 2.672688e+02 -1.634808e+02
    endloop
  endfacet
  facet normal -1.000000e+00 0.000000e+00 0.000000e+00
    outer loop
      vertex   4.948190e+02 2.672688e+02 -1.634808e+02
      vertex   4.948190e+02 2.614787e+02 -1.556458e+02
      vertex   4.948190e+02 2.678717e+02 -1.632310e+02
    endloop
  endfacet
  facet normal -1.000000e+00 0.000000e+00 0.000000e+00
    outer loop
      vertex   4.948190e+02 2.678717e+02 -1.632310e+02
      vertex   4.948190e+02 2.614787e+02 -1.556458e+02
      vertex   4.948190e+02 2.710188e+02 -1.556458e+02
    endloop
  endfacet
  facet normal -1.000000e+00 0.000000e+00 0.000000e+00
    outer loop
      vertex   4.948190e+02 2.678717e+02 -1.632310e+02
      vertex   4.948190e+02 2.710188e+02 -1.556458e+02
      vertex   4.948190e+02 2.685188e+02 -1.631458e+02
    endloop
  endfacet
  facet normal 2.535035e-01 9.584878e-01 -1.305262e-01
    outer loop
      vertex   4.998190e+02 2.560188e+02 -1.796458e+02
      vertex   4.948190e+02 2.573412e+02 -1.796458e+02
      vertex   4.998190e+02 2.561598e+02 -1.786105e+02
    endloop
  endfacet
  facet normal 2.535035e-01 9.584878e-01 -1.305262e-01
    outer loop
      vertex   4.998190e+02 2.561598e+02 -1.786105e+02
      vertex   4.948190e+02 2.573412e+02 -1.796458e+02
      vertex   4.948190e+02 2.574822e+02 -1.786105e+02
    endloop
  endfacet
  facet normal 2.362277e-01 8.931684e-01 -3.826834e-01
    outer loop
      vertex   4.998190e+02 2.561598e+02 -1.786105e+02
      vertex   4.948190e+02 2.574822e+02 -1.786105e+02
      vertex   4.998190e+02 2.565731e+02 -1.776458e+02
    endloop
  endfacet
  facet normal 2.362277e-01 8.931684e-01 -3.826834e-01
    outer loop
      vertex   4.998190e+02 2.565731e+02 -1.776458e+02
      vertex   4.948190e+02 2.574822e+02 -1.786105e+02
      vertex   4.948190e+02 2.578955e+02 -1.776458e+02
    endloop
  endfacet
  facet normal 2.028533e-01 7.669811e-01 -6.087614e-01
    outer loop
      vertex   4.998190e+02 2.565731e+02 -1.776458e+02
      vertex   4.948190e+02 2.578955e+02 -1.776458e+02
      vertex   4.998190e+02 2.572306e+02 -1.768174e+02
    endloop
  endfacet
  facet normal 2.028533e-01 7.669811e-01 -6.087614e-01
    outer loop
      vertex   4.998190e+02 2.572306e+02 -1.768174e+02
      vertex   4.948190e+02 2.578955e+02 -1.776458e+02
      vertex   4.948190e+02 2.585530e+02 -1.768174e+02
    endloop
  endfacet
  facet normal 1.556548e-01 5.885253e-01 -7.933533e-01
    outer loop
      vertex   4.998190e+02 2.572306e+02 -1.768174e+02
      vertex   4.948190e+02 2.585530e+02 -1.768174e+02
      vertex   4.998190e+02 2.580875e+02 -1.761817e+02
    endloop
  endfacet
  facet normal 1.556548e-01 5.885253e-01 -7.933533e-01
    outer loop
      vertex   4.998190e+02 2.580875e+02 -1.761817e+02
      vertex   4.948190e+02 2.585530e+02 -1.768174e+02
      vertex   4.948190e+02 2.594100e+02 -1.761817e+02
    endloop
  endfacet
  facet normal 9.784871e-02 3.699625e-01 -9.238795e-01
    outer loop
      vertex   4.998190e+02 2.580875e+02 -1.761817e+02
      vertex   4.948190e+02 2.594100e+02 -1.761817e+02
      vertex   4.998190e+02 2.590854e+02 -1.757821e+02
    endloop
  endfacet
  facet normal 9.784871e-02 3.699625e-01 -9.238795e-01
    outer loop
      vertex   4.998190e+02 2.590854e+02 -1.757821e+02
      vertex   4.948190e+02 2.594100e+02 -1.761817e+02
      vertex   4.948190e+02 2.604078e+02 -1.757821e+02
    endloop
  endfacet
  facet normal 3.337437e-02 1.261873e-01 -9.914449e-01
    outer loop
      vertex   4.998190e+02 2.590854e+02 -1.757821e+02
      vertex   4.948190e+02 2.604078e+02 -1.757821e+02
      vertex   4.998190e+02 2.601563e+02 -1.756458e+02
    endloop
  endfacet
  facet normal 3.337437e-02 1.261873e-01 -9.914449e-01
    outer loop
      vertex   4.998190e+02 2.601563e+02 -1.756458e+02
      vertex   4.948190e+02 2.604078e+02 -1.757821e+02
      vertex   4.948190e+02 2.614787e+02 -1.756458e+02
    endloop
  endfacet
  facet normal 0.000000e+00 0.000000e+00 -1.000000e+00
    outer loop
      vertex   4.948190e+02 2.710188e+02 -1.756458e+02
      vertex   4.998190e+02 2.710188e+02 -1.756458e+02
      vertex   4.948190e+02 2.614787e+02 -1.756458e+02
    endloop
  endfacet
  facet normal 0.000000e+00 0.000000e+00 -1.000000e+00
    outer loop
      vertex   4.948190e+02 2.614787e+02 -1.756458e+02
      vertex   4.998190e+02 2.710188e+02 -1.756458e+02
      vertex   4.998190e+02 2.601563e+02 -1.756458e+02
    endloop
  endfacet
  facet normal 3.337437e-02 1.261873e-01 9.914449e-01
    outer loop
      vertex   4.948190e+02 2.614787e+02 -1.556458e+02
      vertex   4.948190e+02 2.604078e+02 -1.555095e+02
      vertex   4.998190e+02 2.601563e+02 -1.556458e+02
    endloop
  endfacet
  facet normal 3.337437e-02 1.261873e-01 9.914449e-01
    outer loop
      vertex   4.998190e+02 2.601563e+02 -1.556458e+02
      vertex   4.948190e+02 2.604078e+02 -1.555095e+02
      vertex   4.998190e+02 2.590854e+02 -1.555095e+02
    endloop
  endfacet
  facet normal 9.784871e-02 3.699625e-01 9.238795e-01
    outer loop
      vertex   4.998190e+02 2.590854e+02 -1.555095e+02
      vertex   4.948190e+02 2.604078e+02 -1.555095e+02
      vertex   4.948190e+02 2.594100e+02 -1.551099e+02
    endloop
  endfacet
  facet normal 9.784871e-02 3.699625e-01 9.238795e-01
    outer loop
      vertex   4.998190e+02 2.590854e+02 -1.555095e+02
      vertex   4.948190e+02 2.594100e+02 -1.551099e+02
      vertex   4.998190e+02 2.580875e+02 -1.551099e+02
    endloop
  endfacet
  facet normal 1.556548e-01 5.885253e-01 7.933533e-01
    outer loop
      vertex   4.998190e+02 2.580875e+02 -1.551099e+02
      vertex   4.948190e+02 2.594100e+02 -1.551099e+02
      vertex   4.948190e+02 2.585530e+02 -1.544742e+02
    endloop
  endfacet
  facet normal 1.556548e-01 5.885253e-01 7.933533e-01
    outer loop
      vertex   4.998190e+02 2.580875e+02 -1.551099e+02
      vertex   4.948190e+02 2.585530e+02 -1.544742e+02
      vertex   4.998190e+02 2.572306e+02 -1.544742e+02
    endloop
  endfacet
  facet normal 2.028533e-01 7.669811e-01 6.087614e-01
    outer loop
      vertex   4.998190e+02 2.572306e+02 -1.544742e+02
      vertex   4.948190e+02 2.585530e+02 -1.544742e+02
      vertex   4.948190e+02 2.578955e+02 -1.536458e+02
    endloop
  endfacet
  facet normal 2.028533e-01 7.669811e-01 6.087614e-01
    outer loop
      vertex   4.998190e+02 2.572306e+02 -1.544742e+02
      vertex   4.948190e+02 2.578955e+02 -1.536458e+02
      vertex   4.998190e+02 2.565731e+02 -1.536458e+02
    endloop
  endfacet
  facet normal 2.362277e-01 8.931684e-01 3.826834e-01
    outer loop
      vertex   4.998190e+02 2.565731e+02 -1.536458e+02
      vertex   4.948190e+02 2.578955e+02 -1.536458e+02
      vertex   4.948190e+02 2.574822e+02 -1.526811e+02
    endloop
  endfacet
  facet normal 2.362277e-01 8.931684e-01 3.826834e-01
    outer loop
      vertex   4.998190e+02 2.565731e+02 -1.536458e+02
      vertex   4.948190e+02 2.574822e+02 -1.526811e+02
      vertex   4.998190e+02 2.561598e+02 -1.526811e+02
    endloop
  endfacet
  facet normal 2.535035e-01 9.584878e-01 1.305262e-01
    outer loop
      vertex   4.998190e+02 2.561598e+02 -1.526811e+02
      vertex   4.948190e+02 2.574822e+02 -1.526811e+02
      vertex   4.948190e+02 2.573412e+02 -1.516458e+02
    endloop
  endfacet
  facet normal 2.535035e-01 9.584878e-01 1.305262e-01
    outer loop
      vertex   4.998190e+02 2.561598e+02 -1.526811e+02
      vertex   4.948190e+02 2.573412e+02 -1.516458e+02
      vertex   4.998190e+02 2.560188e+02 -1.516458e+02
    endloop
  endfacet
  facet normal 2.556910e-01 9.667586e-01 8.062602e-14
    outer loop
      vertex   4.998190e+02 2.560188e+02 -1.796458e+02
      vertex   4.998190e+02 2.560188e+02 -1.803274e+02
      vertex   4.948190e+02 2.573412e+02 -1.796458e+02
    endloop
  endfacet
  facet normal 2.556910e-01 9.667586e-01 -2.471837e-14
    outer loop
      vertex   4.948190e+02 2.573412e+02 -1.796458e+02
      vertex   4.998190e+02 2.560188e+02 -1.803274e+02
      vertex   4.378454e+02 2.724097e+02 -1.798828e+02
    endloop
  endfacet
  facet normal 2.556910e-01 9.667586e-01 -0.000000e+00
    outer loop
      vertex   4.948190e+02 2.573412e+02 -1.796458e+02
      vertex   4.378454e+02 2.724097e+02 -1.798828e+02
      vertex   4.948190e+02 2.573412e+02 -1.516458e+02
    endloop
  endfacet
  facet normal 2.556910e-01 9.667586e-01 -1.120641e-15
    outer loop
      vertex   4.948190e+02 2.573412e+02 -1.516458e+02
      vertex   4.378454e+02 2.724097e+02 -1.798828e+02
      vertex   4.380422e+02 2.723577e+02 -1.505210e+02
    endloop
  endfacet
  facet normal 2.556910e-01 9.667586e-01 1.859803e-14
    outer loop
      vertex   4.948190e+02 2.573412e+02 -1.516458e+02
      vertex   4.380422e+02 2.723577e+02 -1.505210e+02
      vertex   4.998190e+02 2.560188e+02 -1.509642e+02
    endloop
  endfacet
  facet normal 2.556910e-01 9.667586e-01 -8.062602e-14
    outer loop
      vertex   4.998190e+02 2.560188e+02 -1.509642e+02
      vertex   4.998190e+02 2.560188e+02 -1.516458e+02
      vertex   4.948190e+02 2.573412e+02 -1.516458e+02
    endloop
  endfacet
  facet normal 0.000000e+00 -1.305262e-01 -9.914449e-01
    outer loop
      vertex   4.948190e+02 2.691658e+02 -1.632310e+02
      vertex   4.998190e+02 2.691658e+02 -1.632310e+02
      vertex   4.948190e+02 2.685188e+02 -1.631458e+02
    endloop
  endfacet
  facet normal 0.000000e+00 -1.305262e-01 -9.914449e-01
    outer loop
      vertex   4.948190e+02 2.685188e+02 -1.631458e+02
      vertex   4.998190e+02 2.691658e+02 -1.632310e+02
      vertex   4.998190e+02 2.685188e+02 -1.631458e+02
    endloop
  endfacet
  facet normal 0.000000e+00 1.305262e-01 -9.914449e-01
    outer loop
      vertex   4.948190e+02 2.685188e+02 -1.631458e+02
      vertex   4.998190e+02 2.685188e+02 -1.631458e+02
      vertex   4.948190e+02 2.678717e+02 -1.632310e+02
    endloop
  endfacet
  facet normal 0.000000e+00 1.305262e-01 -9.914449e-01
    outer loop
      vertex   4.948190e+02 2.678717e+02 -1.632310e+02
      vertex   4.998190e+02 2.685188e+02 -1.631458e+02
      vertex   4.998190e+02 2.678717e+02 -1.632310e+02
    endloop
  endfacet
  facet normal 0.000000e+00 3.826834e-01 -9.238795e-01
    outer loop
      vertex   4.948190e+02 2.678717e+02 -1.632310e+02
      vertex   4.998190e+02 2.678717e+02 -1.632310e+02
      vertex   4.948190e+02 2.672688e+02 -1.634808e+02
    endloop
  endfacet
  facet normal 0.000000e+00 3.826834e-01 -9.238795e-01
    outer loop
      vertex   4.948190e+02 2.672688e+02 -1.634808e+02
      vertex   4.998190e+02 2.678717e+02 -1.632310e+02
      vertex   4.998190e+02 2.672688e+02 -1.634808e+02
    endloop
  endfacet
  facet normal 0.000000e+00 6.087614e-01 -7.933533e-01
    outer loop
      vertex   4.948190e+02 2.672688e+02 -1.634808e+02
      vertex   4.998190e+02 2.672688e+02 -1.634808e+02
      vertex   4.948190e+02 2.667510e+02 -1.638780e+02
    endloop
  endfacet
  facet normal 0.000000e+00 6.087614e-01 -7.933533e-01
    outer loop
      vertex   4.948190e+02 2.667510e+02 -1.638780e+02
      vertex   4.998190e+02 2.672688e+02 -1.634808e+02
      vertex   4.998190e+02 2.667510e+02 -1.638780e+02
    endloop
  endfacet
  facet normal 0.000000e+00 7.933533e-01 -6.087614e-01
    outer loop
      vertex   4.948190e+02 2.667510e+02 -1.638780e+02
      vertex   4.998190e+02 2.667510e+02 -1.638780e+02
      vertex   4.948190e+02 2.663537e+02 -1.643958e+02
    endloop
  endfacet
  facet normal 0.000000e+00 7.933533e-01 -6.087614e-01
    outer loop
      vertex   4.948190e+02 2.663537e+02 -1.643958e+02
      vertex   4.998190e+02 2.667510e+02 -1.638780e+02
      vertex   4.998190e+02 2.663537e+02 -1.643958e+02
    endloop
  endfacet
  facet normal 0.000000e+00 9.238795e-01 -3.826834e-01
    outer loop
      vertex   4.948190e+02 2.663537e+02 -1.643958e+02
      vertex   4.998190e+02 2.663537e+02 -1.643958e+02
      vertex   4.948190e+02 2.661040e+02 -1.649988e+02
    endloop
  endfacet
  facet normal 0.000000e+00 9.238795e-01 -3.826834e-01
    outer loop
      vertex   4.948190e+02 2.661040e+02 -1.649988e+02
      vertex   4.998190e+02 2.663537e+02 -1.643958e+02
      vertex   4.998190e+02 2.661040e+02 -1.649988e+02
    endloop
  endfacet
  facet normal 0.000000e+00 9.914449e-01 -1.305262e-01
    outer loop
      vertex   4.948190e+02 2.661040e+02 -1.649988e+02
      vertex   4.998190e+02 2.661040e+02 -1.649988e+02
      vertex   4.948190e+02 2.660188e+02 -1.656458e+02
    endloop
  endfacet
  facet normal 0.000000e+00 9.914449e-01 -1.305262e-01
    outer loop
      vertex   4.948190e+02 2.660188e+02 -1.656458e+02
      vertex   4.998190e+02 2.661040e+02 -1.649988e+02
      vertex   4.998190e+02 2.660188e+02 -1.656458e+02
    endloop
  endfacet
  facet normal -0.000000e+00 9.914449e-01 1.305262e-01
    outer loop
      vertex   4.948190e+02 2.660188e+02 -1.656458e+02
      vertex   4.998190e+02 2.660188e+02 -1.656458e+02
      vertex   4.948190e+02 2.661040e+02 -1.662929e+02
    endloop
  endfacet
  facet normal -0.000000e+00 9.914449e-01 1.305262e-01
    outer loop
      vertex   4.948190e+02 2.661040e+02 -1.662929e+02
      vertex   4.998190e+02 2.660188e+02 -1.656458e+02
      vertex   4.998190e+02 2.661040e+02 -1.662929e+02
    endloop
  endfacet
  facet normal -0.000000e+00 9.238795e-01 3.826834e-01
    outer loop
      vertex   4.948190e+02 2.661040e+02 -1.662929e+02
      vertex   4.998190e+02 2.661040e+02 -1.662929e+02
      vertex   4.948190e+02 2.663537e+02 -1.668958e+02
    endloop
  endfacet
  facet normal -0.000000e+00 9.238795e-01 3.826834e-01
    outer loop
      vertex   4.948190e+02 2.663537e+02 -1.668958e+02
      vertex   4.998190e+02 2.661040e+02 -1.662929e+02
      vertex   4.998190e+02 2.663537e+02 -1.668958e+02
    endloop
  endfacet
  facet normal -0.000000e+00 7.933533e-01 6.087614e-01
    outer loop
      vertex   4.948190e+02 2.663537e+02 -1.668958e+02
      vertex   4.998190e+02 2.663537e+02 -1.668958e+02
      vertex   4.948190e+02 2.667510e+02 -1.674136e+02
    endloop
  endfacet
  facet normal -0.000000e+00 7.933533e-01 6.087614e-01
    outer loop
      vertex   4.948190e+02 2.667510e+02 -1.674136e+02
      vertex   4.998190e+02 2.663537e+02 -1.668958e+02
      vertex   4.998190e+02 2.667510e+02 -1.674136e+02
    endloop
  endfacet
  facet normal -0.000000e+00 6.087614e-01 7.933533e-01
    outer loop
      vertex   4.948190e+02 2.667510e+02 -1.674136e+02
      vertex   4.998190e+02 2.667510e+02 -1.674136e+02
      vertex   4.948190e+02 2.672688e+02 -1.678109e+02
    endloop
  endfacet
  facet normal -0.000000e+00 6.087614e-01 7.933533e-01
    outer loop
      vertex   4.948190e+02 2.672688e+02 -1.678109e+02
      vertex   4.998190e+02 2.667510e+02 -1.674136e+02
      vertex   4.998190e+02 2.672688e+02 -1.678109e+02
    endloop
  endfacet
  facet normal -0.000000e+00 3.826834e-01 9.238795e-01
    outer loop
      vertex   4.948190e+02 2.672688e+02 -1.678109e+02
      vertex   4.998190e+02 2.672688e+02 -1.678109e+02
      vertex   4.948190e+02 2.678717e+02 -1.680606e+02
    endloop
  endfacet
  facet normal -0.000000e+00 3.826834e-01 9.238795e-01
    outer loop
      vertex   4.948190e+02 2.678717e+02 -1.680606e+02
      vertex   4.998190e+02 2.672688e+02 -1.678109e+02
      vertex   4.998190e+02 2.678717e+02 -1.680606e+02
    endloop
  endfacet
  facet normal -0.000000e+00 1.305262e-01 9.914449e-01
    outer loop
      vertex   4.948190e+02 2.678717e+02 -1.680606e+02
      vertex   4.998190e+02 2.678717e+02 -1.680606e+02
      vertex   4.948190e+02 2.685188e+02 -1.681458e+02
    endloop
  endfacet
  facet normal -0.000000e+00 1.305262e-01 9.914449e-01
    outer loop
      vertex   4.948190e+02 2.685188e+02 -1.681458e+02
      vertex   4.998190e+02 2.678717e+02 -1.680606e+02
      vertex   4.998190e+02 2.685188e+02 -1.681458e+02
    endloop
  endfacet
  facet normal 0.000000e+00 -1.305262e-01 9.914449e-01
    outer loop
      vertex   4.948190e+02 2.685188e+02 -1.681458e+02
      vertex   4.998190e+02 2.685188e+02 -1.681458e+02
      vertex   4.948190e+02 2.691658e+02 -1.680606e+02
    endloop
  endfacet
  facet normal 0.000000e+00 -1.305262e-01 9.914449e-01
    outer loop
      vertex   4.948190e+02 2.691658e+02 -1.680606e+02
      vertex   4.998190e+02 2.685188e+02 -1.681458e+02
      vertex   4.998190e+02 2.691658e+02 -1.680606e+02
    endloop
  endfacet
  facet normal 0.000000e+00 -3.826834e-01 9.238795e-01
    outer loop
      vertex   4.948190e+02 2.691658e+02 -1.680606e+02
      vertex   4.998190e+02 2.691658e+02 -1.680606e+02
      vertex   4.948190e+02 2.697688e+02 -1.678109e+02
    endloop
  endfacet
  facet normal 0.000000e+00 -3.826834e-01 9.238795e-01
    outer loop
      vertex   4.948190e+02 2.697688e+02 -1.678109e+02
      vertex   4.998190e+02 2.691658e+02 -1.680606e+02
      vertex   4.998190e+02 2.697688e+02 -1.678109e+02
    endloop
  endfacet
  facet normal 0.000000e+00 -6.087614e-01 7.933533e-01
    outer loop
      vertex   4.948190e+02 2.697688e+02 -1.678109e+02
      vertex   4.998190e+02 2.697688e+02 -1.678109e+02
      vertex   4.948190e+02 2.702865e+02 -1.674136e+02
    endloop
  endfacet
  facet normal 0.000000e+00 -6.087614e-01 7.933533e-01
    outer loop
      vertex   4.948190e+02 2.702865e+02 -1.674136e+02
      vertex   4.998190e+02 2.697688e+02 -1.678109e+02
      vertex   4.998190e+02 2.702865e+02 -1.674136e+02
    endloop
  endfacet
  facet normal 0.000000e+00 -7.933533e-01 6.087614e-01
    outer loop
      vertex   4.948190e+02 2.702865e+02 -1.674136e+02
      vertex   4.998190e+02 2.702865e+02 -1.674136e+02
      vertex   4.948190e+02 2.706838e+02 -1.668958e+02
    endloop
  endfacet
  facet normal 0.000000e+00 -7.933533e-01 6.087614e-01
    outer loop
      vertex   4.948190e+02 2.706838e+02 -1.668958e+02
      vertex   4.998190e+02 2.702865e+02 -1.674136e+02
      vertex   4.998190e+02 2.706838e+02 -1.668958e+02
    endloop
  endfacet
  facet normal 0.000000e+00 -9.238795e-01 3.826834e-01
    outer loop
      vertex   4.948190e+02 2.706838e+02 -1.668958e+02
      vertex   4.998190e+02 2.706838e+02 -1.668958e+02
      vertex   4.948190e+02 2.709336e+02 -1.662929e+02
    endloop
  endfacet
  facet normal 0.000000e+00 -9.238795e-01 3.826834e-01
    outer loop
      vertex   4.948190e+02 2.709336e+02 -1.662929e+02
      vertex   4.998190e+02 2.706838e+02 -1.668958e+02
      vertex   4.998190e+02 2.709336e+02 -1.662929e+02
    endloop
  endfacet
  facet normal 0.000000e+00 -9.914449e-01 1.305262e-01
    outer loop
      vertex   4.948190e+02 2.709336e+02 -1.662929e+02
      vertex   4.998190e+02 2.709336e+02 -1.662929e+02
      vertex   4.948190e+02 2.710188e+02 -1.656458e+02
    endloop
  endfacet
  facet normal 0.000000e+00 -9.914449e-01 1.305262e-01
    outer loop
      vertex   4.948190e+02 2.710188e+02 -1.656458e+02
      vertex   4.998190e+02 2.709336e+02 -1.662929e+02
      vertex   4.998190e+02 2.710188e+02 -1.656458e+02
    endloop
  endfacet
  facet normal 0.000000e+00 -9.914449e-01 -1.305262e-01
    outer loop
      vertex   4.948190e+02 2.710188e+02 -1.656458e+02
      vertex   4.998190e+02 2.710188e+02 -1.656458e+02
      vertex   4.948190e+02 2.709336e+02 -1.649988e+02
    endloop
  endfacet
  facet normal 0.000000e+00 -9.914449e-01 -1.305262e-01
    outer loop
      vertex   4.948190e+02 2.709336e+02 -1.649988e+02
      vertex   4.998190e+02 2.710188e+02 -1.656458e+02
      vertex   4.998190e+02 2.709336e+02 -1.649988e+02
    endloop
  endfacet
  facet normal 0.000000e+00 -9.238795e-01 -3.826834e-01
    outer loop
      vertex   4.948190e+02 2.709336e+02 -1.649988e+02
      vertex   4.998190e+02 2.709336e+02 -1.649988e+02
      vertex   4.948190e+02 2.706838e+02 -1.643958e+02
    endloop
  endfacet
  facet normal 0.000000e+00 -9.238795e-01 -3.826834e-01
    outer loop
      vertex   4.948190e+02 2.706838e+02 -1.643958e+02
      vertex   4.998190e+02 2.709336e+02 -1.649988e+02
      vertex   4.998190e+02 2.706838e+02 -1.643958e+02
    endloop
  endfacet
  facet normal 0.000000e+00 -7.933533e-01 -6.087614e-01
    outer loop
      vertex   4.948190e+02 2.706838e+02 -1.643958e+02
      vertex   4.998190e+02 2.706838e+02 -1.643958e+02
      vertex   4.948190e+02 2.702865e+02 -1.638780e+02
    endloop
  endfacet
  facet normal 0.000000e+00 -7.933533e-01 -6.087614e-01
    outer loop
      vertex   4.948190e+02 2.702865e+02 -1.638780e+02
      vertex   4.998190e+02 2.706838e+02 -1.643958e+02
      vertex   4.998190e+02 2.702865e+02 -1.638780e+02
    endloop
  endfacet
  facet normal 0.000000e+00 -6.087614e-01 -7.933533e-01
    outer loop
      vertex   4.948190e+02 2.702865e+02 -1.638780e+02
      vertex   4.998190e+02 2.702865e+02 -1.638780e+02
      vertex   4.948190e+02 2.697688e+02 -1.634808e+02
    endloop
  endfacet
  facet normal 0.000000e+00 -6.087614e-01 -7.933533e-01
    outer loop
      vertex   4.948190e+02 2.697688e+02 -1.634808e+02
      vertex   4.998190e+02 2.702865e+02 -1.638780e+02
      vertex   4.998190e+02 2.697688e+02 -1.634808e+02
    endloop
  endfacet
  facet normal 0.000000e+00 -3.826834e-01 -9.238795e-01
    outer loop
      vertex   4.948190e+02 2.697688e+02 -1.634808e+02
      vertex   4.998190e+02 2.697688e+02 -1.634808e+02
      vertex   4.948190e+02 2.691658e+02 -1.632310e+02
    endloop
  endfacet
  facet normal 0.000000e+00 -3.826834e-01 -9.238795e-01
    outer loop
      vertex   4.948190e+02 2.691658e+02 -1.632310e+02
      vertex   4.998190e+02 2.697688e+02 -1.634808e+02
      vertex   4.998190e+02 2.691658e+02 -1.632310e+02
    endloop
  endfacet
  facet normal -9.667353e-01 2.556849e-01 6.935369e-03
    outer loop
      vertex   4.563056e+02 3.414109e+02 -1.505210e+02
      vertex   4.570928e+02 3.443059e+02 -1.475211e+02
      vertex   4.576474e+02 3.464842e+02 -1.505210e+02
    endloop
  endfacet
  facet normal -9.667353e-01 2.556849e-01 6.935369e-03
    outer loop
      vertex   4.576474e+02 3.464842e+02 -1.505210e+02
      vertex   4.570928e+02 3.443059e+02 -1.475211e+02
      vertex   4.584346e+02 3.493792e+02 -1.475211e+02
    endloop
  endfacet
  facet normal -9.667353e-01 2.556849e-01 6.935369e-03
    outer loop
      vertex   4.576474e+02 3.464842e+02 -1.505210e+02
      vertex   4.584346e+02 3.493792e+02 -1.475211e+02
      vertex   4.574506e+02 3.465363e+02 -1.798828e+02
    endloop
  endfacet
  facet normal -9.667353e-01 2.556849e-01 6.935369e-03
    outer loop
      vertex   4.574506e+02 3.465363e+02 -1.798828e+02
      vertex   4.584346e+02 3.493792e+02 -1.475211e+02
      vertex   4.581975e+02 3.494419e+02 -1.828827e+02
    endloop
  endfacet
  facet normal -9.667353e-01 2.556849e-01 6.935369e-03
    outer loop
      vertex   4.574506e+02 3.465363e+02 -1.798828e+02
      vertex   4.581975e+02 3.494419e+02 -1.828827e+02
      vertex   4.370582e+02 2.695148e+02 -1.828827e+02
    endloop
  endfacet
  facet normal -9.667353e-01 2.556849e-01 6.935369e-03
    outer loop
      vertex   4.563056e+02 3.414109e+02 -1.505210e+02
      vertex   4.574960e+02 3.410961e+02 2.700674e+01
      vertex   4.570928e+02 3.443059e+02 -1.475211e+02
    endloop
  endfacet
  facet normal -9.667353e-01 2.556849e-01 6.935369e-03
    outer loop
      vertex   4.570928e+02 3.443059e+02 -1.475211e+02
      vertex   4.574960e+02 3.410961e+02 2.700674e+01
      vertex   4.582798e+02 3.439920e+02 2.950118e+01
    endloop
  endfacet
  facet normal -9.667353e-01 2.556849e-01 6.935369e-03
    outer loop
      vertex   4.582798e+02 3.439920e+02 2.950118e+01
      vertex   4.574960e+02 3.410961e+02 2.700674e+01
      vertex   4.337867e+02 2.514474e+02 2.717683e+01
    endloop
  endfacet
  facet normal -9.667353e-01 2.556849e-01 6.935369e-03
    outer loop
      vertex   4.582798e+02 3.439920e+02 2.950118e+01
      vertex   4.337867e+02 2.514474e+02 2.717683e+01
      vertex   4.330364e+02 2.485427e+02 2.968228e+01
    endloop
  endfacet
  facet normal -9.667353e-01 2.556849e-01 6.935369e-03
    outer loop
      vertex   4.330364e+02 2.485427e+02 2.968228e+01
      vertex   4.337867e+02 2.514474e+02 2.717683e+01
      vertex   4.319688e+02 2.488251e+02 -1.295430e+02
    endloop
  endfacet
  facet normal -9.667353e-01 2.556849e-01 6.935369e-03
    outer loop
      vertex   4.319688e+02 2.488251e+02 -1.295430e+02
      vertex   4.337867e+02 2.514474e+02 2.717683e+01
      vertex   4.327366e+02 2.517252e+02 -1.294371e+02
    endloop
  endfacet
  facet normal -9.667353e-01 2.556849e-01 6.935369e-03
    outer loop
      vertex   4.319688e+02 2.488251e+02 -1.295430e+02
      vertex   4.327366e+02 2.517252e+02 -1.294371e+02
      vertex   4.320201e+02 2.490626e+02 -1.311411e+02
    endloop
  endfacet
  facet normal -9.667353e-01 2.556849e-01 6.935369e-03
    outer loop
      vertex   4.320201e+02 2.490626e+02 -1.311411e+02
      vertex   4.327366e+02 2.517252e+02 -1.294371e+02
      vertex   4.321412e+02 2.495620e+02 -1.326737e+02
    endloop
  endfacet
  facet normal -9.667353e-01 2.556849e-01 6.935369e-03
    outer loop
      vertex   4.321412e+02 2.495620e+02 -1.326737e+02
      vertex   4.327366e+02 2.517252e+02 -1.294371e+02
      vertex   4.327825e+02 2.519316e+02 -1.306394e+02
    endloop
  endfacet
  facet normal -9.667353e-01 2.556849e-01 6.935369e-03
    outer loop
      vertex   4.321412e+02 2.495620e+02 -1.326737e+02
      vertex   4.327825e+02 2.519316e+02 -1.306394e+02
      vertex   4.323285e+02 2.503086e+02 -1.340951e+02
    endloop
  endfacet
  facet normal -9.667353e-01 2.556849e-01 6.935369e-03
    outer loop
      vertex   4.323285e+02 2.503086e+02 -1.340951e+02
      vertex   4.327825e+02 2.519316e+02 -1.306394e+02
      vertex   4.328866e+02 2.523560e+02 -1.317792e+02
    endloop
  endfacet
  facet normal -9.667353e-01 2.556849e-01 6.935369e-03
    outer loop
      vertex   4.323285e+02 2.503086e+02 -1.340951e+02
      vertex   4.328866e+02 2.523560e+02 -1.317792e+02
      vertex   4.325763e+02 2.512801e+02 -1.353631e+02
    endloop
  endfacet
  facet normal -9.667353e-01 2.556849e-01 6.935369e-03
    outer loop
      vertex   4.325763e+02 2.512801e+02 -1.353631e+02
      vertex   4.328866e+02 2.523560e+02 -1.317792e+02
      vertex   4.330449e+02 2.529827e+02 -1.328147e+02
    endloop
  endfacet
  facet normal -9.667353e-01 2.556849e-01 6.935369e-03
    outer loop
      vertex   4.325763e+02 2.512801e+02 -1.353631e+02
      vertex   4.330449e+02 2.529827e+02 -1.328147e+02
      vertex   4.328774e+02 2.524476e+02 -1.364399e+02
    endloop
  endfacet
  facet normal -9.667353e-01 2.556849e-01 6.935369e-03
    outer loop
      vertex   4.328774e+02 2.524476e+02 -1.364399e+02
      vertex   4.330449e+02 2.529827e+02 -1.328147e+02
      vertex   4.332517e+02 2.537887e+02 -1.337078e+02
    endloop
  endfacet
  facet normal -9.667353e-01 2.556849e-01 6.935369e-03
    outer loop
      vertex   4.328774e+02 2.524476e+02 -1.364399e+02
      vertex   4.332517e+02 2.537887e+02 -1.337078e+02
      vertex   4.377687e+02 2.710821e+02 -1.416225e+02
    endloop
  endfacet
  facet normal -9.667353e-01 2.556849e-01 6.935369e-03
    outer loop
      vertex   4.377687e+02 2.710821e+02 -1.416225e+02
      vertex   4.332517e+02 2.537887e+02 -1.337078e+02
      vertex   4.378902e+02 2.714601e+02 -1.386226e+02
    endloop
  endfacet
  facet normal -9.667353e-01 2.556849e-01 6.935369e-03
    outer loop
      vertex   4.377687e+02 2.710821e+02 -1.416225e+02
      vertex   4.378902e+02 2.714601e+02 -1.386226e+02
      vertex   4.393904e+02 2.772135e+02 -1.416225e+02
    endloop
  endfacet
  facet normal -9.667353e-01 2.556849e-01 6.935369e-03
    outer loop
      vertex   4.393904e+02 2.772135e+02 -1.416225e+02
      vertex   4.378902e+02 2.714601e+02 -1.386226e+02
      vertex   4.401775e+02 2.801084e+02 -1.386226e+02
    endloop
  endfacet
  facet normal -9.667353e-01 2.556849e-01 6.935369e-03
    outer loop
      vertex   4.393904e+02 2.772135e+02 -1.416225e+02
      vertex   4.401775e+02 2.801084e+02 -1.386226e+02
      vertex   4.393508e+02 2.772239e+02 -1.475211e+02
    endloop
  endfacet
  facet normal -9.667353e-01 2.556849e-01 6.935369e-03
    outer loop
      vertex   4.393508e+02 2.772239e+02 -1.475211e+02
      vertex   4.401775e+02 2.801084e+02 -1.386226e+02
      vertex   4.400978e+02 2.801295e+02 -1.505210e+02
    endloop
  endfacet
  facet normal -9.667353e-01 2.556849e-01 6.935369e-03
    outer loop
      vertex   4.393508e+02 2.772239e+02 -1.475211e+02
      vertex   4.400978e+02 2.801295e+02 -1.505210e+02
      vertex   4.380422e+02 2.723577e+02 -1.505210e+02
    endloop
  endfacet
  facet normal -9.667353e-01 2.556849e-01 6.935369e-03
    outer loop
      vertex   4.378454e+02 2.724097e+02 -1.798828e+02
      vertex   4.370582e+02 2.695148e+02 -1.828827e+02
      vertex   4.380422e+02 2.723577e+02 -1.505210e+02
    endloop
  endfacet
  facet normal -9.667353e-01 2.556849e-01 6.935369e-03
    outer loop
      vertex   4.380422e+02 2.723577e+02 -1.505210e+02
      vertex   4.370582e+02 2.695148e+02 -1.828827e+02
      vertex   4.372953e+02 2.694521e+02 -1.475211e+02
    endloop
  endfacet
  facet normal -9.667353e-01 2.556849e-01 6.935369e-03
    outer loop
      vertex   4.380422e+02 2.723577e+02 -1.505210e+02
      vertex   4.372953e+02 2.694521e+02 -1.475211e+02
      vertex   4.393508e+02 2.772239e+02 -1.475211e+02
    endloop
  endfacet
  facet normal -9.667353e-01 2.556849e-01 6.935369e-03
    outer loop
      vertex   4.378454e+02 2.724097e+02 -1.798828e+02
      vertex   4.574506e+02 3.465363e+02 -1.798828e+02
      vertex   4.370582e+02 2.695148e+02 -1.828827e+02
    endloop
  endfacet
  facet normal -2.556910e-01 -9.667586e-01 1.084460e-15
    outer loop
      vertex   4.372953e+02 2.694521e+02 -1.475211e+02
      vertex   4.370582e+02 2.695148e+02 -1.828827e+02
      vertex   4.998190e+02 2.529156e+02 -1.479697e+02
    endloop
  endfacet
  facet normal -2.556910e-01 -9.667586e-01 -0.000000e+00
    outer loop
      vertex   4.998190e+02 2.529156e+02 -1.479697e+02
      vertex   4.370582e+02 2.695148e+02 -1.828827e+02
      vertex   4.998190e+02 2.529156e+02 -1.833330e+02
    endloop
  endfacet
  facet normal -6.704828e-03 1.773312e-03 -9.999760e-01
    outer loop
      vertex   4.581975e+02 3.494419e+02 -1.828827e+02
      vertex   4.998190e+02 3.384337e+02 -1.831813e+02
      vertex   4.370582e+02 2.695148e+02 -1.828827e+02
    endloop
  endfacet
  facet normal -6.704828e-03 1.773312e-03 -9.999760e-01
    outer loop
      vertex   4.370582e+02 2.695148e+02 -1.828827e+02
      vertex   4.998190e+02 3.384337e+02 -1.831813e+02
      vertex   4.998190e+02 2.529156e+02 -1.833330e+02
    endloop
  endfacet
  facet normal 2.556910e-01 9.667586e-01 -1.079560e-15
    outer loop
      vertex   4.584346e+02 3.493792e+02 -1.475211e+02
      vertex   4.998190e+02 3.384337e+02 -1.478180e+02
      vertex   4.581975e+02 3.494419e+02 -1.828827e+02
    endloop
  endfacet
  facet normal 2.556910e-01 9.667586e-01 -3.136223e-15
    outer loop
      vertex   4.581975e+02 3.494419e+02 -1.828827e+02
      vertex   4.998190e+02 3.384337e+02 -1.478180e+02
      vertex   4.998190e+02 3.384337e+02 -1.831813e+02
    endloop
  endfacet
  facet normal 6.704828e-03 -1.773312e-03 9.999760e-01
    outer loop
      vertex   4.584346e+02 3.493792e+02 -1.475211e+02
      vertex   4.570928e+02 3.443059e+02 -1.475211e+02
      vertex   4.998190e+02 3.384337e+02 -1.478180e+02
    endloop
  endfacet
  facet normal 6.704828e-03 -1.773312e-03 9.999760e-01
    outer loop
      vertex   4.998190e+02 3.384337e+02 -1.478180e+02
      vertex   4.570928e+02 3.443059e+02 -1.475211e+02
      vertex   4.998190e+02 3.330055e+02 -1.478276e+02
    endloop
  endfacet
  facet normal 2.556910e-01 9.667586e-01 1.744462e-16
    outer loop
      vertex   4.582798e+02 3.439920e+02 2.950118e+01
      vertex   4.998190e+02 3.330055e+02 2.920318e+01
      vertex   4.570928e+02 3.443059e+02 -1.475211e+02
    endloop
  endfacet
  facet normal 2.556910e-01 9.667586e-01 0.000000e+00
    outer loop
      vertex   4.570928e+02 3.443059e+02 -1.475211e+02
      vertex   4.998190e+02 3.330055e+02 2.920318e+01
      vertex   4.998190e+02 3.330055e+02 -1.478276e+02
    endloop
  endfacet
  facet normal 7.173826e-03 2.732097e-16 9.999743e-01
    outer loop
      vertex   4.330364e+02 2.485427e+02 2.968228e+01
      vertex   4.998190e+02 2.308799e+02 2.920318e+01
      vertex   4.582798e+02 3.439920e+02 2.950118e+01
    endloop
  endfacet
  facet normal 7.173826e-03 1.084489e-16 9.999743e-01
    outer loop
      vertex   4.582798e+02 3.439920e+02 2.950118e+01
      vertex   4.998190e+02 2.308799e+02 2.920318e+01
      vertex   4.998190e+02 3.330055e+02 2.920318e+01
    endloop
  endfacet
  facet normal 6.704828e-03 -1.773312e-03 9.999760e-01
    outer loop
      vertex   4.401775e+02 2.801084e+02 -1.386226e+02
      vertex   4.378902e+02 2.714601e+02 -1.386226e+02
      vertex   4.998190e+02 2.643343e+02 -1.390504e+02
    endloop
  endfacet
  facet normal 6.704828e-03 -1.773312e-03 9.999760e-01
    outer loop
      vertex   4.998190e+02 2.643343e+02 -1.390504e+02
      vertex   4.378902e+02 2.714601e+02 -1.386226e+02
      vertex   4.998190e+02 2.550810e+02 -1.390668e+02
    endloop
  endfacet
  facet normal 7.289722e-02 2.494290e-01 9.656455e-01
    outer loop
      vertex   4.378902e+02 2.714601e+02 -1.386226e+02
      vertex   4.332517e+02 2.537887e+02 -1.337078e+02
      vertex   4.998190e+02 2.550810e+02 -1.390668e+02
    endloop
  endfacet
  facet normal 7.289722e-02 2.494290e-01 9.656455e-01
    outer loop
      vertex   4.998190e+02 2.550810e+02 -1.390668e+02
      vertex   4.332517e+02 2.537887e+02 -1.337078e+02
      vertex   4.998190e+02 2.361828e+02 -1.341854e+02
    endloop
  endfacet
  facet normal 1.916591e-01 7.061676e-01 6.816114e-01
    outer loop
      vertex   4.998190e+02 2.361828e+02 -1.341854e+02
      vertex   4.332517e+02 2.537887e+02 -1.337078e+02
      vertex   4.554057e+02 2.470687e+02 -1.329751e+02
    endloop
  endfacet
  facet normal 1.916591e-01 7.061676e-01 6.816114e-01
    outer loop
      vertex   4.554057e+02 2.470687e+02 -1.329751e+02
      vertex   4.332517e+02 2.537887e+02 -1.337078e+02
      vertex   4.330449e+02 2.529827e+02 -1.328147e+02
    endloop
  endfacet
  facet normal 2.204570e-01 8.191782e-01 5.294769e-01
    outer loop
      vertex   4.554057e+02 2.470687e+02 -1.329751e+02
      vertex   4.330449e+02 2.529827e+02 -1.328147e+02
      vertex   4.552474e+02 2.464420e+02 -1.319396e+02
    endloop
  endfacet
  facet normal 2.204570e-01 8.191782e-01 5.294769e-01
    outer loop
      vertex   4.552474e+02 2.464420e+02 -1.319396e+02
      vertex   4.330449e+02 2.529827e+02 -1.328147e+02
      vertex   4.328866e+02 2.523560e+02 -1.317792e+02
    endloop
  endfacet
  facet normal 2.411541e-01 9.020876e-01 3.578865e-01
    outer loop
      vertex   4.552474e+02 2.464420e+02 -1.319396e+02
      vertex   4.328866e+02 2.523560e+02 -1.317792e+02
      vertex   4.551434e+02 2.460176e+02 -1.307998e+02
    endloop
  endfacet
  facet normal 2.411541e-01 9.020876e-01 3.578865e-01
    outer loop
      vertex   4.551434e+02 2.460176e+02 -1.307998e+02
      vertex   4.328866e+02 2.523560e+02 -1.317792e+02
      vertex   4.327825e+02 2.519316e+02 -1.306394e+02
    endloop
  endfacet
  facet normal 2.529899e-01 9.518492e-01 1.731452e-01
    outer loop
      vertex   4.551434e+02 2.460176e+02 -1.307998e+02
      vertex   4.327825e+02 2.519316e+02 -1.306394e+02
      vertex   4.327366e+02 2.517252e+02 -1.294371e+02
    endloop
  endfacet
  facet normal 2.529899e-01 9.518492e-01 1.731452e-01
    outer loop
      vertex   4.327366e+02 2.517252e+02 -1.294371e+02
      vertex   4.998190e+02 2.339830e+02 -1.299184e+02
      vertex   4.551434e+02 2.460176e+02 -1.307998e+02
    endloop
  endfacet
  facet normal 2.529899e-01 9.518492e-01 1.731452e-01
    outer loop
      vertex   4.551434e+02 2.460176e+02 -1.307998e+02
      vertex   4.998190e+02 2.339830e+02 -1.299184e+02
      vertex   4.775042e+02 2.401035e+02 -1.309602e+02
    endloop
  endfacet
  facet normal 2.411541e-01 9.020876e-01 3.578865e-01
    outer loop
      vertex   4.551434e+02 2.460176e+02 -1.307998e+02
      vertex   4.775042e+02 2.401035e+02 -1.309602e+02
      vertex   4.552474e+02 2.464420e+02 -1.319396e+02
    endloop
  endfacet
  facet normal 2.411541e-01 9.020876e-01 3.578865e-01
    outer loop
      vertex   4.552474e+02 2.464420e+02 -1.319396e+02
      vertex   4.775042e+02 2.401035e+02 -1.309602e+02
      vertex   4.776082e+02 2.405279e+02 -1.321000e+02
    endloop
  endfacet
  facet normal 2.204570e-01 8.191782e-01 5.294769e-01
    outer loop
      vertex   4.552474e+02 2.464420e+02 -1.319396e+02
      vertex   4.776082e+02 2.405279e+02 -1.321000e+02
      vertex   4.554057e+02 2.470687e+02 -1.329751e+02
    endloop
  endfacet
  facet normal 2.204570e-01 8.191782e-01 5.294769e-01
    outer loop
      vertex   4.554057e+02 2.470687e+02 -1.329751e+02
      vertex   4.776082e+02 2.405279e+02 -1.321000e+02
      vertex   4.777666e+02 2.411546e+02 -1.331355e+02
    endloop
  endfacet
  facet normal 1.916591e-01 7.061676e-01 6.816114e-01
    outer loop
      vertex   4.554057e+02 2.470687e+02 -1.329751e+02
      vertex   4.777666e+02 2.411546e+02 -1.331355e+02
      vertex   4.998190e+02 2.361828e+02 -1.341854e+02
    endloop
  endfacet
  facet normal 1.916591e-01 7.061676e-01 6.816114e-01
    outer loop
      vertex   4.998190e+02 2.361828e+02 -1.341854e+02
      vertex   4.777666e+02 2.411546e+02 -1.331355e+02
      vertex   4.998190e+02 2.353221e+02 -1.332937e+02
    endloop
  endfacet
  facet normal 2.204570e-01 8.191782e-01 5.294769e-01
    outer loop
      vertex   4.998190e+02 2.353221e+02 -1.332937e+02
      vertex   4.777666e+02 2.411546e+02 -1.331355e+02
      vertex   4.776082e+02 2.405279e+02 -1.321000e+02
    endloop
  endfacet
  facet normal 2.204570e-01 8.191782e-01 5.294769e-01
    outer loop
      vertex   4.998190e+02 2.353221e+02 -1.332937e+02
      vertex   4.776082e+02 2.405279e+02 -1.321000e+02
      vertex   4.998190e+02 2.346536e+02 -1.322593e+02
    endloop
  endfacet
  facet normal 2.411541e-01 9.020876e-01 3.578865e-01
    outer loop
      vertex   4.998190e+02 2.346536e+02 -1.322593e+02
      vertex   4.776082e+02 2.405279e+02 -1.321000e+02
      vertex   4.775042e+02 2.401035e+02 -1.309602e+02
    endloop
  endfacet
  facet normal 2.411541e-01 9.020876e-01 3.578865e-01
    outer loop
      vertex   4.998190e+02 2.346536e+02 -1.322593e+02
      vertex   4.775042e+02 2.401035e+02 -1.309602e+02
      vertex   4.998190e+02 2.342017e+02 -1.311203e+02
    endloop
  endfacet
  facet normal 2.529899e-01 9.518492e-01 1.731452e-01
    outer loop
      vertex   4.998190e+02 2.342017e+02 -1.311203e+02
      vertex   4.775042e+02 2.401035e+02 -1.309602e+02
      vertex   4.998190e+02 2.339830e+02 -1.299184e+02
    endloop
  endfacet
  facet normal 2.556910e-01 9.667586e-01 1.059402e-16
    outer loop
      vertex   4.337867e+02 2.514474e+02 2.717683e+01
      vertex   4.998190e+02 2.339830e+02 2.670312e+01
      vertex   4.327366e+02 2.517252e+02 -1.294371e+02
    endloop
  endfacet
  facet normal 2.556910e-01 9.667586e-01 -1.673740e-16
    outer loop
      vertex   4.327366e+02 2.517252e+02 -1.294371e+02
      vertex   4.998190e+02 2.339830e+02 2.670312e+01
      vertex   4.998190e+02 2.339830e+02 -1.299184e+02
    endloop
  endfacet
  facet normal -7.173826e-03 -5.804211e-16 -9.999743e-01
    outer loop
      vertex   4.574960e+02 3.410961e+02 2.700674e+01
      vertex   4.998190e+02 3.299024e+02 2.670312e+01
      vertex   4.337867e+02 2.514474e+02 2.717683e+01
    endloop
  endfacet
  facet normal -7.173826e-03 -5.558526e-16 -9.999743e-01
    outer loop
      vertex   4.337867e+02 2.514474e+02 2.717683e+01
      vertex   4.998190e+02 3.299024e+02 2.670312e+01
      vertex   4.998190e+02 2.339830e+02 2.670312e+01
    endloop
  endfacet
  facet normal -2.556910e-01 -9.667586e-01 -1.161042e-16
    outer loop
      vertex   4.574960e+02 3.410961e+02 2.700674e+01
      vertex   4.563056e+02 3.414109e+02 -1.505210e+02
      vertex   4.998190e+02 3.299024e+02 2.670312e+01
    endloop
  endfacet
  facet normal -2.556910e-01 -9.667586e-01 -0.000000e+00
    outer loop
      vertex   4.998190e+02 3.299024e+02 2.670312e+01
      vertex   4.563056e+02 3.414109e+02 -1.505210e+02
      vertex   4.998190e+02 3.299024e+02 -1.508332e+02
    endloop
  endfacet
  facet normal -2.556910e-01 -9.667586e-01 1.237031e-16
    outer loop
      vertex   4.330364e+02 2.485427e+02 2.968228e+01
      vertex   4.319688e+02 2.488251e+02 -1.295430e+02
      vertex   4.998190e+02 2.308799e+02 2.920318e+01
    endloop
  endfacet
  facet normal -2.556910e-01 -9.667586e-01 9.127730e-17
    outer loop
      vertex   4.998190e+02 2.308799e+02 2.920318e+01
      vertex   4.319688e+02 2.488251e+02 -1.295430e+02
      vertex   4.998190e+02 2.308799e+02 -1.300297e+02
    endloop
  endfacet
  facet normal -2.537992e-01 -9.555330e-01 -1.501422e-01
    outer loop
      vertex   4.998190e+02 2.308799e+02 -1.300297e+02
      vertex   4.319688e+02 2.488251e+02 -1.295430e+02
      vertex   4.659452e+02 2.400900e+02 -1.313845e+02
    endloop
  endfacet
  facet normal -2.537992e-01 -9.555330e-01 -1.501422e-01
    outer loop
      vertex   4.659452e+02 2.400900e+02 -1.313845e+02
      vertex   4.319688e+02 2.488251e+02 -1.295430e+02
      vertex   4.320201e+02 2.490626e+02 -1.311411e+02
    endloop
  endfacet
  facet normal -2.445605e-01 -9.160525e-01 -3.178647e-01
    outer loop
      vertex   4.659452e+02 2.400900e+02 -1.313845e+02
      vertex   4.320201e+02 2.490626e+02 -1.311411e+02
      vertex   4.660663e+02 2.405894e+02 -1.329171e+02
    endloop
  endfacet
  facet normal -2.445605e-01 -9.160525e-01 -3.178647e-01
    outer loop
      vertex   4.660663e+02 2.405894e+02 -1.329171e+02
      vertex   4.320201e+02 2.490626e+02 -1.311411e+02
      vertex   4.321412e+02 2.495620e+02 -1.326737e+02
    endloop
  endfacet
  facet normal -2.280401e-01 -8.492967e-01 -4.761227e-01
    outer loop
      vertex   4.660663e+02 2.405894e+02 -1.329171e+02
      vertex   4.321412e+02 2.495620e+02 -1.326737e+02
      vertex   4.662536e+02 2.413360e+02 -1.343385e+02
    endloop
  endfacet
  facet normal -2.280401e-01 -8.492967e-01 -4.761227e-01
    outer loop
      vertex   4.662536e+02 2.413360e+02 -1.343385e+02
      vertex   4.321412e+02 2.495620e+02 -1.326737e+02
      vertex   4.323285e+02 2.503086e+02 -1.340951e+02
    endloop
  endfacet
  facet normal -2.047298e-01 -7.572531e-01 -6.202043e-01
    outer loop
      vertex   4.662536e+02 2.413360e+02 -1.343385e+02
      vertex   4.323285e+02 2.503086e+02 -1.340951e+02
      vertex   4.665015e+02 2.423075e+02 -1.356065e+02
    endloop
  endfacet
  facet normal -2.047298e-01 -7.572531e-01 -6.202043e-01
    outer loop
      vertex   4.665015e+02 2.423075e+02 -1.356065e+02
      vertex   4.323285e+02 2.503086e+02 -1.340951e+02
      vertex   4.325763e+02 2.512801e+02 -1.353631e+02
    endloop
  endfacet
  facet normal -1.753237e-01 -6.426625e-01 -7.458194e-01
    outer loop
      vertex   4.665015e+02 2.423075e+02 -1.356065e+02
      vertex   4.325763e+02 2.512801e+02 -1.353631e+02
      vertex   4.328774e+02 2.524476e+02 -1.364399e+02
    endloop
  endfacet
  facet normal -1.753237e-01 -6.426625e-01 -7.458194e-01
    outer loop
      vertex   4.328774e+02 2.524476e+02 -1.364399e+02
      vertex   4.998190e+02 2.347427e+02 -1.369201e+02
      vertex   4.665015e+02 2.423075e+02 -1.356065e+02
    endloop
  endfacet
  facet normal -1.753237e-01 -6.426625e-01 -7.458194e-01
    outer loop
      vertex   4.665015e+02 2.423075e+02 -1.356065e+02
      vertex   4.998190e+02 2.347427e+02 -1.369201e+02
      vertex   4.998190e+02 2.334956e+02 -1.358455e+02
    endloop
  endfacet
  facet normal -2.047298e-01 -7.572531e-01 -6.202043e-01
    outer loop
      vertex   4.665015e+02 2.423075e+02 -1.356065e+02
      vertex   4.998190e+02 2.334956e+02 -1.358455e+02
      vertex   4.662536e+02 2.413360e+02 -1.343385e+02
    endloop
  endfacet
  facet normal -2.047298e-01 -7.572531e-01 -6.202043e-01
    outer loop
      vertex   4.662536e+02 2.413360e+02 -1.343385e+02
      vertex   4.998190e+02 2.334956e+02 -1.358455e+02
      vertex   4.998190e+02 2.324586e+02 -1.345793e+02
    endloop
  endfacet
  facet normal -2.280401e-01 -8.492967e-01 -4.761227e-01
    outer loop
      vertex   4.662536e+02 2.413360e+02 -1.343385e+02
      vertex   4.998190e+02 2.324586e+02 -1.345793e+02
      vertex   4.660663e+02 2.405894e+02 -1.329171e+02
    endloop
  endfacet
  facet normal -2.280401e-01 -8.492967e-01 -4.761227e-01
    outer loop
      vertex   4.660663e+02 2.405894e+02 -1.329171e+02
      vertex   4.998190e+02 2.324586e+02 -1.345793e+02
      vertex   4.998190e+02 2.316624e+02 -1.331592e+02
    endloop
  endfacet
  facet normal -2.445605e-01 -9.160525e-01 -3.178647e-01
    outer loop
      vertex   4.660663e+02 2.405894e+02 -1.329171e+02
      vertex   4.998190e+02 2.316624e+02 -1.331592e+02
      vertex   4.659452e+02 2.400900e+02 -1.313845e+02
    endloop
  endfacet
  facet normal -2.445605e-01 -9.160525e-01 -3.178647e-01
    outer loop
      vertex   4.659452e+02 2.400900e+02 -1.313845e+02
      vertex   4.998190e+02 2.316624e+02 -1.331592e+02
      vertex   4.998190e+02 2.311309e+02 -1.316275e+02
    endloop
  endfacet
  facet normal -2.537992e-01 -9.555330e-01 -1.501422e-01
    outer loop
      vertex   4.659452e+02 2.400900e+02 -1.313845e+02
      vertex   4.998190e+02 2.311309e+02 -1.316275e+02
      vertex   4.998190e+02 2.308799e+02 -1.300297e+02
    endloop
  endfacet
  facet normal -7.289722e-02 -2.494290e-01 -9.656455e-01
    outer loop
      vertex   4.377687e+02 2.710821e+02 -1.416225e+02
      vertex   4.998190e+02 2.546709e+02 -1.420676e+02
      vertex   4.328774e+02 2.524476e+02 -1.364399e+02
    endloop
  endfacet
  facet normal -7.289722e-02 -2.494290e-01 -9.656455e-01
    outer loop
      vertex   4.328774e+02 2.524476e+02 -1.364399e+02
      vertex   4.998190e+02 2.546709e+02 -1.420676e+02
      vertex   4.998190e+02 2.347427e+02 -1.369201e+02
    endloop
  endfacet
  facet normal -6.704828e-03 1.773312e-03 -9.999760e-01
    outer loop
      vertex   4.393904e+02 2.772135e+02 -1.416225e+02
      vertex   4.998190e+02 2.612311e+02 -1.420560e+02
      vertex   4.377687e+02 2.710821e+02 -1.416225e+02
    endloop
  endfacet
  facet normal -6.704828e-03 1.773312e-03 -9.999760e-01
    outer loop
      vertex   4.377687e+02 2.710821e+02 -1.416225e+02
      vertex   4.998190e+02 2.612311e+02 -1.420560e+02
      vertex   4.998190e+02 2.546709e+02 -1.420676e+02
    endloop
  endfacet
  facet normal -6.704828e-03 1.773312e-03 -9.999760e-01
    outer loop
      vertex   4.576474e+02 3.464842e+02 -1.505210e+02
      vertex   4.998190e+02 3.353306e+02 -1.508236e+02
      vertex   4.563056e+02 3.414109e+02 -1.505210e+02
    endloop
  endfacet
  facet normal -6.704828e-03 1.773312e-03 -9.999760e-01
    outer loop
      vertex   4.563056e+02 3.414109e+02 -1.505210e+02
      vertex   4.998190e+02 3.353306e+02 -1.508236e+02
      vertex   4.998190e+02 3.299024e+02 -1.508332e+02
    endloop
  endfacet
  facet normal -2.556910e-01 -9.667586e-01 -2.413097e-16
    outer loop
      vertex   4.576474e+02 3.464842e+02 -1.505210e+02
      vertex   4.574506e+02 3.465363e+02 -1.798828e+02
      vertex   4.998190e+02 3.353306e+02 -1.508236e+02
    endloop
  endfacet
  facet normal -2.556910e-01 -9.667586e-01 -0.000000e+00
    outer loop
      vertex   4.998190e+02 3.353306e+02 -1.508236e+02
      vertex   4.574506e+02 3.465363e+02 -1.798828e+02
      vertex   4.998190e+02 3.353306e+02 -1.801868e+02
    endloop
  endfacet
  facet normal 6.704828e-03 -1.773312e-03 9.999760e-01
    outer loop
      vertex   4.574506e+02 3.465363e+02 -1.798828e+02
      vertex   4.378454e+02 2.724097e+02 -1.798828e+02
      vertex   4.998190e+02 3.353306e+02 -1.801868e+02
    endloop
  endfacet
  facet normal 6.704828e-03 -1.773312e-03 9.999760e-01
    outer loop
      vertex   4.998190e+02 3.353306e+02 -1.801868e+02
      vertex   4.378454e+02 2.724097e+02 -1.798828e+02
      vertex   4.998190e+02 2.560188e+02 -1.803274e+02
    endloop
  endfacet
  facet normal -6.704828e-03 1.773312e-03 -9.999760e-01
    outer loop
      vertex   4.400978e+02 2.801295e+02 -1.505210e+02
      vertex   4.998190e+02 2.643343e+02 -1.509495e+02
      vertex   4.380422e+02 2.723577e+02 -1.505210e+02
    endloop
  endfacet
  facet normal -6.704828e-03 1.773312e-03 -9.999760e-01
    outer loop
      vertex   4.380422e+02 2.723577e+02 -1.505210e+02
      vertex   4.998190e+02 2.643343e+02 -1.509495e+02
      vertex   4.998190e+02 2.560188e+02 -1.509642e+02
    endloop
  endfacet
  facet normal -2.556910e-01 -9.667586e-01 6.032576e-15
    outer loop
      vertex   4.393904e+02 2.772135e+02 -1.416225e+02
      vertex   4.393508e+02 2.772239e+02 -1.475211e+02
      vertex   4.998190e+02 2.612311e+02 -1.420560e+02
    endloop
  endfacet
  facet normal -2.556910e-01 -9.667586e-01 -0.000000e+00
    outer loop
      vertex   4.998190e+02 2.612311e+02 -1.420560e+02
      vertex   4.393508e+02 2.772239e+02 -1.475211e+02
      vertex   4.998190e+02 2.612311e+02 -1.479549e+02
    endloop
  endfacet
  facet normal 6.704828e-03 -1.773312e-03 9.999760e-01
    outer loop
      vertex   4.393508e+02 2.772239e+02 -1.475211e+02
      vertex   4.372953e+02 2.694521e+02 -1.475211e+02
      vertex   4.998190e+02 2.612311e+02 -1.479549e+02
    endloop
  endfacet
  facet normal 6.704828e-03 -1.773312e-03 9.999760e-01
    outer loop
      vertex   4.998190e+02 2.612311e+02 -1.479549e+02
      vertex   4.372953e+02 2.694521e+02 -1.475211e+02
      vertex   4.998190e+02 2.529156e+02 -1.479697e+02
    endloop
  endfacet
  facet normal 2.556910e-01 9.667586e-01 -3.420450e-15
    outer loop
      vertex   4.401775e+02 2.801084e+02 -1.386226e+02
      vertex   4.998190e+02 2.643343e+02 -1.390504e+02
      vertex   4.400978e+02 2.801295e+02 -1.505210e+02
    endloop
  endfacet
  facet normal 2.556910e-01 9.667586e-01 0.000000e+00
    outer loop
      vertex   4.400978e+02 2.801295e+02 -1.505210e+02
      vertex   4.998190e+02 2.643343e+02 -1.390504e+02
      vertex   4.998190e+02 2.643343e+02 -1.509495e+02
    endloop
  endfacet
endsolid
