solid ASCII
  facet normal -9.667353e-01 2.556849e-01 6.935369e-03
    outer loop
      vertex   3.959811e+02 2.886945e+02 9.669466e+01
      vertex   3.967877e+02 2.915843e+02 1.025933e+02
      vertex   4.137231e+02 3.557764e+02 9.669466e+01
    endloop
  endfacet
  facet normal -9.667353e-01 2.556849e-01 6.935369e-03
    outer loop
      vertex   4.137231e+02 3.557764e+02 9.669466e+01
      vertex   3.967877e+02 2.915843e+02 1.025933e+02
      vertex   4.129956e+02 3.528657e+02 1.025933e+02
    endloop
  endfacet
  facet normal -9.667353e-01 2.556849e-01 6.935369e-03
    outer loop
      vertex   4.137231e+02 3.557764e+02 9.669466e+01
      vertex   4.129956e+02 3.528657e+02 1.025933e+02
      vertex   4.137626e+02 3.557660e+02 1.025933e+02
    endloop
  endfacet
  facet normal -9.667353e-01 2.556849e-01 6.935369e-03
    outer loop
      vertex   4.137626e+02 3.557660e+02 1.025933e+02
      vertex   4.129956e+02 3.528657e+02 1.025933e+02
      vertex   4.130157e+02 3.528604e+02 1.055932e+02
    endloop
  endfacet
  facet normal -9.667353e-01 2.556849e-01 6.935369e-03
    outer loop
      vertex   4.137626e+02 3.557660e+02 1.025933e+02
      vertex   4.130157e+02 3.528604e+02 1.055932e+02
      vertex   4.143575e+02 3.579337e+02 1.055932e+02
    endloop
  endfacet
  facet normal -9.667353e-01 2.556849e-01 6.935369e-03
    outer loop
      vertex   3.959811e+02 2.886945e+02 9.669466e+01
      vertex   3.960206e+02 2.886840e+02 1.025933e+02
      vertex   3.967877e+02 2.915843e+02 1.025933e+02
    endloop
  endfacet
  facet normal -9.667353e-01 2.556849e-01 6.935369e-03
    outer loop
      vertex   3.967877e+02 2.915843e+02 1.025933e+02
      vertex   3.960206e+02 2.886840e+02 1.025933e+02
      vertex   3.968078e+02 2.915790e+02 1.055932e+02
    endloop
  endfacet
  facet normal -9.667353e-01 2.556849e-01 6.935369e-03
    outer loop
      vertex   3.968078e+02 2.915790e+02 1.055932e+02
      vertex   3.960206e+02 2.886840e+02 1.025933e+02
      vertex   3.947523e+02 2.838071e+02 1.055932e+02
    endloop
  endfacet
  facet normal -9.667353e-01 2.556849e-01 6.935369e-03
    outer loop
      vertex   3.947523e+02 2.838071e+02 1.055932e+02
      vertex   3.960206e+02 2.886840e+02 1.025933e+02
      vertex   3.919196e+02 2.731781e+02 1.025933e+02
    endloop
  endfacet
  facet normal -9.667353e-01 2.556849e-01 6.935369e-03
    outer loop
      vertex   3.947523e+02 2.838071e+02 1.055932e+02
      vertex   3.919196e+02 2.731781e+02 1.025933e+02
      vertex   3.921567e+02 2.731154e+02 1.379549e+02
    endloop
  endfacet
  facet normal -9.667353e-01 2.556849e-01 6.935369e-03
    outer loop
      vertex   3.947523e+02 2.838071e+02 1.055932e+02
      vertex   3.921567e+02 2.731154e+02 1.379549e+02
      vertex   3.949491e+02 2.837550e+02 1.349550e+02
    endloop
  endfacet
  facet normal -9.667353e-01 2.556849e-01 6.935369e-03
    outer loop
      vertex   3.949491e+02 2.837550e+02 1.349550e+02
      vertex   3.921567e+02 2.731154e+02 1.379549e+02
      vertex   4.153415e+02 3.607766e+02 1.379549e+02
    endloop
  endfacet
  facet normal -9.667353e-01 2.556849e-01 6.935369e-03
    outer loop
      vertex   3.949491e+02 2.837550e+02 1.349550e+02
      vertex   4.153415e+02 3.607766e+02 1.379549e+02
      vertex   4.145543e+02 3.578816e+02 1.349550e+02
    endloop
  endfacet
  facet normal -9.667353e-01 2.556849e-01 6.935369e-03
    outer loop
      vertex   4.145543e+02 3.578816e+02 1.349550e+02
      vertex   4.153415e+02 3.607766e+02 1.379549e+02
      vertex   4.151044e+02 3.608393e+02 1.025933e+02
    endloop
  endfacet
  facet normal -9.667353e-01 2.556849e-01 6.935369e-03
    outer loop
      vertex   4.145543e+02 3.578816e+02 1.349550e+02
      vertex   4.151044e+02 3.608393e+02 1.025933e+02
      vertex   4.143575e+02 3.579337e+02 1.055932e+02
    endloop
  endfacet
  facet normal -9.667353e-01 2.556849e-01 6.935369e-03
    outer loop
      vertex   4.143575e+02 3.579337e+02 1.055932e+02
      vertex   4.151044e+02 3.608393e+02 1.025933e+02
      vertex   4.137626e+02 3.557660e+02 1.025933e+02
    endloop
  endfacet
  facet normal -2.556910e-01 -9.667586e-01 -4.770234e-16
    outer loop
      vertex   4.141894e+02 2.755632e+02 1.378115e+02
      vertex   4.139523e+02 2.756259e+02 1.024499e+02
      vertex   4.392072e+02 2.689464e+02 1.376320e+02
    endloop
  endfacet
  facet normal -2.556910e-01 -9.667586e-01 -6.211495e-17
    outer loop
      vertex   4.392072e+02 2.689464e+02 1.376320e+02
      vertex   4.139523e+02 2.756259e+02 1.024499e+02
      vertex   4.389701e+02 2.690091e+02 1.022704e+02
    endloop
  endfacet
  facet normal 9.667353e-01 -2.556849e-01 -6.935369e-03
    outer loop
      vertex   4.001116e+02 2.907052e+02 9.367046e+01
      vertex   4.163195e+02 3.519866e+02 9.367046e+01
      vertex   4.001317e+02 2.906999e+02 9.667039e+01
    endloop
  endfacet
  facet normal 9.667353e-01 -2.556849e-01 -6.935369e-03
    outer loop
      vertex   4.001317e+02 2.906999e+02 9.667039e+01
      vertex   4.163195e+02 3.519866e+02 9.367046e+01
      vertex   4.163396e+02 3.519813e+02 9.667039e+01
    endloop
  endfacet
  facet normal 9.667353e-01 -2.556849e-01 -6.935369e-03
    outer loop
      vertex   4.192793e+02 3.512037e+02 1.025482e+02
      vertex   4.030715e+02 2.899223e+02 1.025482e+02
      vertex   4.192398e+02 3.512142e+02 9.664958e+01
    endloop
  endfacet
  facet normal 9.667353e-01 -2.556849e-01 -6.935369e-03
    outer loop
      vertex   4.192398e+02 3.512142e+02 9.664958e+01
      vertex   4.030715e+02 2.899223e+02 1.025482e+02
      vertex   4.030319e+02 2.899328e+02 9.664958e+01
    endloop
  endfacet
  facet normal 6.704828e-03 -1.773312e-03 9.999760e-01
    outer loop
      vertex   4.030715e+02 2.899223e+02 1.025482e+02
      vertex   4.192793e+02 3.512037e+02 1.025482e+02
      vertex   3.967877e+02 2.915843e+02 1.025933e+02
    endloop
  endfacet
  facet normal 6.704828e-03 -1.773312e-03 9.999760e-01
    outer loop
      vertex   3.967877e+02 2.915843e+02 1.025933e+02
      vertex   4.192793e+02 3.512037e+02 1.025482e+02
      vertex   4.129956e+02 3.528657e+02 1.025933e+02
    endloop
  endfacet
  facet normal -6.704828e-03 1.773312e-03 -9.999760e-01
    outer loop
      vertex   4.001317e+02 2.906999e+02 9.667039e+01
      vertex   4.163396e+02 3.519813e+02 9.667039e+01
      vertex   4.030319e+02 2.899328e+02 9.664958e+01
    endloop
  endfacet
  facet normal -6.704828e-03 1.773312e-03 -9.999760e-01
    outer loop
      vertex   4.030319e+02 2.899328e+02 9.664958e+01
      vertex   4.163396e+02 3.519813e+02 9.667039e+01
      vertex   4.192398e+02 3.512142e+02 9.664958e+01
    endloop
  endfacet
  facet normal 7.173826e-03 5.274056e-16 9.999743e-01
    outer loop
      vertex   4.338202e+02 2.514386e+02 3.217672e+01
      vertex   4.575295e+02 3.410872e+02 3.200663e+01
      vertex   3.728640e+02 2.675604e+02 3.261402e+01
    endloop
  endfacet
  facet normal 7.173826e-03 2.485125e-16 9.999743e-01
    outer loop
      vertex   3.728640e+02 2.675604e+02 3.261402e+01
      vertex   4.575295e+02 3.410872e+02 3.200663e+01
      vertex   3.965733e+02 3.572091e+02 3.244393e+01
    endloop
  endfacet
  facet normal -6.704828e-03 1.773312e-03 -9.999760e-01
    outer loop
      vertex   4.389701e+02 2.690091e+02 1.022704e+02
      vertex   4.139523e+02 2.756259e+02 1.024499e+02
      vertex   4.410257e+02 2.767810e+02 1.022704e+02
    endloop
  endfacet
  facet normal -6.704828e-03 1.773312e-03 -9.999760e-01
    outer loop
      vertex   4.410257e+02 2.767810e+02 1.022704e+02
      vertex   4.139523e+02 2.756259e+02 1.024499e+02
      vertex   3.960206e+02 2.886840e+02 1.025933e+02
    endloop
  endfacet
  facet normal -6.704828e-03 1.773312e-03 -9.999760e-01
    outer loop
      vertex   3.960206e+02 2.886840e+02 1.025933e+02
      vertex   4.139523e+02 2.756259e+02 1.024499e+02
      vertex   3.919196e+02 2.731781e+02 1.025933e+02
    endloop
  endfacet
  facet normal -6.704828e-03 1.773312e-03 -9.999760e-01
    outer loop
      vertex   3.919196e+02 2.731781e+02 1.025933e+02
      vertex   4.139523e+02 2.756259e+02 1.024499e+02
      vertex   4.012620e+02 2.707072e+02 1.025263e+02
    endloop
  endfacet
  facet normal -2.556910e-01 -9.667586e-01 -3.299831e-15
    outer loop
      vertex   4.409861e+02 2.767914e+02 9.637179e+01
      vertex   4.410257e+02 2.767810e+02 1.022704e+02
      vertex   3.959811e+02 2.886945e+02 9.669466e+01
    endloop
  endfacet
  facet normal -2.556910e-01 -9.667586e-01 6.024152e-15
    outer loop
      vertex   3.959811e+02 2.886945e+02 9.669466e+01
      vertex   4.410257e+02 2.767810e+02 1.022704e+02
      vertex   3.960206e+02 2.886840e+02 1.025933e+02
    endloop
  endfacet
  facet normal 6.704828e-03 -1.773312e-03 9.999760e-01
    outer loop
      vertex   4.137231e+02 3.557764e+02 9.669466e+01
      vertex   3.977720e+02 3.599952e+02 9.680909e+01
      vertex   3.959811e+02 2.886945e+02 9.669466e+01
    endloop
  endfacet
  facet normal 6.704828e-03 -1.773312e-03 9.999760e-01
    outer loop
      vertex   3.959811e+02 2.886945e+02 9.669466e+01
      vertex   3.977720e+02 3.599952e+02 9.680909e+01
      vertex   3.784083e+02 2.867819e+02 9.680909e+01
    endloop
  endfacet
  facet normal 6.704828e-03 -1.773312e-03 9.999760e-01
    outer loop
      vertex   3.959811e+02 2.886945e+02 9.669466e+01
      vertex   3.784083e+02 2.867819e+02 9.680909e+01
      vertex   4.393645e+02 2.706600e+02 9.637179e+01
    endloop
  endfacet
  facet normal 6.704828e-03 -1.773312e-03 9.999760e-01
    outer loop
      vertex   4.393645e+02 2.706600e+02 9.637179e+01
      vertex   4.409861e+02 2.767914e+02 9.637179e+01
      vertex   3.959811e+02 2.886945e+02 9.669466e+01
    endloop
  endfacet
  facet normal -5.994794e-02 -2.528538e-01 9.656455e-01
    outer loop
      vertex   4.344036e+02 2.520439e+02 9.118920e+01
      vertex   4.393645e+02 2.706600e+02 9.637179e+01
      vertex   3.734475e+02 2.681658e+02 9.162650e+01
    endloop
  endfacet
  facet normal -5.994794e-02 -2.528538e-01 9.656455e-01
    outer loop
      vertex   3.734475e+02 2.681658e+02 9.162650e+01
      vertex   4.393645e+02 2.706600e+02 9.637179e+01
      vertex   3.784083e+02 2.867819e+02 9.680909e+01
    endloop
  endfacet
  facet normal -2.524078e-01 -9.580310e-01 1.358933e-01
    outer loop
      vertex   4.334583e+02 2.486206e+02 8.562733e+01
      vertex   4.131396e+02 2.539945e+02 8.577310e+01
      vertex   4.334025e+02 2.484459e+02 8.429229e+01
    endloop
  endfacet
  facet normal -2.524078e-01 -9.580310e-01 1.358933e-01
    outer loop
      vertex   4.334025e+02 2.484459e+02 8.429229e+01
      vertex   4.131396e+02 2.539945e+02 8.577310e+01
      vertex   3.928209e+02 2.593685e+02 8.591886e+01
    endloop
  endfacet
  facet normal -2.524078e-01 -9.580310e-01 1.358933e-01
    outer loop
      vertex   4.334025e+02 2.484459e+02 8.429229e+01
      vertex   3.928209e+02 2.593685e+02 8.591886e+01
      vertex   3.724464e+02 2.645677e+02 8.472959e+01
    endloop
  endfacet
  facet normal -2.524078e-01 -9.580310e-01 1.358933e-01
    outer loop
      vertex   3.724464e+02 2.645677e+02 8.472959e+01
      vertex   3.928209e+02 2.593685e+02 8.591886e+01
      vertex   3.725021e+02 2.647424e+02 8.606463e+01
    endloop
  endfacet
  facet normal -2.438578e-01 -9.295210e-01 2.766299e-01
    outer loop
      vertex   3.725021e+02 2.647424e+02 8.606463e+01
      vertex   3.928209e+02 2.593685e+02 8.591886e+01
      vertex   3.726061e+02 2.651005e+02 8.735959e+01
    endloop
  endfacet
  facet normal -2.438578e-01 -9.295210e-01 2.766299e-01
    outer loop
      vertex   3.726061e+02 2.651005e+02 8.735959e+01
      vertex   3.928209e+02 2.593685e+02 8.591886e+01
      vertex   3.929249e+02 2.597266e+02 8.721382e+01
    endloop
  endfacet
  facet normal -2.302616e-01 -8.817767e-01 4.116424e-01
    outer loop
      vertex   3.726061e+02 2.651005e+02 8.735959e+01
      vertex   3.929249e+02 2.597266e+02 8.721382e+01
      vertex   3.727562e+02 2.656346e+02 8.858766e+01
    endloop
  endfacet
  facet normal -2.302616e-01 -8.817767e-01 4.116424e-01
    outer loop
      vertex   3.727562e+02 2.656346e+02 8.858766e+01
      vertex   3.929249e+02 2.597266e+02 8.721382e+01
      vertex   3.930749e+02 2.602607e+02 8.844190e+01
    endloop
  endfacet
  facet normal -2.119008e-01 -8.157860e-01 5.381368e-01
    outer loop
      vertex   3.727562e+02 2.656346e+02 8.858766e+01
      vertex   3.930749e+02 2.602607e+02 8.844190e+01
      vertex   3.729493e+02 2.663337e+02 8.972344e+01
    endloop
  endfacet
  facet normal -2.119008e-01 -8.157860e-01 5.381368e-01
    outer loop
      vertex   3.729493e+02 2.663337e+02 8.972344e+01
      vertex   3.930749e+02 2.602607e+02 8.844190e+01
      vertex   3.932680e+02 2.609598e+02 8.957767e+01
    endloop
  endfacet
  facet normal -1.891551e-01 -7.329145e-01 6.534957e-01
    outer loop
      vertex   3.729493e+02 2.663337e+02 8.972344e+01
      vertex   3.932680e+02 2.609598e+02 8.957767e+01
      vertex   3.731813e+02 2.671833e+02 9.074342e+01
    endloop
  endfacet
  facet normal -1.891551e-01 -7.329145e-01 6.534957e-01
    outer loop
      vertex   3.731813e+02 2.671833e+02 9.074342e+01
      vertex   3.932680e+02 2.609598e+02 8.957767e+01
      vertex   3.935000e+02 2.618093e+02 9.059765e+01
    endloop
  endfacet
  facet normal -1.624953e-01 -6.348770e-01 7.553320e-01
    outer loop
      vertex   3.731813e+02 2.671833e+02 9.074342e+01
      vertex   3.935000e+02 2.618093e+02 9.059765e+01
      vertex   3.734475e+02 2.681658e+02 9.162650e+01
    endloop
  endfacet
  facet normal -1.624953e-01 -6.348770e-01 7.553320e-01
    outer loop
      vertex   3.734475e+02 2.681658e+02 9.162650e+01
      vertex   3.935000e+02 2.618093e+02 9.059765e+01
      vertex   4.138187e+02 2.564354e+02 9.045189e+01
    endloop
  endfacet
  facet normal -1.624953e-01 -6.348770e-01 7.553320e-01
    outer loop
      vertex   3.734475e+02 2.681658e+02 9.162650e+01
      vertex   4.138187e+02 2.564354e+02 9.045189e+01
      vertex   4.344036e+02 2.520439e+02 9.118920e+01
    endloop
  endfacet
  facet normal -1.624953e-01 -6.348770e-01 7.553320e-01
    outer loop
      vertex   4.344036e+02 2.520439e+02 9.118920e+01
      vertex   4.138187e+02 2.564354e+02 9.045189e+01
      vertex   4.341375e+02 2.510614e+02 9.030612e+01
    endloop
  endfacet
  facet normal -1.891551e-01 -7.329145e-01 6.534957e-01
    outer loop
      vertex   4.341375e+02 2.510614e+02 9.030612e+01
      vertex   4.138187e+02 2.564354e+02 9.045189e+01
      vertex   4.339054e+02 2.502119e+02 8.928614e+01
    endloop
  endfacet
  facet normal -1.891551e-01 -7.329145e-01 6.534957e-01
    outer loop
      vertex   4.339054e+02 2.502119e+02 8.928614e+01
      vertex   4.138187e+02 2.564354e+02 9.045189e+01
      vertex   4.135867e+02 2.555858e+02 8.943191e+01
    endloop
  endfacet
  facet normal -2.119008e-01 -8.157860e-01 5.381368e-01
    outer loop
      vertex   4.339054e+02 2.502119e+02 8.928614e+01
      vertex   4.135867e+02 2.555858e+02 8.943191e+01
      vertex   4.337124e+02 2.495128e+02 8.815036e+01
    endloop
  endfacet
  facet normal -2.119008e-01 -8.157860e-01 5.381368e-01
    outer loop
      vertex   4.337124e+02 2.495128e+02 8.815036e+01
      vertex   4.135867e+02 2.555858e+02 8.943191e+01
      vertex   4.133937e+02 2.548867e+02 8.829613e+01
    endloop
  endfacet
  facet normal -2.302616e-01 -8.817767e-01 4.116424e-01
    outer loop
      vertex   4.337124e+02 2.495128e+02 8.815036e+01
      vertex   4.133937e+02 2.548867e+02 8.829613e+01
      vertex   4.335623e+02 2.489787e+02 8.692229e+01
    endloop
  endfacet
  facet normal -2.302616e-01 -8.817767e-01 4.116424e-01
    outer loop
      vertex   4.335623e+02 2.489787e+02 8.692229e+01
      vertex   4.133937e+02 2.548867e+02 8.829613e+01
      vertex   4.132436e+02 2.543526e+02 8.706806e+01
    endloop
  endfacet
  facet normal -2.438578e-01 -9.295210e-01 2.766299e-01
    outer loop
      vertex   4.335623e+02 2.489787e+02 8.692229e+01
      vertex   4.132436e+02 2.543526e+02 8.706806e+01
      vertex   4.334583e+02 2.486206e+02 8.562733e+01
    endloop
  endfacet
  facet normal -2.438578e-01 -9.295210e-01 2.766299e-01
    outer loop
      vertex   4.334583e+02 2.486206e+02 8.562733e+01
      vertex   4.132436e+02 2.543526e+02 8.706806e+01
      vertex   4.131396e+02 2.539945e+02 8.577310e+01
    endloop
  endfacet
  facet normal -2.438578e-01 -9.295210e-01 2.766299e-01
    outer loop
      vertex   3.929249e+02 2.597266e+02 8.721382e+01
      vertex   3.928209e+02 2.593685e+02 8.591886e+01
      vertex   4.131396e+02 2.539945e+02 8.577310e+01
    endloop
  endfacet
  facet normal -2.438578e-01 -9.295210e-01 2.766299e-01
    outer loop
      vertex   3.929249e+02 2.597266e+02 8.721382e+01
      vertex   4.131396e+02 2.539945e+02 8.577310e+01
      vertex   4.132436e+02 2.543526e+02 8.706806e+01
    endloop
  endfacet
  facet normal -2.302616e-01 -8.817767e-01 4.116424e-01
    outer loop
      vertex   3.930749e+02 2.602607e+02 8.844190e+01
      vertex   3.929249e+02 2.597266e+02 8.721382e+01
      vertex   4.132436e+02 2.543526e+02 8.706806e+01
    endloop
  endfacet
  facet normal -2.302616e-01 -8.817767e-01 4.116424e-01
    outer loop
      vertex   3.930749e+02 2.602607e+02 8.844190e+01
      vertex   4.132436e+02 2.543526e+02 8.706806e+01
      vertex   4.133937e+02 2.548867e+02 8.829613e+01
    endloop
  endfacet
  facet normal -2.119008e-01 -8.157860e-01 5.381368e-01
    outer loop
      vertex   3.932680e+02 2.609598e+02 8.957767e+01
      vertex   3.930749e+02 2.602607e+02 8.844190e+01
      vertex   4.133937e+02 2.548867e+02 8.829613e+01
    endloop
  endfacet
  facet normal -2.119008e-01 -8.157860e-01 5.381368e-01
    outer loop
      vertex   3.932680e+02 2.609598e+02 8.957767e+01
      vertex   4.133937e+02 2.548867e+02 8.829613e+01
      vertex   4.135867e+02 2.555858e+02 8.943191e+01
    endloop
  endfacet
  facet normal -1.891551e-01 -7.329145e-01 6.534957e-01
    outer loop
      vertex   3.935000e+02 2.618093e+02 9.059765e+01
      vertex   3.932680e+02 2.609598e+02 8.957767e+01
      vertex   4.135867e+02 2.555858e+02 8.943191e+01
    endloop
  endfacet
  facet normal -1.891551e-01 -7.329145e-01 6.534957e-01
    outer loop
      vertex   3.935000e+02 2.618093e+02 9.059765e+01
      vertex   4.135867e+02 2.555858e+02 8.943191e+01
      vertex   4.138187e+02 2.564354e+02 9.045189e+01
    endloop
  endfacet
  facet normal 2.556910e-01 9.667586e-01 1.394769e-16
    outer loop
      vertex   4.341689e+02 2.513463e+02 8.418646e+01
      vertex   4.338202e+02 2.514386e+02 3.217672e+01
      vertex   3.732127e+02 2.674682e+02 8.462376e+01
    endloop
  endfacet
  facet normal 2.556910e-01 9.667586e-01 2.149027e-15
    outer loop
      vertex   3.732127e+02 2.674682e+02 8.462376e+01
      vertex   4.338202e+02 2.514386e+02 3.217672e+01
      vertex   3.728640e+02 2.675604e+02 3.261402e+01
    endloop
  endfacet
  facet normal 1.801228e-01 6.955433e-01 -6.955395e-01
    outer loop
      vertex   4.345628e+02 2.527389e+02 8.775513e+01
      vertex   4.142038e+02 2.579659e+02 8.770975e+01
      vertex   4.347413e+02 2.533947e+02 8.845713e+01
    endloop
  endfacet
  facet normal 1.825187e-01 7.085850e-01 -6.816114e-01
    outer loop
      vertex   4.347413e+02 2.533947e+02 8.845713e+01
      vertex   4.142038e+02 2.579659e+02 8.770975e+01
      vertex   3.938851e+02 2.633398e+02 8.785551e+01
    endloop
  endfacet
  facet normal 1.857926e-01 7.230170e-01 -6.653778e-01
    outer loop
      vertex   4.347413e+02 2.533947e+02 8.845713e+01
      vertex   3.938851e+02 2.633398e+02 8.785551e+01
      vertex   3.736066e+02 2.688608e+02 8.819243e+01
    endloop
  endfacet
  facet normal 2.055295e-01 7.901434e-01 -5.774348e-01
    outer loop
      vertex   3.736066e+02 2.688608e+02 8.819243e+01
      vertex   3.938851e+02 2.633398e+02 8.785551e+01
      vertex   3.734570e+02 2.683167e+02 8.739473e+01
    endloop
  endfacet
  facet normal 2.120621e-01 8.213977e-01 -5.294672e-01
    outer loop
      vertex   3.734570e+02 2.683167e+02 8.739473e+01
      vertex   3.938851e+02 2.633398e+02 8.785551e+01
      vertex   3.937129e+02 2.627168e+02 8.682001e+01
    endloop
  endfacet
  facet normal 2.267589e-01 8.659656e-01 -4.457398e-01
    outer loop
      vertex   3.734570e+02 2.683167e+02 8.739473e+01
      vertex   3.937129e+02 2.627168e+02 8.682001e+01
      vertex   3.733398e+02 2.678972e+02 8.652010e+01
    endloop
  endfacet
  facet normal 2.350602e-01 9.036984e-01 -3.578769e-01
    outer loop
      vertex   3.733398e+02 2.678972e+02 8.652010e+01
      vertex   3.937129e+02 2.627168e+02 8.682001e+01
      vertex   3.935936e+02 2.622965e+02 8.568021e+01
    endloop
  endfacet
  facet normal 2.422384e-01 9.215093e-01 -3.035478e-01
    outer loop
      vertex   3.733398e+02 2.678972e+02 8.652010e+01
      vertex   3.935936e+02 2.622965e+02 8.568021e+01
      vertex   3.732577e+02 2.676122e+02 8.558914e+01
    endloop
  endfacet
  facet normal 2.505205e-01 9.557522e-01 -1.541985e-01
    outer loop
      vertex   3.732577e+02 2.676122e+02 8.558914e+01
      vertex   3.935936e+02 2.622965e+02 8.568021e+01
      vertex   3.732127e+02 2.674682e+02 8.462376e+01
    endloop
  endfacet
  facet normal 2.506680e-01 9.524633e-01 -1.731452e-01
    outer loop
      vertex   3.732127e+02 2.674682e+02 8.462376e+01
      vertex   3.935936e+02 2.622965e+02 8.568021e+01
      vertex   4.139123e+02 2.569225e+02 8.553444e+01
    endloop
  endfacet
  facet normal 2.501069e-01 9.484335e-01 -1.947317e-01
    outer loop
      vertex   3.732127e+02 2.674682e+02 8.462376e+01
      vertex   4.139123e+02 2.569225e+02 8.553444e+01
      vertex   4.342139e+02 2.514903e+02 8.515184e+01
    endloop
  endfacet
  facet normal 2.409436e-01 9.218517e-01 -3.035385e-01
    outer loop
      vertex   4.342139e+02 2.514903e+02 8.515184e+01
      vertex   4.139123e+02 2.569225e+02 8.553444e+01
      vertex   4.342960e+02 2.517754e+02 8.608280e+01
    endloop
  endfacet
  facet normal 2.376491e-01 9.030137e-01 -3.578954e-01
    outer loop
      vertex   4.342960e+02 2.517754e+02 8.608280e+01
      vertex   4.139123e+02 2.569225e+02 8.553444e+01
      vertex   4.140316e+02 2.573428e+02 8.667425e+01
    endloop
  endfacet
  facet normal 2.250324e-01 8.664222e-01 -4.457274e-01
    outer loop
      vertex   4.342960e+02 2.517754e+02 8.608280e+01
      vertex   4.140316e+02 2.573428e+02 8.667425e+01
      vertex   4.344132e+02 2.521949e+02 8.695743e+01
    endloop
  endfacet
  facet normal 2.146510e-01 8.207130e-01 -5.294857e-01
    outer loop
      vertex   4.344132e+02 2.521949e+02 8.695743e+01
      vertex   4.140316e+02 2.573428e+02 8.667425e+01
      vertex   4.142038e+02 2.579659e+02 8.770975e+01
    endloop
  endfacet
  facet normal 2.042348e-01 7.904859e-01 -5.774255e-01
    outer loop
      vertex   4.344132e+02 2.521949e+02 8.695743e+01
      vertex   4.142038e+02 2.579659e+02 8.770975e+01
      vertex   4.345628e+02 2.527389e+02 8.775513e+01
    endloop
  endfacet
  facet normal 2.515985e-01 9.554677e-01 -1.542063e-01
    outer loop
      vertex   4.342139e+02 2.514903e+02 8.515184e+01
      vertex   4.341689e+02 2.513463e+02 8.418646e+01
      vertex   3.732127e+02 2.674682e+02 8.462376e+01
    endloop
  endfacet
  facet normal 1.790450e-01 6.958288e-01 -6.955322e-01
    outer loop
      vertex   3.736066e+02 2.688608e+02 8.819243e+01
      vertex   3.737851e+02 2.695166e+02 8.889443e+01
      vertex   4.347413e+02 2.533947e+02 8.845713e+01
    endloop
  endfacet
  facet normal 2.133567e-01 8.210561e-01 -5.294769e-01
    outer loop
      vertex   3.937129e+02 2.627168e+02 8.682001e+01
      vertex   3.938851e+02 2.633398e+02 8.785551e+01
      vertex   4.142038e+02 2.579659e+02 8.770975e+01
    endloop
  endfacet
  facet normal 2.363549e-01 9.033569e-01 -3.578865e-01
    outer loop
      vertex   3.935936e+02 2.622965e+02 8.568021e+01
      vertex   3.937129e+02 2.627168e+02 8.682001e+01
      vertex   4.140316e+02 2.573428e+02 8.667425e+01
    endloop
  endfacet
  facet normal 2.133567e-01 8.210561e-01 -5.294769e-01
    outer loop
      vertex   4.140316e+02 2.573428e+02 8.667425e+01
      vertex   3.937129e+02 2.627168e+02 8.682001e+01
      vertex   4.142038e+02 2.579659e+02 8.770975e+01
    endloop
  endfacet
  facet normal 2.363549e-01 9.033569e-01 -3.578865e-01
    outer loop
      vertex   4.139123e+02 2.569225e+02 8.553444e+01
      vertex   3.935936e+02 2.622965e+02 8.568021e+01
      vertex   4.140316e+02 2.573428e+02 8.667425e+01
    endloop
  endfacet
  facet normal 5.994794e-02 2.528538e-01 -9.656455e-01
    outer loop
      vertex   4.394457e+02 2.710487e+02 9.337187e+01
      vertex   4.347413e+02 2.533947e+02 8.845713e+01
      vertex   3.784895e+02 2.871705e+02 9.380917e+01
    endloop
  endfacet
  facet normal 5.994794e-02 2.528538e-01 -9.656455e-01
    outer loop
      vertex   3.784895e+02 2.871705e+02 9.380917e+01
      vertex   4.347413e+02 2.533947e+02 8.845713e+01
      vertex   3.737851e+02 2.695166e+02 8.889443e+01
    endloop
  endfacet
  facet normal -6.704828e-03 1.773312e-03 -9.999760e-01
    outer loop
      vertex   4.417331e+02 2.796970e+02 9.337187e+01
      vertex   4.394457e+02 2.710487e+02 9.337187e+01
      vertex   4.001116e+02 2.907052e+02 9.367046e+01
    endloop
  endfacet
  facet normal -6.704828e-03 1.773312e-03 -9.999760e-01
    outer loop
      vertex   4.001116e+02 2.907052e+02 9.367046e+01
      vertex   4.394457e+02 2.710487e+02 9.337187e+01
      vertex   3.784895e+02 2.871705e+02 9.380917e+01
    endloop
  endfacet
  facet normal -6.704828e-03 1.773312e-03 -9.999760e-01
    outer loop
      vertex   4.001116e+02 2.907052e+02 9.367046e+01
      vertex   3.784895e+02 2.871705e+02 9.380917e+01
      vertex   3.969848e+02 3.571003e+02 9.380917e+01
    endloop
  endfacet
  facet normal -6.704828e-03 1.773312e-03 -9.999760e-01
    outer loop
      vertex   3.969848e+02 3.571003e+02 9.380917e+01
      vertex   4.163195e+02 3.519866e+02 9.367046e+01
      vertex   4.001116e+02 2.907052e+02 9.367046e+01
    endloop
  endfacet
  facet normal 2.556910e-01 9.667586e-01 1.577165e-14
    outer loop
      vertex   3.968078e+02 2.915790e+02 1.055932e+02
      vertex   4.418128e+02 2.796759e+02 1.052704e+02
      vertex   4.030715e+02 2.899223e+02 1.025482e+02
    endloop
  endfacet
  facet normal 2.556910e-01 9.667586e-01 2.385427e-15
    outer loop
      vertex   4.030715e+02 2.899223e+02 1.025482e+02
      vertex   4.418128e+02 2.796759e+02 1.052704e+02
      vertex   4.417331e+02 2.796970e+02 9.337187e+01
    endloop
  endfacet
  facet normal 2.556910e-01 9.667586e-01 -6.018262e-15
    outer loop
      vertex   4.030715e+02 2.899223e+02 1.025482e+02
      vertex   4.417331e+02 2.796970e+02 9.337187e+01
      vertex   4.030319e+02 2.899328e+02 9.664958e+01
    endloop
  endfacet
  facet normal 2.556910e-01 9.667586e-01 1.323044e-14
    outer loop
      vertex   4.030319e+02 2.899328e+02 9.664958e+01
      vertex   4.417331e+02 2.796970e+02 9.337187e+01
      vertex   4.001116e+02 2.907052e+02 9.367046e+01
    endloop
  endfacet
  facet normal 2.556910e-01 9.667586e-01 2.481965e-14
    outer loop
      vertex   4.030319e+02 2.899328e+02 9.664958e+01
      vertex   4.001116e+02 2.907052e+02 9.367046e+01
      vertex   4.001317e+02 2.906999e+02 9.667039e+01
    endloop
  endfacet
  facet normal 2.556910e-01 9.667586e-01 -3.279428e-15
    outer loop
      vertex   4.030715e+02 2.899223e+02 1.025482e+02
      vertex   3.967877e+02 2.915843e+02 1.025933e+02
      vertex   3.968078e+02 2.915790e+02 1.055932e+02
    endloop
  endfacet
  facet normal -2.556910e-01 -9.667586e-01 -2.798576e-16
    outer loop
      vertex   4.330364e+02 2.485427e+02 2.968228e+01
      vertex   4.334025e+02 2.484459e+02 8.429229e+01
      vertex   3.720802e+02 2.646646e+02 3.011958e+01
    endloop
  endfacet
  facet normal -2.556910e-01 -9.667586e-01 -4.152726e-17
    outer loop
      vertex   3.720802e+02 2.646646e+02 3.011958e+01
      vertex   4.334025e+02 2.484459e+02 8.429229e+01
      vertex   3.724464e+02 2.645677e+02 8.472959e+01
    endloop
  endfacet
  facet normal -9.667353e-01 2.556849e-01 6.935369e-03
    outer loop
      vertex   3.720802e+02 2.646646e+02 3.011958e+01
      vertex   3.965733e+02 3.572091e+02 3.244393e+01
      vertex   3.973236e+02 3.601138e+02 2.993848e+01
    endloop
  endfacet
  facet normal -9.667353e-01 2.556849e-01 6.935369e-03
    outer loop
      vertex   3.973236e+02 3.601138e+02 2.993848e+01
      vertex   3.965733e+02 3.572091e+02 3.244393e+01
      vertex   3.969848e+02 3.571003e+02 9.380917e+01
    endloop
  endfacet
  facet normal -9.667353e-01 2.556849e-01 6.935369e-03
    outer loop
      vertex   3.973236e+02 3.601138e+02 2.993848e+01
      vertex   3.969848e+02 3.571003e+02 9.380917e+01
      vertex   3.977720e+02 3.599952e+02 9.680909e+01
    endloop
  endfacet
  facet normal -9.667353e-01 2.556849e-01 6.935369e-03
    outer loop
      vertex   3.977720e+02 3.599952e+02 9.680909e+01
      vertex   3.969848e+02 3.571003e+02 9.380917e+01
      vertex   3.784083e+02 2.867819e+02 9.680909e+01
    endloop
  endfacet
  facet normal -9.667353e-01 2.556849e-01 6.935369e-03
    outer loop
      vertex   3.784083e+02 2.867819e+02 9.680909e+01
      vertex   3.969848e+02 3.571003e+02 9.380917e+01
      vertex   3.784895e+02 2.871705e+02 9.380917e+01
    endloop
  endfacet
  facet normal -9.667353e-01 2.556849e-01 6.935369e-03
    outer loop
      vertex   3.784083e+02 2.867819e+02 9.680909e+01
      vertex   3.784895e+02 2.871705e+02 9.380917e+01
      vertex   3.734475e+02 2.681658e+02 9.162650e+01
    endloop
  endfacet
  facet normal -9.667353e-01 2.556849e-01 6.935369e-03
    outer loop
      vertex   3.734475e+02 2.681658e+02 9.162650e+01
      vertex   3.784895e+02 2.871705e+02 9.380917e+01
      vertex   3.737851e+02 2.695166e+02 8.889443e+01
    endloop
  endfacet
  facet normal -9.667353e-01 2.556849e-01 6.935369e-03
    outer loop
      vertex   3.734475e+02 2.681658e+02 9.162650e+01
      vertex   3.737851e+02 2.695166e+02 8.889443e+01
      vertex   3.731813e+02 2.671833e+02 9.074342e+01
    endloop
  endfacet
  facet normal -9.667353e-01 2.556849e-01 6.935369e-03
    outer loop
      vertex   3.731813e+02 2.671833e+02 9.074342e+01
      vertex   3.737851e+02 2.695166e+02 8.889443e+01
      vertex   3.729493e+02 2.663337e+02 8.972344e+01
    endloop
  endfacet
  facet normal -9.667353e-01 2.556849e-01 6.935369e-03
    outer loop
      vertex   3.729493e+02 2.663337e+02 8.972344e+01
      vertex   3.737851e+02 2.695166e+02 8.889443e+01
      vertex   3.736066e+02 2.688608e+02 8.819243e+01
    endloop
  endfacet
  facet normal -9.667353e-01 2.556849e-01 6.935369e-03
    outer loop
      vertex   3.729493e+02 2.663337e+02 8.972344e+01
      vertex   3.736066e+02 2.688608e+02 8.819243e+01
      vertex   3.727562e+02 2.656346e+02 8.858766e+01
    endloop
  endfacet
  facet normal -9.667353e-01 2.556849e-01 6.935369e-03
    outer loop
      vertex   3.727562e+02 2.656346e+02 8.858766e+01
      vertex   3.736066e+02 2.688608e+02 8.819243e+01
      vertex   3.734570e+02 2.683167e+02 8.739473e+01
    endloop
  endfacet
  facet normal -9.667353e-01 2.556849e-01 6.935369e-03
    outer loop
      vertex   3.727562e+02 2.656346e+02 8.858766e+01
      vertex   3.734570e+02 2.683167e+02 8.739473e+01
      vertex   3.726061e+02 2.651005e+02 8.735959e+01
    endloop
  endfacet
  facet normal -9.667353e-01 2.556849e-01 6.935369e-03
    outer loop
      vertex   3.726061e+02 2.651005e+02 8.735959e+01
      vertex   3.734570e+02 2.683167e+02 8.739473e+01
      vertex   3.733398e+02 2.678972e+02 8.652010e+01
    endloop
  endfacet
  facet normal -9.667353e-01 2.556849e-01 6.935369e-03
    outer loop
      vertex   3.726061e+02 2.651005e+02 8.735959e+01
      vertex   3.733398e+02 2.678972e+02 8.652010e+01
      vertex   3.725021e+02 2.647424e+02 8.606463e+01
    endloop
  endfacet
  facet normal -9.667353e-01 2.556849e-01 6.935369e-03
    outer loop
      vertex   3.725021e+02 2.647424e+02 8.606463e+01
      vertex   3.733398e+02 2.678972e+02 8.652010e+01
      vertex   3.732577e+02 2.676122e+02 8.558914e+01
    endloop
  endfacet
  facet normal -9.667353e-01 2.556849e-01 6.935369e-03
    outer loop
      vertex   3.725021e+02 2.647424e+02 8.606463e+01
      vertex   3.732577e+02 2.676122e+02 8.558914e+01
      vertex   3.724464e+02 2.645677e+02 8.472959e+01
    endloop
  endfacet
  facet normal -9.667353e-01 2.556849e-01 6.935369e-03
    outer loop
      vertex   3.724464e+02 2.645677e+02 8.472959e+01
      vertex   3.732577e+02 2.676122e+02 8.558914e+01
      vertex   3.732127e+02 2.674682e+02 8.462376e+01
    endloop
  endfacet
  facet normal -9.667353e-01 2.556849e-01 6.935369e-03
    outer loop
      vertex   3.724464e+02 2.645677e+02 8.472959e+01
      vertex   3.732127e+02 2.674682e+02 8.462376e+01
      vertex   3.728640e+02 2.675604e+02 3.261402e+01
    endloop
  endfacet
  facet normal -9.667353e-01 2.556849e-01 6.935369e-03
    outer loop
      vertex   3.965733e+02 3.572091e+02 3.244393e+01
      vertex   3.720802e+02 2.646646e+02 3.011958e+01
      vertex   3.728640e+02 2.675604e+02 3.261402e+01
    endloop
  endfacet
  facet normal -9.667353e-01 2.556849e-01 6.935369e-03
    outer loop
      vertex   3.728640e+02 2.675604e+02 3.261402e+01
      vertex   3.720802e+02 2.646646e+02 3.011958e+01
      vertex   3.724464e+02 2.645677e+02 8.472959e+01
    endloop
  endfacet
  facet normal 6.704828e-03 -1.773312e-03 9.999760e-01
    outer loop
      vertex   4.397573e+02 2.719041e+02 1.052704e+02
      vertex   4.418128e+02 2.796759e+02 1.052704e+02
      vertex   3.947523e+02 2.838071e+02 1.055932e+02
    endloop
  endfacet
  facet normal 6.704828e-03 -1.773312e-03 9.999760e-01
    outer loop
      vertex   3.947523e+02 2.838071e+02 1.055932e+02
      vertex   4.418128e+02 2.796759e+02 1.052704e+02
      vertex   3.968078e+02 2.915790e+02 1.055932e+02
    endloop
  endfacet
  facet normal 2.556910e-01 9.667586e-01 7.371544e-16
    outer loop
      vertex   4.399542e+02 2.718520e+02 1.346321e+02
      vertex   4.397573e+02 2.719041e+02 1.052704e+02
      vertex   3.949491e+02 2.837550e+02 1.349550e+02
    endloop
  endfacet
  facet normal 2.556910e-01 9.667586e-01 -1.619206e-15
    outer loop
      vertex   3.949491e+02 2.837550e+02 1.349550e+02
      vertex   4.397573e+02 2.719041e+02 1.052704e+02
      vertex   3.947523e+02 2.838071e+02 1.055932e+02
    endloop
  endfacet
  facet normal -6.704828e-03 1.773312e-03 -9.999760e-01
    outer loop
      vertex   4.595594e+02 3.459785e+02 1.346321e+02
      vertex   4.399542e+02 2.718520e+02 1.346321e+02
      vertex   4.145543e+02 3.578816e+02 1.349550e+02
    endloop
  endfacet
  facet normal -6.704828e-03 1.773312e-03 -9.999760e-01
    outer loop
      vertex   4.145543e+02 3.578816e+02 1.349550e+02
      vertex   4.399542e+02 2.718520e+02 1.346321e+02
      vertex   3.949491e+02 2.837550e+02 1.349550e+02
    endloop
  endfacet
  facet normal -2.556910e-01 -9.667586e-01 -2.124070e-15
    outer loop
      vertex   4.593625e+02 3.460306e+02 1.052704e+02
      vertex   4.595594e+02 3.459785e+02 1.346321e+02
      vertex   4.143575e+02 3.579337e+02 1.055932e+02
    endloop
  endfacet
  facet normal -2.556910e-01 -9.667586e-01 1.138382e-15
    outer loop
      vertex   4.143575e+02 3.579337e+02 1.055932e+02
      vertex   4.595594e+02 3.459785e+02 1.346321e+02
      vertex   4.145543e+02 3.578816e+02 1.349550e+02
    endloop
  endfacet
  facet normal 6.704828e-03 -1.773312e-03 9.999760e-01
    outer loop
      vertex   4.580207e+02 3.409573e+02 1.052704e+02
      vertex   4.593625e+02 3.460306e+02 1.052704e+02
      vertex   4.130157e+02 3.528604e+02 1.055932e+02
    endloop
  endfacet
  facet normal 6.704828e-03 -1.773312e-03 9.999760e-01
    outer loop
      vertex   4.130157e+02 3.528604e+02 1.055932e+02
      vertex   4.593625e+02 3.460306e+02 1.052704e+02
      vertex   4.143575e+02 3.579337e+02 1.055932e+02
    endloop
  endfacet
  facet normal -2.556910e-01 -9.667586e-01 -4.664032e-16
    outer loop
      vertex   4.580207e+02 3.409573e+02 1.052704e+02
      vertex   4.192398e+02 3.512142e+02 9.664958e+01
      vertex   4.575295e+02 3.410872e+02 3.200663e+01
    endloop
  endfacet
  facet normal -2.556910e-01 -9.667586e-01 5.080797e-15
    outer loop
      vertex   4.575295e+02 3.410872e+02 3.200663e+01
      vertex   4.192398e+02 3.512142e+02 9.664958e+01
      vertex   4.163195e+02 3.519866e+02 9.367046e+01
    endloop
  endfacet
  facet normal -2.556910e-01 -9.667586e-01 -2.879342e-15
    outer loop
      vertex   4.575295e+02 3.410872e+02 3.200663e+01
      vertex   4.163195e+02 3.519866e+02 9.367046e+01
      vertex   3.965733e+02 3.572091e+02 3.244393e+01
    endloop
  endfacet
  facet normal -2.556910e-01 -9.667586e-01 -4.044562e-15
    outer loop
      vertex   3.965733e+02 3.572091e+02 3.244393e+01
      vertex   4.163195e+02 3.519866e+02 9.367046e+01
      vertex   3.969848e+02 3.571003e+02 9.380917e+01
    endloop
  endfacet
  facet normal -2.556910e-01 -9.667586e-01 -3.297298e-15
    outer loop
      vertex   4.192398e+02 3.512142e+02 9.664958e+01
      vertex   4.580207e+02 3.409573e+02 1.052704e+02
      vertex   4.192793e+02 3.512037e+02 1.025482e+02
    endloop
  endfacet
  facet normal -2.556910e-01 -9.667586e-01 -5.087628e-15
    outer loop
      vertex   4.192793e+02 3.512037e+02 1.025482e+02
      vertex   4.580207e+02 3.409573e+02 1.052704e+02
      vertex   4.130157e+02 3.528604e+02 1.055932e+02
    endloop
  endfacet
  facet normal -2.556910e-01 -9.667586e-01 -6.376666e-15
    outer loop
      vertex   4.192793e+02 3.512037e+02 1.025482e+02
      vertex   4.130157e+02 3.528604e+02 1.055932e+02
      vertex   4.129956e+02 3.528657e+02 1.025933e+02
    endloop
  endfacet
  facet normal -2.556910e-01 -9.667586e-01 3.207311e-15
    outer loop
      vertex   4.192398e+02 3.512142e+02 9.664958e+01
      vertex   4.163396e+02 3.519813e+02 9.667039e+01
      vertex   4.163195e+02 3.519866e+02 9.367046e+01
    endloop
  endfacet
  facet normal -7.173826e-03 -3.763667e-16 -9.999743e-01
    outer loop
      vertex   4.582798e+02 3.439920e+02 2.950118e+01
      vertex   4.330364e+02 2.485427e+02 2.968228e+01
      vertex   3.973236e+02 3.601138e+02 2.993848e+01
    endloop
  endfacet
  facet normal -7.173826e-03 -4.853675e-16 -9.999743e-01
    outer loop
      vertex   3.973236e+02 3.601138e+02 2.993848e+01
      vertex   4.330364e+02 2.485427e+02 2.968228e+01
      vertex   3.720802e+02 2.646646e+02 3.011958e+01
    endloop
  endfacet
  facet normal 2.556910e-01 9.667586e-01 -6.028195e-15
    outer loop
      vertex   4.137626e+02 3.557660e+02 1.025933e+02
      vertex   4.587677e+02 3.438629e+02 1.022704e+02
      vertex   4.137231e+02 3.557764e+02 9.669466e+01
    endloop
  endfacet
  facet normal 2.556910e-01 9.667586e-01 7.718379e-16
    outer loop
      vertex   4.137231e+02 3.557764e+02 9.669466e+01
      vertex   4.587677e+02 3.438629e+02 1.022704e+02
      vertex   4.582798e+02 3.439920e+02 2.950118e+01
    endloop
  endfacet
  facet normal 2.556910e-01 9.667586e-01 3.774699e-16
    outer loop
      vertex   4.137231e+02 3.557764e+02 9.669466e+01
      vertex   4.582798e+02 3.439920e+02 2.950118e+01
      vertex   3.973236e+02 3.601138e+02 2.993848e+01
    endloop
  endfacet
  facet normal 2.556910e-01 9.667586e-01 1.535448e-16
    outer loop
      vertex   3.973236e+02 3.601138e+02 2.993848e+01
      vertex   3.977720e+02 3.599952e+02 9.680909e+01
      vertex   4.137231e+02 3.557764e+02 9.669466e+01
    endloop
  endfacet
  facet normal -6.704828e-03 1.773312e-03 -9.999760e-01
    outer loop
      vertex   4.601095e+02 3.489362e+02 1.022704e+02
      vertex   4.587677e+02 3.438629e+02 1.022704e+02
      vertex   4.151044e+02 3.608393e+02 1.025933e+02
    endloop
  endfacet
  facet normal -6.704828e-03 1.773312e-03 -9.999760e-01
    outer loop
      vertex   4.151044e+02 3.608393e+02 1.025933e+02
      vertex   4.587677e+02 3.438629e+02 1.022704e+02
      vertex   4.137626e+02 3.557660e+02 1.025933e+02
    endloop
  endfacet
  facet normal 2.556910e-01 9.667586e-01 2.017788e-15
    outer loop
      vertex   4.603466e+02 3.488735e+02 1.376320e+02
      vertex   4.601095e+02 3.489362e+02 1.022704e+02
      vertex   4.153415e+02 3.607766e+02 1.379549e+02
    endloop
  endfacet
  facet normal 2.556910e-01 9.667586e-01 4.718063e-16
    outer loop
      vertex   4.153415e+02 3.607766e+02 1.379549e+02
      vertex   4.601095e+02 3.489362e+02 1.022704e+02
      vertex   4.151044e+02 3.608393e+02 1.025933e+02
    endloop
  endfacet
  facet normal 6.704828e-03 -1.773312e-03 9.999760e-01
    outer loop
      vertex   4.392072e+02 2.689464e+02 1.376320e+02
      vertex   4.603466e+02 3.488735e+02 1.376320e+02
      vertex   4.141894e+02 2.755632e+02 1.378115e+02
    endloop
  endfacet
  facet normal 6.704828e-03 -1.773312e-03 9.999760e-01
    outer loop
      vertex   4.141894e+02 2.755632e+02 1.378115e+02
      vertex   4.603466e+02 3.488735e+02 1.376320e+02
      vertex   4.153415e+02 3.607766e+02 1.379549e+02
    endloop
  endfacet
  facet normal 6.704828e-03 -1.773312e-03 9.999760e-01
    outer loop
      vertex   4.141894e+02 2.755632e+02 1.378115e+02
      vertex   4.153415e+02 3.607766e+02 1.379549e+02
      vertex   4.014991e+02 2.706445e+02 1.378879e+02
    endloop
  endfacet
  facet normal 6.704828e-03 -1.773312e-03 9.999760e-01
    outer loop
      vertex   4.014991e+02 2.706445e+02 1.378879e+02
      vertex   4.153415e+02 3.607766e+02 1.379549e+02
      vertex   3.921567e+02 2.731154e+02 1.379549e+02
    endloop
  endfacet
  facet normal -2.556910e-01 -9.667586e-01 -1.303714e-15
    outer loop
      vertex   4.012620e+02 2.707072e+02 1.025263e+02
      vertex   4.014991e+02 2.706445e+02 1.378879e+02
      vertex   3.919196e+02 2.731781e+02 1.025933e+02
    endloop
  endfacet
  facet normal -2.556910e-01 -9.667586e-01 7.108214e-16
    outer loop
      vertex   3.919196e+02 2.731781e+02 1.025933e+02
      vertex   4.014991e+02 2.706445e+02 1.378879e+02
      vertex   3.921567e+02 2.731154e+02 1.379549e+02
    endloop
  endfacet
  facet normal 9.667353e-01 -2.556849e-01 -6.935369e-03
    outer loop
      vertex   4.582798e+02 3.439920e+02 2.950118e+01
      vertex   4.575295e+02 3.410872e+02 3.200663e+01
      vertex   4.330364e+02 2.485427e+02 2.968228e+01
    endloop
  endfacet
  facet normal 9.667353e-01 -2.556849e-01 -6.935369e-03
    outer loop
      vertex   4.330364e+02 2.485427e+02 2.968228e+01
      vertex   4.575295e+02 3.410872e+02 3.200663e+01
      vertex   4.338202e+02 2.514386e+02 3.217672e+01
    endloop
  endfacet
  facet normal 9.667353e-01 -2.556849e-01 -6.935369e-03
    outer loop
      vertex   4.330364e+02 2.485427e+02 2.968228e+01
      vertex   4.338202e+02 2.514386e+02 3.217672e+01
      vertex   4.334025e+02 2.484459e+02 8.429229e+01
    endloop
  endfacet
  facet normal 9.667353e-01 -2.556849e-01 -6.935369e-03
    outer loop
      vertex   4.334025e+02 2.484459e+02 8.429229e+01
      vertex   4.338202e+02 2.514386e+02 3.217672e+01
      vertex   4.341689e+02 2.513463e+02 8.418646e+01
    endloop
  endfacet
  facet normal 9.667353e-01 -2.556849e-01 -6.935369e-03
    outer loop
      vertex   4.334025e+02 2.484459e+02 8.429229e+01
      vertex   4.341689e+02 2.513463e+02 8.418646e+01
      vertex   4.334583e+02 2.486206e+02 8.562733e+01
    endloop
  endfacet
  facet normal 9.667353e-01 -2.556849e-01 -6.935369e-03
    outer loop
      vertex   4.334583e+02 2.486206e+02 8.562733e+01
      vertex   4.341689e+02 2.513463e+02 8.418646e+01
      vertex   4.342139e+02 2.514903e+02 8.515184e+01
    endloop
  endfacet
  facet normal 9.667353e-01 -2.556849e-01 -6.935369e-03
    outer loop
      vertex   4.334583e+02 2.486206e+02 8.562733e+01
      vertex   4.342139e+02 2.514903e+02 8.515184e+01
      vertex   4.335623e+02 2.489787e+02 8.692229e+01
    endloop
  endfacet
  facet normal 9.667353e-01 -2.556849e-01 -6.935369e-03
    outer loop
      vertex   4.335623e+02 2.489787e+02 8.692229e+01
      vertex   4.342139e+02 2.514903e+02 8.515184e+01
      vertex   4.342960e+02 2.517754e+02 8.608280e+01
    endloop
  endfacet
  facet normal 9.667353e-01 -2.556849e-01 -6.935369e-03
    outer loop
      vertex   4.335623e+02 2.489787e+02 8.692229e+01
      vertex   4.342960e+02 2.517754e+02 8.608280e+01
      vertex   4.337124e+02 2.495128e+02 8.815036e+01
    endloop
  endfacet
  facet normal 9.667353e-01 -2.556849e-01 -6.935369e-03
    outer loop
      vertex   4.337124e+02 2.495128e+02 8.815036e+01
      vertex   4.342960e+02 2.517754e+02 8.608280e+01
      vertex   4.344132e+02 2.521949e+02 8.695743e+01
    endloop
  endfacet
  facet normal 9.667353e-01 -2.556849e-01 -6.935369e-03
    outer loop
      vertex   4.337124e+02 2.495128e+02 8.815036e+01
      vertex   4.344132e+02 2.521949e+02 8.695743e+01
      vertex   4.339054e+02 2.502119e+02 8.928614e+01
    endloop
  endfacet
  facet normal 9.667353e-01 -2.556849e-01 -6.935369e-03
    outer loop
      vertex   4.339054e+02 2.502119e+02 8.928614e+01
      vertex   4.344132e+02 2.521949e+02 8.695743e+01
      vertex   4.345628e+02 2.527389e+02 8.775513e+01
    endloop
  endfacet
  facet normal 9.667353e-01 -2.556849e-01 -6.935369e-03
    outer loop
      vertex   4.339054e+02 2.502119e+02 8.928614e+01
      vertex   4.345628e+02 2.527389e+02 8.775513e+01
      vertex   4.341375e+02 2.510614e+02 9.030612e+01
    endloop
  endfacet
  facet normal 9.667353e-01 -2.556849e-01 -6.935369e-03
    outer loop
      vertex   4.341375e+02 2.510614e+02 9.030612e+01
      vertex   4.345628e+02 2.527389e+02 8.775513e+01
      vertex   4.347413e+02 2.533947e+02 8.845713e+01
    endloop
  endfacet
  facet normal 9.667353e-01 -2.556849e-01 -6.935369e-03
    outer loop
      vertex   4.341375e+02 2.510614e+02 9.030612e+01
      vertex   4.347413e+02 2.533947e+02 8.845713e+01
      vertex   4.344036e+02 2.520439e+02 9.118920e+01
    endloop
  endfacet
  facet normal 9.667353e-01 -2.556849e-01 -6.935369e-03
    outer loop
      vertex   4.344036e+02 2.520439e+02 9.118920e+01
      vertex   4.347413e+02 2.533947e+02 8.845713e+01
      vertex   4.393645e+02 2.706600e+02 9.637179e+01
    endloop
  endfacet
  facet normal 9.667353e-01 -2.556849e-01 -6.935369e-03
    outer loop
      vertex   4.393645e+02 2.706600e+02 9.637179e+01
      vertex   4.347413e+02 2.533947e+02 8.845713e+01
      vertex   4.394457e+02 2.710487e+02 9.337187e+01
    endloop
  endfacet
  facet normal 9.667353e-01 -2.556849e-01 -6.935369e-03
    outer loop
      vertex   4.393645e+02 2.706600e+02 9.637179e+01
      vertex   4.394457e+02 2.710487e+02 9.337187e+01
      vertex   4.409861e+02 2.767914e+02 9.637179e+01
    endloop
  endfacet
  facet normal 9.667353e-01 -2.556849e-01 -6.935369e-03
    outer loop
      vertex   4.409861e+02 2.767914e+02 9.637179e+01
      vertex   4.394457e+02 2.710487e+02 9.337187e+01
      vertex   4.417331e+02 2.796970e+02 9.337187e+01
    endloop
  endfacet
  facet normal 9.667353e-01 -2.556849e-01 -6.935369e-03
    outer loop
      vertex   4.409861e+02 2.767914e+02 9.637179e+01
      vertex   4.417331e+02 2.796970e+02 9.337187e+01
      vertex   4.418128e+02 2.796759e+02 1.052704e+02
    endloop
  endfacet
  facet normal 9.667353e-01 -2.556849e-01 -6.935369e-03
    outer loop
      vertex   4.582798e+02 3.439920e+02 2.950118e+01
      vertex   4.587677e+02 3.438629e+02 1.022704e+02
      vertex   4.575295e+02 3.410872e+02 3.200663e+01
    endloop
  endfacet
  facet normal 9.667353e-01 -2.556849e-01 -6.935369e-03
    outer loop
      vertex   4.575295e+02 3.410872e+02 3.200663e+01
      vertex   4.587677e+02 3.438629e+02 1.022704e+02
      vertex   4.580207e+02 3.409573e+02 1.052704e+02
    endloop
  endfacet
  facet normal 9.667353e-01 -2.556849e-01 -6.935369e-03
    outer loop
      vertex   4.580207e+02 3.409573e+02 1.052704e+02
      vertex   4.587677e+02 3.438629e+02 1.022704e+02
      vertex   4.593625e+02 3.460306e+02 1.052704e+02
    endloop
  endfacet
  facet normal 9.667353e-01 -2.556849e-01 -6.935369e-03
    outer loop
      vertex   4.593625e+02 3.460306e+02 1.052704e+02
      vertex   4.587677e+02 3.438629e+02 1.022704e+02
      vertex   4.601095e+02 3.489362e+02 1.022704e+02
    endloop
  endfacet
  facet normal 9.667353e-01 -2.556849e-01 -6.935369e-03
    outer loop
      vertex   4.593625e+02 3.460306e+02 1.052704e+02
      vertex   4.601095e+02 3.489362e+02 1.022704e+02
      vertex   4.603466e+02 3.488735e+02 1.376320e+02
    endloop
  endfacet
  facet normal 9.667353e-01 -2.556849e-01 -6.935369e-03
    outer loop
      vertex   4.392072e+02 2.689464e+02 1.376320e+02
      vertex   4.399542e+02 2.718520e+02 1.346321e+02
      vertex   4.603466e+02 3.488735e+02 1.376320e+02
    endloop
  endfacet
  facet normal 9.667353e-01 -2.556849e-01 -6.935369e-03
    outer loop
      vertex   4.603466e+02 3.488735e+02 1.376320e+02
      vertex   4.399542e+02 2.718520e+02 1.346321e+02
      vertex   4.595594e+02 3.459785e+02 1.346321e+02
    endloop
  endfacet
  facet normal 9.667353e-01 -2.556849e-01 -6.935369e-03
    outer loop
      vertex   4.603466e+02 3.488735e+02 1.376320e+02
      vertex   4.595594e+02 3.459785e+02 1.346321e+02
      vertex   4.593625e+02 3.460306e+02 1.052704e+02
    endloop
  endfacet
  facet normal 9.667353e-01 -2.556849e-01 -6.935369e-03
    outer loop
      vertex   4.392072e+02 2.689464e+02 1.376320e+02
      vertex   4.389701e+02 2.690091e+02 1.022704e+02
      vertex   4.399542e+02 2.718520e+02 1.346321e+02
    endloop
  endfacet
  facet normal 9.667353e-01 -2.556849e-01 -6.935369e-03
    outer loop
      vertex   4.399542e+02 2.718520e+02 1.346321e+02
      vertex   4.389701e+02 2.690091e+02 1.022704e+02
      vertex   4.397573e+02 2.719041e+02 1.052704e+02
    endloop
  endfacet
  facet normal 9.667353e-01 -2.556849e-01 -6.935369e-03
    outer loop
      vertex   4.397573e+02 2.719041e+02 1.052704e+02
      vertex   4.389701e+02 2.690091e+02 1.022704e+02
      vertex   4.410257e+02 2.767810e+02 1.022704e+02
    endloop
  endfacet
  facet normal 9.667353e-01 -2.556849e-01 -6.935369e-03
    outer loop
      vertex   4.397573e+02 2.719041e+02 1.052704e+02
      vertex   4.410257e+02 2.767810e+02 1.022704e+02
      vertex   4.418128e+02 2.796759e+02 1.052704e+02
    endloop
  endfacet
  facet normal 9.667353e-01 -2.556849e-01 -6.935369e-03
    outer loop
      vertex   4.418128e+02 2.796759e+02 1.052704e+02
      vertex   4.410257e+02 2.767810e+02 1.022704e+02
      vertex   4.409861e+02 2.767914e+02 9.637179e+01
    endloop
  endfacet
  facet normal 3.613744e-01 -9.324119e-01 -4.076508e-03
    outer loop
      vertex   4.139523e+02 2.756259e+02 1.024499e+02
      vertex   4.141894e+02 2.755632e+02 1.378115e+02
      vertex   4.012620e+02 2.707072e+02 1.025263e+02
    endloop
  endfacet
  facet normal 3.613744e-01 -9.324119e-01 -4.076508e-03
    outer loop
      vertex   4.012620e+02 2.707072e+02 1.025263e+02
      vertex   4.141894e+02 2.755632e+02 1.378115e+02
      vertex   4.014991e+02 2.706445e+02 1.378879e+02
    endloop
  endfacet
endsolid
